<?xml version="1.0" encoding="UTF-8" standalone="no"?>
<svg
   xmlns:lucid="lucid"
   xmlns:dc="http://purl.org/dc/elements/1.1/"
   xmlns:cc="http://creativecommons.org/ns#"
   xmlns:rdf="http://www.w3.org/1999/02/22-rdf-syntax-ns#"
   xmlns:svg="http://www.w3.org/2000/svg"
   xmlns="http://www.w3.org/2000/svg"
   xmlns:xlink="http://www.w3.org/1999/xlink"
   xmlns:sodipodi="http://sodipodi.sourceforge.net/DTD/sodipodi-0.dtd"
   xmlns:inkscape="http://www.inkscape.org/namespaces/inkscape"
   width="1870.4"
   height="800"
   version="1.1"
   id="svg886"
   sodipodi:docname="Modulo Programacion.svg"
   inkscape:version="0.92.4 (5da689c313, 2019-01-14)"
   inkscape:export-filename="B:\Drive\Balmis 2018-2019\www\Programación 1 DAM\Primer Dia\Modulo Programacion.png"
   inkscape:export-xdpi="250"
   inkscape:export-ydpi="250">
  <metadata
     id="metadata892">
    <rdf:RDF>
      <cc:Work
         rdf:about="">
        <dc:format>image/svg+xml</dc:format>
        <dc:type
           rdf:resource="http://purl.org/dc/dcmitype/StillImage" />
      </cc:Work>
    </rdf:RDF>
  </metadata>
  <defs
     id="defs890" />
  <sodipodi:namedview
     pagecolor="#ffffff"
     bordercolor="#666666"
     borderopacity="1"
     objecttolerance="10"
     gridtolerance="10"
     guidetolerance="10"
     inkscape:pageopacity="0"
     inkscape:pageshadow="2"
     inkscape:window-width="2560"
     inkscape:window-height="1017"
     id="namedview888"
     showgrid="false"
     inkscape:zoom="0.7463644"
     inkscape:cx="914.40985"
     inkscape:cy="285.74986"
     inkscape:window-x="-8"
     inkscape:window-y="-8"
     inkscape:window-maximized="1"
     inkscape:current-layer="g884" />
  <g
     transform="translate(0 0)"
     lucid:page-tab-id="0_0"
     id="g884">
    <path
       d="M68.46 180h132.6v180H68.46z"
       stroke="#000"
       stroke-width="2"
       fill="#c1e4f7"
       id="path2"
       style="fill:#d7eef4" />
    <use
       xlink:href="#b"
       transform="matrix(1,0,0,1,73.46010701920044,185) translate(10.506172839506156 90.3888888888889)"
       id="use6" />
    <path
       d="M240.84 180h132.6v180h-132.6z"
       stroke="#000"
       stroke-width="2"
       fill="#c1e4f7"
       id="path10"
       style="fill:#d7eef4" />
    <use
       xlink:href="#b"
       transform="matrix(1,0,0,1,245.84149826880696,185) translate(10.506172839506156 89.8888888888889)"
       id="use14" />
    <path
       d="M413.22 180h132.6v180h-132.6z"
       stroke="#000"
       stroke-width="2"
       fill="#f9d2de"
       id="path18"
       style="fill:#d7eef4" />
    <path
       d="M202.06 270h19.55"
       stroke="#000"
       stroke-width="2"
       fill="none"
       id="path26" />
    <path
       d="M202.06 271h-1v-2h1zM236.6 270l-14.26 4.64v-9.28z"
       id="path28" />
    <path
       d="M239.84 270l-18.5 6v-12zm-16.5 3.26l10.03-3.26-10.03-3.26z"
       id="path30" />
    <path
       d="M374.44 270H394"
       stroke="#000"
       stroke-width="2"
       fill="none"
       id="path32" />
    <path
       d="M374.44 271h-1v-2h1zM409 270l-14.28 4.64v-9.28z"
       id="path34" />
    <path
       d="M412.22 270l-18.5 6v-12zm-16.5 3.26l10.03-3.26-10.03-3.26z"
       id="path36" />
    <path
       d="M68.46 97.3h430.6V71.32l46.76 51.97-46.77 51.96v-26H68.45z"
       stroke="#000"
       stroke-width="2"
       fill="#c7e8ac"
       id="path38" />
    <use
       xlink:href="#h"
       transform="matrix(1,0,0,1,73.46010701920048,76.31807208455132) translate(124.06790123456787 51.888888888888886)"
       id="use40" />
    <use
       xlink:href="#i"
       transform="matrix(1,0,0,1,73.46010701920048,76.31807208455132) translate(250.2283950617284 51.888888888888886)"
       id="use42" />
    <path
       d="M228.1 500h159.8v117.9H228.1z"
       stroke="#000"
       stroke-width="2"
       fill="#ffbbb1"
       id="path44" />
    <use
       xlink:href="#j"
       transform="matrix(1,0,0,1,233.107855209317,505) translate(32.96913580246913 29.555555555555557)"
       id="use46" />
    <use
       xlink:href="#k"
       transform="matrix(1,0,0,1,233.107855209317,505) translate(23.462962962962948 58.88888888888889)"
       id="use48" />
    <use
       xlink:href="#l"
       transform="matrix(1,0,0,1,233.107855209317,505) translate(28.14814814814813 88.22222222222223)"
       id="use50" />
    <path
       d="M55.2 355.08c0 23.28 18.87 42.15 42.15 42.15H517.8c23.3 0 42.17-18.87 42.17-42.15m0-252.93C559.97 78.87 541.1 60 517.8 60H97.36C74.07 60 55.2 78.87 55.2 102.15M307.58 398.23v50.4h.42v32.13M307.58 398.23v-3"
       stroke="#000"
       stroke-width="2"
       fill="none"
       id="path52"
       style="stroke:#ff0000" />
    <path
       d="M308 495.76l-4.64-14.26h9.28z"
       id="path54"
       style="fill:#ff0000" />
    <path
       d="M308 499l-6-18.5h12zm-3.26-16.5l3.26 10.03 3.26-10.03z"
       id="path56"
       style="stroke:#ff0000;fill:#ff0000" />
    <path
       d="M780 323.1h172.38v135.57H780z"
       stroke="#000"
       stroke-width="2"
       fill="#99d2f2"
       id="path58" />
    <use
       xlink:href="#m"
       transform="matrix(1,0,0,1,785,328.0882556319832) translate(36.719135802469125 23.888888888888886)"
       id="use60" />
    <use
       xlink:href="#n"
       transform="matrix(1,0,0,1,785,328.0882556319832) translate(59.160493827160494 53.22222222222222)"
       id="use62" />
    <use
       xlink:href="#o"
       transform="matrix(1,0,0,1,785,328.0882556319832) translate(12.308641975308618 82.55555555555556)"
       id="use64" />
    <use
       xlink:href="#p"
       transform="matrix(1,0,0,1,785,328.0882556319832) translate(34.10493827160492 111.88888888888889)"
       id="use66" />
    <path
       d="M657.12 210.54l71.07 68.6-71.08 68.6-71.07-68.6z"
       stroke="#000"
       stroke-width="2"
       fill="#fff"
       id="path68" />
    <use
       xlink:href="#q"
       transform="matrix(1,0,0,1,591.046284335327,215.54190777740376) translate(20.3611111111111 68.88888888888889)"
       id="use70" />
    <path
       d="M760.76 389.88v2H656.12v-1.26h16.58v-.74zm-102.64-28.6h-2v-12.15h2zM658.12 349.13h-2v-2.35l1 .96 1-.96zM775.76 390.88l-14.26 4.64v-9.27z"
       id="path72" />
    <path
       d="M779 390.88l-18.5 6v-12zm-16.5 3.26l10.03-3.26-10.03-3.26z"
       id="path74" />
    <use
       xlink:href="#r"
       transform="matrix(1,0,0,1,641.5343316398281,361.2911965682614) translate(0 19.555555555555557)"
       id="use76" />
    <path
       d="M388.9 558.95h477.3V477.9"
       stroke="#000"
       stroke-width="2"
       fill="none"
       id="path78" />
    <path
       d="M388.9 559.95h-1v-2h1zM870.83 477.17h-9.27l4.63-14.26z"
       id="path80" />
    <path
       d="M872.2 478.17h-12.02l6-18.5zm-9.27-2h6.52l-3.26-10.03z"
       id="path82" />
    <path
       d="M546.82 270h18.93v9.2h.68"
       stroke="#000"
       stroke-width="2"
       fill="none"
       id="path84" />
    <path
       d="M546.82 271h-1v-2h1zM581.43 279.2l-14.27 4.64v-9.27z"
       id="path86" />
    <path
       d="M584.67 279.2l-18.5 6v-12zm-16.5 3.26l10.02-3.26-10.04-3.26zM658.12 209.15h-2v-7.3h2zm552.94-104.84H658.12v68.2h-2v-70.2h554.94zM658.12 211.5l-1-.96-1 .97v-2.35h2zM1226.06 103.3l-14.27 4.64v-9.27z"
       id="path88" />
    <path
       d="M1229.3 103.3l-18.5 6.02V97.3zm-16.5 3.27l10.02-3.26-10.03-3.25z"
       id="path90" />
    <use
       xlink:href="#s"
       transform="matrix(1,0,0,1,645.5744550966183,172.51117954685387) translate(0 19.555555555555557)"
       id="use92" />
    <path
       d="M1230.3 60h139.23v86.62H1230.3z"
       stroke="#000"
       stroke-width="2"
       fill="#7ab648"
       id="path94" />
    <use
       xlink:href="#t"
       transform="matrix(1,0,0,1,1235.2955492603082,65) translate(15.567901234567898 43.388888888888886)"
       id="use96" />
    <path
       d="M1229.5 653.27h139.24v86.62H1229.5z"
       stroke="#000"
       stroke-width="2"
       fill="#c92d39"
       id="path98" />
    <use
       xlink:href="#u"
       transform="matrix(1,0,0,1,1234.5111111111112,658.2682607271537) translate(6.740740740740733 43.388888888888886)"
       id="use100" />
    <path
       d="M227.58 640H386.7v117.9H227.58z"
       stroke="#000"
       stroke-width="2"
       fill="#ffdba9"
       id="path102" />
    <use
       xlink:href="#v"
       transform="matrix(1,0,0,1,232.5813912496066,645) translate(20.067901234567884 29.555555555555557)"
       id="use104" />
    <use
       xlink:href="#w"
       transform="matrix(1,0,0,1,232.5813912496066,645) translate(46.71913580246913 58.88888888888889)"
       id="use106" />
    <use
       xlink:href="#x"
       transform="matrix(1,0,0,1,232.5813912496066,645) translate(80.66975308641975 58.88888888888889)"
       id="use108" />
    <use
       xlink:href="#y"
       transform="matrix(1,0,0,1,232.5813912496066,645) translate(5.808641975308618 88.22222222222223)"
       id="use110" />
    <path
       d="M387.7 698.95h478.5V477.9"
       stroke="#000"
       stroke-width="2"
       fill="none"
       id="path112" />
    <path
       d="M387.7 699.95h-1v-2h1zM870.83 477.17h-9.27l4.63-14.26z"
       id="path114" />
    <path
       d="M872.2 478.17h-12.02l6-18.5zm-9.27-2h6.52l-3.26-10.03z"
       id="path116" />
    <path
       d="M1073.38 322.26l71.07 68.6-71.07 68.6-71.07-68.6z"
       stroke="#000"
       stroke-width="2"
       fill="#fff"
       id="path118" />
    <use
       xlink:href="#q"
       transform="matrix(1,0,0,1,1007.3092070529227,327.26026878498845) translate(20.3611111111111 68.88888888888889)"
       id="use120" />
    <path
       d="M953.38 390.88h29.26"
       stroke="#000"
       stroke-width="2"
       fill="none"
       id="path122" />
    <path
       d="M953.38 391.88h-1v-2h1zM997.65 390.88l-14.26 4.64v-9.27z"
       id="path124" />
    <path
       d="M1000.9 390.88l-18.5 6v-12zm-16.5 3.26l10.02-3.26-10.03-3.26zM1074.38 320.87h-2V315h2zm226.53-85.63H1074.4v50.4h-2v-52.4h226.53v-67.4h2zM1074.38 323.23l-1-.97-1 .97v-2.36h2zM1304.55 165.12h-9.27l4.63-14.27z"
       id="path126" />
    <path
       d="M1305.92 166.12h-12.02l6-18.5zm-9.27-2h6.52l-3.26-10.03z"
       id="path128" />
    <use
       xlink:href="#s"
       transform="matrix(1,0,0,1,1061.837377814214,285.6534236943001) translate(0 19.555555555555557)"
       id="use130" />
    <path
       d="M1443.64 331.17h200.7v117.9h-200.7z"
       stroke="#000"
       stroke-width="2"
       fill="#99d2f2"
       id="path132" />
    <use
       xlink:href="#m"
       transform="matrix(1,0,0,1,1448.6444444444442,336.1684681733814) translate(50.719135802469125 29.555555555555557)"
       id="use134" />
    <use
       xlink:href="#o"
       transform="matrix(1,0,0,1,1448.6444444444442,336.1684681733814) translate(26.308641975308618 58.88888888888889)"
       id="use136" />
    <use
       xlink:href="#z"
       transform="matrix(1,0,0,1,1448.6444444444442,336.1684681733814) translate(20.978395061728364 88.22222222222223)"
       id="use138" />
    <path
       d="M1159.37 391.86h-13.48v-2h13.47zm51.25 0h-20.1v-2h20.1z"
       id="path140" />
    <path
       d="M1145.9 391.86h-2.48l1.03-1-1.03-1h2.47zM1225.62 390.86l-14.26 4.64v-9.27z"
       id="path142" />
    <path
       d="M1228.86 390.86l-18.5 6v-12zm-16.5 3.26l10.03-3.26-10.04-3.26z"
       id="path144" />
    <use
       xlink:href="#r"
       transform="matrix(1,0,0,1,1159.3658343113755,376.19497781436854) translate(0 19.555555555555557)"
       id="use146" />
    <path
       d="M1744.13 322.67l71.07 68.6-71.07 68.6-71.07-68.6z"
       stroke="#000"
       stroke-width="2"
       fill="#fff"
       id="path148" />
    <use
       xlink:href="#q"
       transform="matrix(1,0,0,1,1678.0572387243305,327.6724897186537) translate(20.3611111111111 68.88888888888889)"
       id="use150" />
    <path
       d="M1645.35 390.12h9.2"
       stroke="#000"
       stroke-width="2"
       fill="none"
       id="path152" />
    <path
       d="M1645.44 389.12l-.17 2-.92-.08v-2zM1668.4 391.06l-14.56 3.66.63-9.25z"
       id="path154" />
    <path
       d="M1671.62 391.27l-18.87 4.75.8-12zm-16.7 2.14l10.24-2.56-9.8-3.93zM1745.13 321.28h-2v-12.72h2zm0-42.05h-2V104.3h-354.37v-2h356.37zM1745.13 323.64l-1-.97-1 .97v-2.36h2zM1388.03 107.94l-14.27-4.63 14.27-4.63z"
       id="path156" />
    <path
       d="M1389.03 109.32l-18.5-6 18.5-6.02zm-12.03-6l10.03 3.25v-6.52z"
       id="path158" />
    <use
       xlink:href="#s"
       transform="matrix(1,0,0,1,1732.5854094856218,279.22527562699605) translate(0 19.555555555555557)"
       id="use160" />
    <path
       d="M1300.28 323.3l71.07 68.6-71.07 68.6-71.07-68.6z"
       stroke="#000"
       stroke-width="2"
       fill="#ffeca9"
       id="path162" />
    <use
       xlink:href="#A"
       transform="matrix(1,0,0,1,1234.212215566175,328.308512574153) translate(34.62037037037037 54.22222222222222)"
       id="use164" />
    <use
       xlink:href="#w"
       transform="matrix(1,0,0,1,1234.212215566175,328.308512574153) translate(31.429012345679013 83.55555555555556)"
       id="use166" />
    <use
       xlink:href="#B"
       transform="matrix(1,0,0,1,1234.212215566175,328.308512574153) translate(65.37962962962963 83.55555555555556)"
       id="use168" />
    <path
       d="M1301.28 558.08h-1.15v75.95h-2v-77.95h1.15V497.4h2zm0-90h-2v-6.18h2zM1301.28 461.9h-2v-2.35l1 .96 1-.95zM1299.13 649.03l-4.64-14.26h9.26z"
       id="path170" />
    <path
       d="M1299.13 652.27l-6.02-18.5h12.04zm-3.26-16.5l3.26 10.03 3.26-10.03z"
       id="path172" />
    <use
       xlink:href="#s"
       transform="matrix(1,0,0,1,1288.7403863274662,468.0709211199913) translate(0 19.555555555555557)"
       id="use174" />
    <path
       d="M1377.23 392.9h-4.44v-2h4.43zm47.18-.22h-15.68v.23h-.32v-2.22h16z"
       id="path176" />
    <path
       d="M1372.8 392.9h-2.48l1.03-1-1.03-1h2.47zM1439.4 391.68l-14.26 4.63v-9.26z"
       id="path178" />
    <path
       d="M1442.64 391.68l-18.5 6v-12.02zm-16.5 3.26l10.03-3.26-10.03-3.26z"
       id="path180" />
    <g
       id="g184">
      <use
         xlink:href="#r"
         transform="matrix(1,0,0,1,1377.2308843228745,377.2432216035331) translate(0 19.555555555555557)"
         id="use182" />
    </g>
    <path
       d="M1745.13 697.58h-357.15v-2h355.15V504.94h2zm0-221.97h-2v-14.33h2zM1745.13 461.27h-2v-2.36l1 .98 1-.97zM1387.24 701.2l-14.26-4.62 14.26-4.64z"
       id="path186" />
    <path
       d="M1388.24 702.6l-18.5-6.02 18.5-6zm-12.03-6.02l10.04 3.26v-6.52z"
       id="path188" />
    <g
       id="g192">
      <use
         xlink:href="#r"
         transform="matrix(1,0,0,1,1728.5452860288317,475.6050991126492) translate(0 19.555555555555557)"
         id="use190" />
    </g>
    <path
       d="M320 412.12h460v73H320z"
       stroke="#000"
       stroke-opacity="0"
       stroke-width="2"
       fill-opacity="0"
       id="path194" />
    <g
       id="g224"
       style="fill:#ff0000;stroke:#ff0000">
      <use
         xlink:href="#C"
         transform="matrix(1,0,0,1,325,417.11617595322156) translate(0 19.555555555555557)"
         id="use196"
         style="fill:#ff0000;stroke:#ff0000" />
      <use
         xlink:href="#D"
         transform="matrix(1,0,0,1,325,417.11617595322156) translate(37.9567901234568 19.555555555555557)"
         id="use198"
         style="fill:#ff0000;stroke:#ff0000" />
      <use
         xlink:href="#E"
         transform="matrix(1,0,0,1,325,417.11617595322156) translate(108.50617283950619 19.555555555555557)"
         id="use200"
         style="fill:#ff0000;stroke:#ff0000" />
      <use
         xlink:href="#F"
         transform="matrix(1,0,0,1,325,417.11617595322156) translate(134.24074074074076 19.555555555555557)"
         id="use202"
         style="fill:#ff0000;stroke:#ff0000" />
      <use
         xlink:href="#G"
         transform="matrix(1,0,0,1,325,417.11617595322156) translate(189.9197530864198 19.555555555555557)"
         id="use204"
         style="fill:#ff0000;stroke:#ff0000" />
      <use
         xlink:href="#H"
         transform="matrix(1,0,0,1,325,417.11617595322156) translate(223.87037037037044 19.555555555555557)"
         id="use206"
         style="fill:#ff0000;stroke:#ff0000" />
      <use
         xlink:href="#I"
         transform="matrix(1,0,0,1,325,417.11617595322156) translate(261.82716049382725 19.555555555555557)"
         id="use208"
         style="fill:#ff0000;stroke:#ff0000" />
      <use
         xlink:href="#C"
         transform="matrix(1,0,0,1,325,417.11617595322156) translate(0 48.88888888888889)"
         id="use210"
         style="fill:#ff0000;stroke:#ff0000" />
      <use
         xlink:href="#J"
         transform="matrix(1,0,0,1,325,417.11617595322156) translate(37.9567901234568 48.88888888888889)"
         id="use212"
         style="fill:#ff0000;stroke:#ff0000" />
      <use
         xlink:href="#K"
         transform="matrix(1,0,0,1,325,417.11617595322156) translate(127.51851851851855 48.88888888888889)"
         id="use214"
         style="fill:#ff0000;stroke:#ff0000" />
      <use
         xlink:href="#F"
         transform="matrix(1,0,0,1,325,417.11617595322156) translate(153.25308641975312 48.88888888888889)"
         id="use216"
         style="fill:#ff0000;stroke:#ff0000" />
      <use
         xlink:href="#G"
         transform="matrix(1,0,0,1,325,417.11617595322156) translate(208.93209876543216 48.88888888888889)"
         id="use218"
         style="fill:#ff0000;stroke:#ff0000" />
      <use
         xlink:href="#H"
         transform="matrix(1,0,0,1,325,417.11617595322156) translate(242.8827160493828 48.88888888888889)"
         id="use220"
         style="fill:#ff0000;stroke:#ff0000" />
      <use
         xlink:href="#L"
         transform="matrix(1,0,0,1,325,417.11617595322156) translate(280.8395061728396 48.88888888888889)"
         id="use222"
         style="fill:#ff0000;stroke:#ff0000" />
    </g>
    <path
       d="M55 499h159.78v259H55z"
       stroke="#000"
       stroke-width="2"
       fill="#99d5ca"
       id="path226" />
    <g
       id="g242">
      <use
         xlink:href="#O"
         transform="matrix(1,0,0,1,60,504) translate(75 100.05555555555554)"
         id="use232" />
      <use
         xlink:href="#P"
         transform="matrix(1,0,0,1,60,504) translate(68.88888888888889 129.38888888888886)"
         id="use234" />
      <use
         xlink:href="#O"
         transform="matrix(1,0,0,1,60,504) translate(75 158.72222222222223)"
         id="use236" />
      <text
         xml:space="preserve"
         style="font-style:normal;font-variant:normal;font-weight:normal;font-stretch:normal;font-size:26.66666603px;line-height:1.25;font-family:Verdana;-inkscape-font-specification:Verdana;letter-spacing:0px;word-spacing:0px;fill:#000000;fill-opacity:1;stroke:none"
         x="66.991402"
         y="719.61029"
         id="text5372"><tspan
           sodipodi:role="line"
           id="tspan5370"
           x="66.991402"
           y="719.61029">Examenes</tspan></text>
      <text
         xml:space="preserve"
         style="font-style:normal;font-variant:normal;font-weight:normal;font-stretch:normal;font-size:26.66666603px;line-height:1.25;font-family:Verdana;-inkscape-font-specification:Verdana;letter-spacing:0px;word-spacing:0px;fill:#000000;fill-opacity:1;stroke:none"
         x="60.292267"
         y="585.6275"
         id="text4999"><tspan
           sodipodi:role="line"
           id="tspan4997"
           x="60.292267"
           y="585.6275">Actividades</tspan></text>
      <text
         xml:space="preserve"
         style="font-style:normal;font-variant:normal;font-weight:normal;font-stretch:normal;font-size:26.66666603px;line-height:1.25;font-family:Verdana;-inkscape-font-specification:Verdana;letter-spacing:0px;word-spacing:0px;fill:#000000;fill-opacity:1;stroke:none"
         x="107.18625"
         y="552.13184"
         id="text5003"><tspan
           sodipodi:role="line"
           id="tspan5001"
           x="107.18625"
           y="552.13184">30%</tspan></text>
      <text
         xml:space="preserve"
         style="font-style:normal;font-variant:normal;font-weight:normal;font-stretch:normal;font-size:26.66666603px;line-height:1.25;font-family:Verdana;-inkscape-font-specification:Verdana;letter-spacing:0px;word-spacing:0px;fill:#000000;fill-opacity:1;stroke:none"
         x="105.84641"
         y="687.45447"
         id="text5007"><tspan
           sodipodi:role="line"
           id="tspan5005"
           x="105.84641"
           y="687.45447">70%</tspan></text>
      <path
         style="fill:none;stroke:#000000;stroke-width:1px;stroke-linecap:butt;stroke-linejoin:miter;stroke-opacity:1"
         d="m 307.14,380 168.49898,0.6338 v -21.43725"
         id="path514"
         inkscape:connector-curvature="0" />
    </g>
    <path
       d="M134.76 361v118.76"
       stroke="#000"
       stroke-width="2"
       fill="none"
       id="path244" />
    <path
       d="M135.76 361h-2v-1h2zM134.76 494.76l-4.63-14.26h9.27z"
       id="path246" />
    <path
       d="M134.76 498l-6-18.5h12zm-3.26-16.5l3.26 10.03 3.26-10.03z"
       id="path248" />
    <path
       d="M307.14 361v19H134.9v99.76"
       stroke="#000"
       stroke-width="2"
       fill="none"
       id="path250" />
    <path
       d="M308.14 361h-2v-1h2zM134.9 494.76l-4.64-14.26h9.27z"
       id="path252" />
    <path
       d="M134.9 498l-6.02-18.5h12.02zm-3.27-16.5l3.26 10.03 3.25-10.03z"
       id="path254" />
    <defs
       id="defs882">
      <path
         d="M30-248c87 1 191-15 191 75 0 78-77 80-158 76V0H30v-248zm33 125c57 0 124 11 124-50 0-59-68-47-124-48v98"
         id="R" />
      <path
         d="M114-163C36-179 61-72 57 0H25l-1-190h30c1 12-1 29 2 39 6-27 23-49 58-41v29"
         id="S" />
      <path
         d="M24-231v-30h32v30H24zM24 0v-190h32V0H24"
         id="T" />
      <path
         d="M210-169c-67 3-38 105-44 169h-31v-121c0-29-5-50-35-48C34-165 62-65 56 0H25l-1-190h30c1 10-1 24 2 32 10-44 99-50 107 0 11-21 27-35 58-36 85-2 47 119 55 194h-31v-121c0-29-5-49-35-48"
         id="U" />
      <path
         d="M100-194c63 0 86 42 84 106H49c0 40 14 67 53 68 26 1 43-12 49-29l28 8c-11 28-37 45-77 45C44 4 14-33 15-96c1-61 26-98 85-98zm52 81c6-60-76-77-97-28-3 7-6 17-6 28h103"
         id="V" />
      <g
         id="a">
        <use
           transform="matrix(0.06790123456790124,0,0,0.06790123456790124,0,0)"
           xlink:href="#R"
           id="use261" />
        <use
           transform="matrix(0.06790123456790124,0,0,0.06790123456790124,16.296296296296298,0)"
           xlink:href="#S"
           id="use263" />
        <use
           transform="matrix(0.06790123456790124,0,0,0.06790123456790124,24.376543209876544,0)"
           xlink:href="#T"
           id="use265" />
        <use
           transform="matrix(0.06790123456790124,0,0,0.06790123456790124,29.740740740740744,0)"
           xlink:href="#U"
           id="use267" />
        <use
           transform="matrix(0.06790123456790124,0,0,0.06790123456790124,50.043209876543216,0)"
           xlink:href="#V"
           id="use269" />
        <use
           transform="matrix(0.06790123456790124,0,0,0.06790123456790124,63.62345679012347,0)"
           xlink:href="#S"
           id="use271" />
      </g>
      <path
         d="M127-220V0H93v-220H8v-28h204v28h-85"
         id="W" />
      <path
         d="M135-143c-3-34-86-38-87 0 15 53 115 12 119 90S17 21 10-45l28-5c4 36 97 45 98 0-10-56-113-15-118-90-4-57 82-63 122-42 12 7 21 19 24 35"
         id="X" />
      <path
         d="M59-47c-2 24 18 29 38 22v24C64 9 27 4 27-40v-127H5v-23h24l9-43h21v43h35v23H59v120"
         id="Y" />
      <g
         id="b">
        <use
           transform="matrix(0.06790123456790124,0,0,0.06790123456790124,0,0)"
           xlink:href="#W"
           id="use277" />
        <use
           transform="matrix(0.06790123456790124,0,0,0.06790123456790124,13.987654320987655,0)"
           xlink:href="#S"
           id="use279" />
        <use
           transform="matrix(0.06790123456790124,0,0,0.06790123456790124,22.067901234567906,0)"
           xlink:href="#T"
           id="use281" />
        <use
           transform="matrix(0.06790123456790124,0,0,0.06790123456790124,27.432098765432105,0)"
           xlink:href="#U"
           id="use283" />
        <use
           transform="matrix(0.06790123456790124,0,0,0.06790123456790124,47.73456790123458,0)"
           xlink:href="#V"
           id="use285" />
        <use
           transform="matrix(0.06790123456790124,0,0,0.06790123456790124,61.314814814814824,0)"
           xlink:href="#X"
           id="use287" />
        <use
           transform="matrix(0.06790123456790124,0,0,0.06790123456790124,73.53703703703705,0)"
           xlink:href="#Y"
           id="use289" />
        <use
           transform="matrix(0.06790123456790124,0,0,0.06790123456790124,80.32716049382718,0)"
           xlink:href="#S"
           id="use291" />
        <use
           transform="matrix(0.06790123456790124,0,0,0.06790123456790124,88.40740740740743,0)"
           xlink:href="#V"
           id="use293" />
      </g>
      <path
         d="M165-50V0h-47v-50H5v-38l105-160h55v161h33v37h-33zm-47-37l2-116L46-87h72"
         id="Z" />
      <path
         d="M101-251c68 0 84 54 84 127C185-50 166 4 99 4S15-52 14-124c-1-75 17-127 87-127zm-1 216c37-5 36-46 36-89s4-89-36-89c-39 0-36 45-36 89 0 43-3 85 36 89"
         id="aa" />
      <path
         d="M249-155c45 1 62 31 62 79-1 48-18 79-63 79s-61-32-62-79c0-48 16-79 63-79zM97 0H61l162-248h36zM9-172c0-48 16-79 63-78 46 0 62 31 62 78 0 48-18 79-63 79S9-124 9-172zM249-25c24 0 24-26 24-51 0-26-1-52-24-52-24 0-25 26-25 52 0 25 0 51 25 51zM71-120c23 0 24-25 24-52 0-26 0-51-23-51-25 0-25 25-25 51 0 27 1 52 24 52"
         id="ab" />
      <g
         id="c">
        <use
           transform="matrix(0.06790123456790124,0,0,0.06790123456790124,0,0)"
           xlink:href="#Z"
           id="use299" />
        <use
           transform="matrix(0.06790123456790124,0,0,0.06790123456790124,13.580246913580249,0)"
           xlink:href="#aa"
           id="use301" />
        <use
           transform="matrix(0.06790123456790124,0,0,0.06790123456790124,27.160493827160497,0)"
           xlink:href="#ab"
           id="use303" />
      </g>
      <path
         d="M185-189c-5-48-123-54-124 2 14 75 158 14 163 119 3 78-121 87-175 55-17-10-28-26-33-46l33-7c5 56 141 63 141-1 0-78-155-14-162-118-5-82 145-84 179-34 5 7 8 16 11 25"
         id="ac" />
      <path
         d="M177-190C167-65 218 103 67 71c-23-6-38-20-44-43l32-5c15 47 100 32 89-28v-30C133-14 115 1 83 1 29 1 15-40 15-95c0-56 16-97 71-98 29-1 48 16 59 35 1-10 0-23 2-32h30zM94-22c36 0 50-32 50-73 0-42-14-75-50-75-39 0-46 34-46 75s6 73 46 73"
         id="ad" />
      <path
         d="M84 4C-5 8 30-112 23-190h32v120c0 31 7 50 39 49 72-2 45-101 50-169h31l1 190h-30c-1-10 1-25-2-33-11 22-28 36-60 37"
         id="ae" />
      <path
         d="M117-194c89-4 53 116 60 194h-32v-121c0-31-8-49-39-48C34-167 62-67 57 0H25l-1-190h30c1 10-1 24 2 32 11-22 29-35 61-36"
         id="af" />
      <path
         d="M85-194c31 0 48 13 60 33l-1-100h32l1 261h-30c-2-10 0-23-3-31C134-8 116 4 85 4 32 4 16-35 15-94c0-66 23-100 70-100zm9 24c-40 0-46 34-46 75 0 40 6 74 45 74 42 0 51-32 51-76 0-42-9-74-50-73"
         id="ag" />
      <path
         d="M100-194c62-1 85 37 85 99 1 63-27 99-86 99S16-35 15-95c0-66 28-99 85-99zM99-20c44 1 53-31 53-75 0-43-8-75-51-75s-53 32-53 75 10 74 51 75"
         id="ah" />
      <g
         id="d">
        <use
           transform="matrix(0.06790123456790124,0,0,0.06790123456790124,0,0)"
           xlink:href="#ac"
           id="use312" />
        <use
           transform="matrix(0.06790123456790124,0,0,0.06790123456790124,16.296296296296298,0)"
           xlink:href="#V"
           id="use314" />
        <use
           transform="matrix(0.06790123456790124,0,0,0.06790123456790124,29.876543209876544,0)"
           xlink:href="#ad"
           id="use316" />
        <use
           transform="matrix(0.06790123456790124,0,0,0.06790123456790124,43.45679012345679,0)"
           xlink:href="#ae"
           id="use318" />
        <use
           transform="matrix(0.06790123456790124,0,0,0.06790123456790124,57.03703703703704,0)"
           xlink:href="#af"
           id="use320" />
        <use
           transform="matrix(0.06790123456790124,0,0,0.06790123456790124,70.61728395061729,0)"
           xlink:href="#ag"
           id="use322" />
        <use
           transform="matrix(0.06790123456790124,0,0,0.06790123456790124,84.19753086419755,0)"
           xlink:href="#ah"
           id="use324" />
      </g>
      <path
         d="M30 0v-248h187v28H63v79h144v27H63v87h162V0H30"
         id="ai" />
      <path
         d="M141 0L90-78 38 0H4l68-98-65-92h35l48 74 47-74h35l-64 92 68 98h-35"
         id="aj" />
      <path
         d="M115-194c55 1 70 41 70 98S169 2 115 4C84 4 66-9 55-30l1 105H24l-1-265h31l2 30c10-21 28-34 59-34zm-8 174c40 0 45-34 45-75s-6-73-45-74c-42 0-51 32-51 76 0 43 10 73 51 73"
         id="ak" />
      <path
         d="M96-169c-40 0-48 33-48 73s9 75 48 75c24 0 41-14 43-38l32 2c-6 37-31 61-74 61-59 0-76-41-82-99-10-93 101-131 147-64 4 7 5 14 7 22l-32 3c-4-21-16-35-41-35"
         id="al" />
      <path
         d="M100-194c62-1 85 37 85 99 1 63-27 99-86 99S16-35 15-95c0-66 28-99 85-99zM99-20c44 1 53-31 53-75 0-43-8-75-51-75s-53 32-53 75 10 74 51 75zM76-211c8-23 27-35 38-54h36v5l-58 49H76"
         id="am" />
      <g
         id="e">
        <use
           transform="matrix(0.06790123456790124,0,0,0.06790123456790124,0,0)"
           xlink:href="#ai"
           id="use332" />
        <use
           transform="matrix(0.06790123456790124,0,0,0.06790123456790124,16.296296296296298,0)"
           xlink:href="#aj"
           id="use334" />
        <use
           transform="matrix(0.06790123456790124,0,0,0.06790123456790124,28.51851851851852,0)"
           xlink:href="#ak"
           id="use336" />
        <use
           transform="matrix(0.06790123456790124,0,0,0.06790123456790124,42.098765432098766,0)"
           xlink:href="#ah"
           id="use338" />
        <use
           transform="matrix(0.06790123456790124,0,0,0.06790123456790124,55.67901234567901,0)"
           xlink:href="#X"
           id="use340" />
        <use
           transform="matrix(0.06790123456790124,0,0,0.06790123456790124,67.90123456790124,0)"
           xlink:href="#T"
           id="use342" />
        <use
           transform="matrix(0.06790123456790124,0,0,0.06790123456790124,73.26543209876544,0)"
           xlink:href="#al"
           id="use344" />
        <use
           transform="matrix(0.06790123456790124,0,0,0.06790123456790124,85.48765432098767,0)"
           xlink:href="#T"
           id="use346" />
        <use
           transform="matrix(0.06790123456790124,0,0,0.06790123456790124,90.85185185185188,0)"
           xlink:href="#am"
           id="use348" />
        <use
           transform="matrix(0.06790123456790124,0,0,0.06790123456790124,104.43209876543213,0)"
           xlink:href="#af"
           id="use350" />
      </g>
      <path
         d="M140-251c81 0 123 46 123 126C263-46 219 4 140 4 59 4 17-45 17-125s42-126 123-126zm0 227c63 0 89-41 89-101s-29-99-89-99c-61 0-89 39-89 99S79-25 140-24"
         id="an" />
      <path
         d="M141-36C126-15 110 5 73 4 37 3 15-17 15-53c-1-64 63-63 125-63 3-35-9-54-41-54-24 1-41 7-42 31l-33-3c5-37 33-52 76-52 45 0 72 20 72 64v82c-1 20 7 32 28 27v20c-31 9-61-2-59-35zM48-53c0 20 12 33 32 33 41-3 63-29 60-74-43 2-92-5-92 41"
         id="ao" />
      <path
         d="M24 0v-261h32V0H24"
         id="ap" />
      <g
         id="f">
        <use
           transform="matrix(0.06790123456790124,0,0,0.06790123456790124,0,0)"
           xlink:href="#an"
           id="use356" />
        <use
           transform="matrix(0.06790123456790124,0,0,0.06790123456790124,19.01234567901235,0)"
           xlink:href="#S"
           id="use358" />
        <use
           transform="matrix(0.06790123456790124,0,0,0.06790123456790124,27.092592592592595,0)"
           xlink:href="#ao"
           id="use360" />
        <use
           transform="matrix(0.06790123456790124,0,0,0.06790123456790124,40.67283950617284,0)"
           xlink:href="#ap"
           id="use362" />
      </g>
      <path
         d="M182-182c0 78-84 86-111 141h115V0H12c-6-101 99-100 120-180 1-22-12-31-33-32-23 0-32 14-35 34l-49-3c5-45 32-70 84-70 51 0 83 22 83 69"
         id="aq" />
      <g
         id="g">
        <use
           transform="matrix(0.06790123456790124,0,0,0.06790123456790124,0,0)"
           xlink:href="#aq"
           id="use366" />
        <use
           transform="matrix(0.06790123456790124,0,0,0.06790123456790124,13.580246913580249,0)"
           xlink:href="#aa"
           id="use368" />
        <use
           transform="matrix(0.06790123456790124,0,0,0.06790123456790124,27.160493827160497,0)"
           xlink:href="#ab"
           id="use370" />
      </g>
      <path
         d="M108 0H70L1-190h34L89-25l56-165h34"
         id="ar" />
      <g
         id="h">
        <use
           transform="matrix(0.06790123456790124,0,0,0.06790123456790124,0,0)"
           xlink:href="#ai"
           id="use374" />
        <use
           transform="matrix(0.06790123456790124,0,0,0.06790123456790124,16.296296296296298,0)"
           xlink:href="#ar"
           id="use376" />
        <use
           transform="matrix(0.06790123456790124,0,0,0.06790123456790124,28.51851851851852,0)"
           xlink:href="#ao"
           id="use378" />
        <use
           transform="matrix(0.06790123456790124,0,0,0.06790123456790124,42.098765432098766,0)"
           xlink:href="#ap"
           id="use380" />
        <use
           transform="matrix(0.06790123456790124,0,0,0.06790123456790124,47.46296296296296,0)"
           xlink:href="#ae"
           id="use382" />
        <use
           transform="matrix(0.06790123456790124,0,0,0.06790123456790124,61.04320987654321,0)"
           xlink:href="#ao"
           id="use384" />
        <use
           transform="matrix(0.06790123456790124,0,0,0.06790123456790124,74.62345679012346,0)"
           xlink:href="#al"
           id="use386" />
        <use
           transform="matrix(0.06790123456790124,0,0,0.06790123456790124,86.84567901234567,0)"
           xlink:href="#T"
           id="use388" />
        <use
           transform="matrix(0.06790123456790124,0,0,0.06790123456790124,92.20987654320989,0)"
           xlink:href="#am"
           id="use390" />
        <use
           transform="matrix(0.06790123456790124,0,0,0.06790123456790124,105.79012345679014,0)"
           xlink:href="#af"
           id="use392" />
      </g>
      <path
         d="M34 0v-190h32V0H34zM24-211c8-23 27-35 38-54h36v5l-58 49H24"
         id="as" />
      <g
         id="i">
        <use
           transform="matrix(0.06790123456790124,0,0,0.06790123456790124,0,0)"
           xlink:href="#al"
           id="use396" />
        <use
           transform="matrix(0.06790123456790124,0,0,0.06790123456790124,12.222222222222223,0)"
           xlink:href="#ah"
           id="use398" />
        <use
           transform="matrix(0.06790123456790124,0,0,0.06790123456790124,25.802469135802472,0)"
           xlink:href="#af"
           id="use400" />
        <use
           transform="matrix(0.06790123456790124,0,0,0.06790123456790124,39.38271604938272,0)"
           xlink:href="#Y"
           id="use402" />
        <use
           transform="matrix(0.06790123456790124,0,0,0.06790123456790124,46.17283950617285,0)"
           xlink:href="#as"
           id="use404" />
        <use
           transform="matrix(0.06790123456790124,0,0,0.06790123456790124,52.962962962962976,0)"
           xlink:href="#af"
           id="use406" />
        <use
           transform="matrix(0.06790123456790124,0,0,0.06790123456790124,66.54320987654323,0)"
           xlink:href="#ae"
           id="use408" />
        <use
           transform="matrix(0.06790123456790124,0,0,0.06790123456790124,80.12345679012348,0)"
           xlink:href="#ao"
           id="use410" />
      </g>
      <path
         d="M100-194c63 0 86 42 84 106H49c0 40 14 67 53 68 26 1 43-12 49-29l28 8c-11 28-37 45-77 45C44 4 14-33 15-96c1-61 26-98 85-98zm52 81c6-60-76-77-97-28-3 7-6 17-6 28h103zm-74-98c8-23 27-35 38-54h36v5l-58 49H78"
         id="at" />
      <g
         id="j">
        <use
           transform="matrix(0.06790123456790124,0,0,0.06790123456790124,0,0)"
           xlink:href="#R"
           id="use414" />
        <use
           transform="matrix(0.06790123456790124,0,0,0.06790123456790124,16.296296296296298,0)"
           xlink:href="#at"
           id="use416" />
        <use
           transform="matrix(0.06790123456790124,0,0,0.06790123456790124,29.876543209876544,0)"
           xlink:href="#S"
           id="use418" />
        <use
           transform="matrix(0.06790123456790124,0,0,0.06790123456790124,37.95679012345679,0)"
           xlink:href="#ag"
           id="use420" />
        <use
           transform="matrix(0.06790123456790124,0,0,0.06790123456790124,51.53703703703704,0)"
           xlink:href="#T"
           id="use422" />
        <use
           transform="matrix(0.06790123456790124,0,0,0.06790123456790124,56.901234567901234,0)"
           xlink:href="#ag"
           id="use424" />
        <use
           transform="matrix(0.06790123456790124,0,0,0.06790123456790124,70.48148148148148,0)"
           xlink:href="#ao"
           id="use426" />
      </g>
      <g
         id="k">
        <use
           transform="matrix(0.06790123456790124,0,0,0.06790123456790124,0,0)"
           xlink:href="#V"
           id="use429" />
        <use
           transform="matrix(0.06790123456790124,0,0,0.06790123456790124,13.580246913580249,0)"
           xlink:href="#ar"
           id="use431" />
        <use
           transform="matrix(0.06790123456790124,0,0,0.06790123456790124,25.802469135802472,0)"
           xlink:href="#ao"
           id="use433" />
        <use
           transform="matrix(0.06790123456790124,0,0,0.06790123456790124,39.38271604938272,0)"
           xlink:href="#ap"
           id="use435" />
        <use
           transform="matrix(0.06790123456790124,0,0,0.06790123456790124,44.74691358024692,0)"
           xlink:href="#ae"
           id="use437" />
        <use
           transform="matrix(0.06790123456790124,0,0,0.06790123456790124,58.32716049382716,0)"
           xlink:href="#al"
           id="use439" />
        <use
           transform="matrix(0.06790123456790124,0,0,0.06790123456790124,70.5493827160494,0)"
           xlink:href="#T"
           id="use441" />
        <use
           transform="matrix(0.06790123456790124,0,0,0.06790123456790124,75.9135802469136,0)"
           xlink:href="#am"
           id="use443" />
        <use
           transform="matrix(0.06790123456790124,0,0,0.06790123456790124,89.49382716049385,0)"
           xlink:href="#af"
           id="use445" />
      </g>
      <g
         id="l">
        <use
           transform="matrix(0.06790123456790124,0,0,0.06790123456790124,0,0)"
           xlink:href="#al"
           id="use448" />
        <use
           transform="matrix(0.06790123456790124,0,0,0.06790123456790124,12.222222222222223,0)"
           xlink:href="#ah"
           id="use450" />
        <use
           transform="matrix(0.06790123456790124,0,0,0.06790123456790124,25.802469135802472,0)"
           xlink:href="#af"
           id="use452" />
        <use
           transform="matrix(0.06790123456790124,0,0,0.06790123456790124,39.38271604938272,0)"
           xlink:href="#Y"
           id="use454" />
        <use
           transform="matrix(0.06790123456790124,0,0,0.06790123456790124,46.17283950617285,0)"
           xlink:href="#as"
           id="use456" />
        <use
           transform="matrix(0.06790123456790124,0,0,0.06790123456790124,52.962962962962976,0)"
           xlink:href="#af"
           id="use458" />
        <use
           transform="matrix(0.06790123456790124,0,0,0.06790123456790124,66.54320987654323,0)"
           xlink:href="#ae"
           id="use460" />
        <use
           transform="matrix(0.06790123456790124,0,0,0.06790123456790124,80.12345679012348,0)"
           xlink:href="#ao"
           id="use462" />
      </g>
      <g
         id="m">
        <use
           transform="matrix(0.06790123456790124,0,0,0.06790123456790124,0,0)"
           xlink:href="#ai"
           id="use465" />
        <use
           transform="matrix(0.06790123456790124,0,0,0.06790123456790124,16.296296296296298,0)"
           xlink:href="#aj"
           id="use467" />
        <use
           transform="matrix(0.06790123456790124,0,0,0.06790123456790124,28.51851851851852,0)"
           xlink:href="#ao"
           id="use469" />
        <use
           transform="matrix(0.06790123456790124,0,0,0.06790123456790124,42.098765432098766,0)"
           xlink:href="#U"
           id="use471" />
        <use
           transform="matrix(0.06790123456790124,0,0,0.06790123456790124,62.40123456790124,0)"
           xlink:href="#V"
           id="use473" />
        <use
           transform="matrix(0.06790123456790124,0,0,0.06790123456790124,75.9814814814815,0)"
           xlink:href="#af"
           id="use475" />
      </g>
      <path
         d="M101-234c-31-9-42 10-38 44h38v23H63V0H32v-167H5v-23h27c-7-52 17-82 69-68v24"
         id="au" />
      <g
         id="n">
        <use
           transform="matrix(0.06790123456790124,0,0,0.06790123456790124,0,0)"
           xlink:href="#au"
           id="use479" />
        <use
           transform="matrix(0.06790123456790124,0,0,0.06790123456790124,6.790123456790124,0)"
           xlink:href="#T"
           id="use481" />
        <use
           transform="matrix(0.06790123456790124,0,0,0.06790123456790124,12.154320987654323,0)"
           xlink:href="#af"
           id="use483" />
        <use
           transform="matrix(0.06790123456790124,0,0,0.06790123456790124,25.734567901234573,0)"
           xlink:href="#ao"
           id="use485" />
        <use
           transform="matrix(0.06790123456790124,0,0,0.06790123456790124,39.31481481481481,0)"
           xlink:href="#ap"
           id="use487" />
      </g>
      <g
         id="o">
        <use
           transform="matrix(0.06790123456790124,0,0,0.06790123456790124,0,0)"
           xlink:href="#al"
           id="use490" />
        <use
           transform="matrix(0.06790123456790124,0,0,0.06790123456790124,12.222222222222223,0)"
           xlink:href="#ah"
           id="use492" />
        <use
           transform="matrix(0.06790123456790124,0,0,0.06790123456790124,25.802469135802472,0)"
           xlink:href="#af"
           id="use494" />
        <use
           transform="matrix(0.06790123456790124,0,0,0.06790123456790124,39.38271604938272,0)"
           xlink:href="#ar"
           id="use496" />
        <use
           transform="matrix(0.06790123456790124,0,0,0.06790123456790124,51.604938271604944,0)"
           xlink:href="#ah"
           id="use498" />
        <use
           transform="matrix(0.06790123456790124,0,0,0.06790123456790124,65.18518518518519,0)"
           xlink:href="#al"
           id="use500" />
        <use
           transform="matrix(0.06790123456790124,0,0,0.06790123456790124,77.40740740740742,0)"
           xlink:href="#ao"
           id="use502" />
        <use
           transform="matrix(0.06790123456790124,0,0,0.06790123456790124,90.98765432098767,0)"
           xlink:href="#Y"
           id="use504" />
        <use
           transform="matrix(0.06790123456790124,0,0,0.06790123456790124,97.77777777777779,0)"
           xlink:href="#ah"
           id="use506" />
        <use
           transform="matrix(0.06790123456790124,0,0,0.06790123456790124,111.35802469135805,0)"
           xlink:href="#S"
           id="use508" />
        <use
           transform="matrix(0.06790123456790124,0,0,0.06790123456790124,119.43827160493831,0)"
           xlink:href="#T"
           id="use510" />
        <use
           transform="matrix(0.06790123456790124,0,0,0.06790123456790124,124.80246913580253,0)"
           xlink:href="#ao"
           id="use512" />
      </g>
      <g
         id="p">
        <use
           transform="matrix(0.06790123456790124,0,0,0.06790123456790124,0,0)"
           xlink:href="#ah"
           id="use515" />
        <use
           transform="matrix(0.06790123456790124,0,0,0.06790123456790124,13.580246913580249,0)"
           xlink:href="#S"
           id="use517" />
        <use
           transform="matrix(0.06790123456790124,0,0,0.06790123456790124,21.660493827160497,0)"
           xlink:href="#ag"
           id="use519" />
        <use
           transform="matrix(0.06790123456790124,0,0,0.06790123456790124,35.24074074074075,0)"
           xlink:href="#T"
           id="use521" />
        <use
           transform="matrix(0.06790123456790124,0,0,0.06790123456790124,40.604938271604944,0)"
           xlink:href="#af"
           id="use523" />
        <use
           transform="matrix(0.06790123456790124,0,0,0.06790123456790124,54.18518518518519,0)"
           xlink:href="#ao"
           id="use525" />
        <use
           transform="matrix(0.06790123456790124,0,0,0.06790123456790124,67.76543209876544,0)"
           xlink:href="#S"
           id="use527" />
        <use
           transform="matrix(0.06790123456790124,0,0,0.06790123456790124,75.84567901234571,0)"
           xlink:href="#T"
           id="use529" />
        <use
           transform="matrix(0.06790123456790124,0,0,0.06790123456790124,81.2098765432099,0)"
           xlink:href="#ao"
           id="use531" />
      </g>
      <path
         d="M205 0l-28-72H64L36 0H1l101-248h38L239 0h-34zm-38-99l-47-123c-12 45-31 82-46 123h93"
         id="av" />
      <path
         d="M115-194c53 0 69 39 70 98 0 66-23 100-70 100C84 3 66-7 56-30L54 0H23l1-261h32v101c10-23 28-34 59-34zm-8 174c40 0 45-34 45-75 0-40-5-75-45-74-42 0-51 32-51 76 0 43 10 73 51 73"
         id="aw" />
      <g
         id="q">
        <use
           transform="matrix(0.06790123456790124,0,0,0.06790123456790124,0,0)"
           xlink:href="#av"
           id="use536" />
        <use
           transform="matrix(0.06790123456790124,0,0,0.06790123456790124,16.296296296296298,0)"
           xlink:href="#ak"
           id="use538" />
        <use
           transform="matrix(0.06790123456790124,0,0,0.06790123456790124,29.876543209876544,0)"
           xlink:href="#S"
           id="use540" />
        <use
           transform="matrix(0.06790123456790124,0,0,0.06790123456790124,37.95679012345679,0)"
           xlink:href="#ae"
           id="use542" />
        <use
           transform="matrix(0.06790123456790124,0,0,0.06790123456790124,51.53703703703704,0)"
           xlink:href="#V"
           id="use544" />
        <use
           transform="matrix(0.06790123456790124,0,0,0.06790123456790124,65.11728395061729,0)"
           xlink:href="#aw"
           id="use546" />
        <use
           transform="matrix(0.06790123456790124,0,0,0.06790123456790124,78.69753086419755,0)"
           xlink:href="#ao"
           id="use548" />
      </g>
      <path
         d="M190 0L58-211 59 0H30v-248h39L202-35l-2-213h31V0h-41"
         id="ax" />
      <g
         id="r">
        <use
           transform="matrix(0.06790123456790124,0,0,0.06790123456790124,0,0)"
           xlink:href="#ax"
           id="use552" />
        <use
           transform="matrix(0.06790123456790124,0,0,0.06790123456790124,17.58641975308642,0)"
           xlink:href="#ah"
           id="use554" />
      </g>
      <g
         id="s">
        <use
           transform="matrix(0.06790123456790124,0,0,0.06790123456790124,0,0)"
           xlink:href="#ac"
           id="use557" />
        <use
           transform="matrix(0.06790123456790124,0,0,0.06790123456790124,16.296296296296298,0)"
           xlink:href="#as"
           id="use559" />
      </g>
      <path
         fill="#fff"
         d="M199 0l-22-63H83L61 0H9l90-248h61L250 0h-51zm-33-102l-36-108c-10 38-24 72-36 108h72"
         id="ay" />
      <path
         fill="#fff"
         d="M135-194c53 0 70 44 70 98 0 56-19 98-73 100-31 1-45-17-59-34 3 33 2 69 2 105H25l-1-265h48c2 10 0 23 3 31 11-24 29-35 60-35zM114-30c33 0 39-31 40-66 0-38-9-64-40-64-56 0-55 130 0 130"
         id="az" />
      <path
         fill="#fff"
         d="M135-150c-39-12-60 13-60 57V0H25l-1-190h47c2 13-1 29 3 40 6-28 27-53 61-41v41"
         id="aA" />
      <path
         fill="#fff"
         d="M85 4C-2 5 27-109 22-190h50c7 57-23 150 33 157 60-5 35-97 40-157h50l1 190h-47c-2-12 1-28-3-38-12 25-28 42-61 42"
         id="aB" />
      <path
         fill="#fff"
         d="M185-48c-13 30-37 53-82 52C43 2 14-33 14-96s30-98 90-98c62 0 83 45 84 108H66c0 31 8 55 39 56 18 0 30-7 34-22zm-45-69c5-46-57-63-70-21-2 6-4 13-4 21h74"
         id="aC" />
      <path
         fill="#fff"
         d="M135-194c52 0 70 43 70 98 0 56-19 99-73 100-30 1-46-15-58-35L72 0H24l1-261h50v104c11-23 29-37 60-37zM114-30c31 0 40-27 40-66 0-37-7-63-39-63s-41 28-41 65c0 36 8 64 40 64"
         id="aD" />
      <path
         fill="#fff"
         d="M133-34C117-15 103 5 69 4 32 3 11-16 11-54c-1-60 55-63 116-61 1-26-3-47-28-47-18 1-26 9-28 27l-52-2c7-38 36-58 82-57s74 22 75 68l1 82c-1 14 12 18 25 15v27c-30 8-71 5-69-32zm-48 3c29 0 43-24 42-57-32 0-66-3-65 30 0 17 8 27 23 27"
         id="aE" />
      <g
         id="t">
        <use
           transform="matrix(0.06790123456790124,0,0,0.06790123456790124,0,0)"
           xlink:href="#ay"
           id="use569" />
        <use
           transform="matrix(0.06790123456790124,0,0,0.06790123456790124,17.58641975308642,0)"
           xlink:href="#az"
           id="use571" />
        <use
           transform="matrix(0.06790123456790124,0,0,0.06790123456790124,32.45679012345679,0)"
           xlink:href="#aA"
           id="use573" />
        <use
           transform="matrix(0.06790123456790124,0,0,0.06790123456790124,41.96296296296296,0)"
           xlink:href="#aB"
           id="use575" />
        <use
           transform="matrix(0.06790123456790124,0,0,0.06790123456790124,56.833333333333336,0)"
           xlink:href="#aC"
           id="use577" />
        <use
           transform="matrix(0.06790123456790124,0,0,0.06790123456790124,70.41358024691357,0)"
           xlink:href="#aD"
           id="use579" />
        <use
           transform="matrix(0.06790123456790124,0,0,0.06790123456790124,85.28395061728395,0)"
           xlink:href="#aE"
           id="use581" />
      </g>
      <path
         fill="#fff"
         d="M169-182c-1-43-94-46-97-3 18 66 151 10 154 114 3 95-165 93-204 36-6-8-10-19-12-30l50-8c3 46 112 56 116 5-17-69-150-10-154-114-4-87 153-88 188-35 5 8 8 18 10 28"
         id="aF" />
      <path
         fill="#fff"
         d="M137-138c1-29-70-34-71-4 15 46 118 7 119 86 1 83-164 76-172 9l43-7c4 19 20 25 44 25 33 8 57-30 24-41C81-84 22-81 20-136c-2-80 154-74 161-7"
         id="aG" />
      <path
         fill="#fff"
         d="M135-194c87-1 58 113 63 194h-50c-7-57 23-157-34-157-59 0-34 97-39 157H25l-1-190h47c2 12-1 28 3 38 12-26 28-41 61-42"
         id="aH" />
      <path
         fill="#fff"
         d="M88-194c31-1 46 15 58 34l-1-101h50l1 261h-48c-2-10 0-23-3-31C134-8 116 4 84 4 32 4 16-41 15-95c0-56 19-97 73-99zm17 164c33 0 40-30 41-66 1-37-9-64-41-64s-38 30-39 65c0 43 13 65 39 65"
         id="aI" />
      <g
         id="u">
        <use
           transform="matrix(0.06790123456790124,0,0,0.06790123456790124,0,0)"
           xlink:href="#aF"
           id="use588" />
        <use
           transform="matrix(0.06790123456790124,0,0,0.06790123456790124,16.296296296296298,0)"
           xlink:href="#aB"
           id="use590" />
        <use
           transform="matrix(0.06790123456790124,0,0,0.06790123456790124,31.16666666666667,0)"
           xlink:href="#aG"
           id="use592" />
        <use
           transform="matrix(0.06790123456790124,0,0,0.06790123456790124,44.74691358024692,0)"
           xlink:href="#az"
           id="use594" />
        <use
           transform="matrix(0.06790123456790124,0,0,0.06790123456790124,59.61728395061729,0)"
           xlink:href="#aC"
           id="use596" />
        <use
           transform="matrix(0.06790123456790124,0,0,0.06790123456790124,73.19753086419755,0)"
           xlink:href="#aH"
           id="use598" />
        <use
           transform="matrix(0.06790123456790124,0,0,0.06790123456790124,88.06790123456791,0)"
           xlink:href="#aI"
           id="use600" />
        <use
           transform="matrix(0.06790123456790124,0,0,0.06790123456790124,102.9382716049383,0)"
           xlink:href="#aC"
           id="use602" />
      </g>
      <g
         id="v">
        <use
           transform="matrix(0.06790123456790124,0,0,0.06790123456790124,0,0)"
           xlink:href="#av"
           id="use605" />
        <use
           transform="matrix(0.06790123456790124,0,0,0.06790123456790124,16.296296296296298,0)"
           xlink:href="#ap"
           id="use607" />
        <use
           transform="matrix(0.06790123456790124,0,0,0.06790123456790124,21.660493827160497,0)"
           xlink:href="#ae"
           id="use609" />
        <use
           transform="matrix(0.06790123456790124,0,0,0.06790123456790124,35.24074074074075,0)"
           xlink:href="#U"
           id="use611" />
        <use
           transform="matrix(0.06790123456790124,0,0,0.06790123456790124,55.543209876543216,0)"
           xlink:href="#af"
           id="use613" />
        <use
           transform="matrix(0.06790123456790124,0,0,0.06790123456790124,69.12345679012347,0)"
           xlink:href="#ao"
           id="use615" />
        <use
           transform="matrix(0.06790123456790124,0,0,0.06790123456790124,82.70370370370371,0)"
           xlink:href="#ag"
           id="use617" />
        <use
           transform="matrix(0.06790123456790124,0,0,0.06790123456790124,96.28395061728398,0)"
           xlink:href="#ah"
           id="use619" />
      </g>
      <g
         id="w">
        <use
           transform="matrix(0.06790123456790124,0,0,0.06790123456790124,0,0)"
           xlink:href="#V"
           id="use622" />
        <use
           transform="matrix(0.06790123456790124,0,0,0.06790123456790124,13.580246913580249,0)"
           xlink:href="#af"
           id="use624" />
      </g>
      <path
         d="M54-142c48-35 137-8 131 61C196 18 31 33 14-55l32-4c7 23 22 37 52 37 35-1 51-22 54-58 4-55-73-65-99-34H22l8-134h141v27H59"
         id="aJ" />
      <path
         d="M92-140c-14 34-87 38-87-13 0-44 44-42 86-43 1-23-4-39-27-38-17 1-26 6-27 24l-27-2c5-26 23-40 54-40s52 13 52 44v54c-2 15 5 22 18 18 1 13 1 22-14 21-18-1-26-9-28-25zm-26-39c-35-9-50 45-13 45 26 0 40-17 38-46"
         id="aK" />
      <g
         id="x">
        <use
           transform="matrix(0.06790123456790124,0,0,0.06790123456790124,0,0)"
           xlink:href="#aJ"
           id="use629" />
        <use
           transform="matrix(0.06790123456790124,0,0,0.06790123456790124,13.580246913580249,0)"
           xlink:href="#aK"
           id="use631" />
      </g>
      <g
         id="y">
        <use
           transform="matrix(0.06790123456790124,0,0,0.06790123456790124,0,0)"
           xlink:href="#al"
           id="use634" />
        <use
           transform="matrix(0.06790123456790124,0,0,0.06790123456790124,12.222222222222223,0)"
           xlink:href="#ah"
           id="use636" />
        <use
           transform="matrix(0.06790123456790124,0,0,0.06790123456790124,25.802469135802472,0)"
           xlink:href="#af"
           id="use638" />
        <use
           transform="matrix(0.06790123456790124,0,0,0.06790123456790124,39.38271604938272,0)"
           xlink:href="#ar"
           id="use640" />
        <use
           transform="matrix(0.06790123456790124,0,0,0.06790123456790124,51.604938271604944,0)"
           xlink:href="#ah"
           id="use642" />
        <use
           transform="matrix(0.06790123456790124,0,0,0.06790123456790124,65.18518518518519,0)"
           xlink:href="#al"
           id="use644" />
        <use
           transform="matrix(0.06790123456790124,0,0,0.06790123456790124,77.40740740740742,0)"
           xlink:href="#ao"
           id="use646" />
        <use
           transform="matrix(0.06790123456790124,0,0,0.06790123456790124,90.98765432098767,0)"
           xlink:href="#Y"
           id="use648" />
        <use
           transform="matrix(0.06790123456790124,0,0,0.06790123456790124,97.77777777777779,0)"
           xlink:href="#ah"
           id="use650" />
        <use
           transform="matrix(0.06790123456790124,0,0,0.06790123456790124,111.35802469135805,0)"
           xlink:href="#S"
           id="use652" />
        <use
           transform="matrix(0.06790123456790124,0,0,0.06790123456790124,119.43827160493831,0)"
           xlink:href="#T"
           id="use654" />
        <use
           transform="matrix(0.06790123456790124,0,0,0.06790123456790124,124.80246913580253,0)"
           xlink:href="#ao"
           id="use656" />
      </g>
      <g
         id="z">
        <use
           transform="matrix(0.06790123456790124,0,0,0.06790123456790124,0,0)"
           xlink:href="#V"
           id="use659" />
        <use
           transform="matrix(0.06790123456790124,0,0,0.06790123456790124,13.580246913580249,0)"
           xlink:href="#aj"
           id="use661" />
        <use
           transform="matrix(0.06790123456790124,0,0,0.06790123456790124,25.802469135802472,0)"
           xlink:href="#Y"
           id="use663" />
        <use
           transform="matrix(0.06790123456790124,0,0,0.06790123456790124,32.592592592592595,0)"
           xlink:href="#S"
           id="use665" />
        <use
           transform="matrix(0.06790123456790124,0,0,0.06790123456790124,40.67283950617284,0)"
           xlink:href="#ao"
           id="use667" />
        <use
           transform="matrix(0.06790123456790124,0,0,0.06790123456790124,54.25308641975309,0)"
           xlink:href="#ah"
           id="use669" />
        <use
           transform="matrix(0.06790123456790124,0,0,0.06790123456790124,67.83333333333334,0)"
           xlink:href="#S"
           id="use671" />
        <use
           transform="matrix(0.06790123456790124,0,0,0.06790123456790124,75.9135802469136,0)"
           xlink:href="#ag"
           id="use673" />
        <use
           transform="matrix(0.06790123456790124,0,0,0.06790123456790124,89.49382716049385,0)"
           xlink:href="#T"
           id="use675" />
        <use
           transform="matrix(0.06790123456790124,0,0,0.06790123456790124,94.85802469135805,0)"
           xlink:href="#af"
           id="use677" />
        <use
           transform="matrix(0.06790123456790124,0,0,0.06790123456790124,108.43827160493831,0)"
           xlink:href="#ao"
           id="use679" />
        <use
           transform="matrix(0.06790123456790124,0,0,0.06790123456790124,122.01851851851856,0)"
           xlink:href="#S"
           id="use681" />
        <use
           transform="matrix(0.06790123456790124,0,0,0.06790123456790124,130.09876543209882,0)"
           xlink:href="#T"
           id="use683" />
        <use
           transform="matrix(0.06790123456790124,0,0,0.06790123456790124,135.46296296296302,0)"
           xlink:href="#ao"
           id="use685" />
      </g>
      <path
         d="M107 61C57 61 25 39 23-9c-2-65 71-58 78-115h30c1 64-76 54-76 114 0 30 21 42 52 43 32 0 53-17 56-46l32 2c-6 46-36 72-88 72zm26-251v35H99v-35h34"
         id="aL" />
      <path
         d="M141-36C126-15 110 5 73 4 37 3 15-17 15-53c-1-64 63-63 125-63 3-35-9-54-41-54-24 1-41 7-42 31l-33-3c5-37 33-52 76-52 45 0 72 20 72 64v82c-1 20 7 32 28 27v20c-31 9-61-2-59-35zM48-53c0 20 12 33 32 33 41-3 63-29 60-74-43 2-92-5-92 41zm25-158c8-23 27-35 38-54h36v5l-58 49H73"
         id="aM" />
      <g
         id="A">
        <use
           transform="matrix(0.06790123456790124,0,0,0.06790123456790124,0,0)"
           xlink:href="#aL"
           id="use690" />
        <use
           transform="matrix(0.06790123456790124,0,0,0.06790123456790124,14.870370370370372,0)"
           xlink:href="#ai"
           id="use692" />
        <use
           transform="matrix(0.06790123456790124,0,0,0.06790123456790124,31.16666666666667,0)"
           xlink:href="#X"
           id="use694" />
        <use
           transform="matrix(0.06790123456790124,0,0,0.06790123456790124,43.38888888888889,0)"
           xlink:href="#Y"
           id="use696" />
        <use
           transform="matrix(0.06790123456790124,0,0,0.06790123456790124,50.17901234567902,0)"
           xlink:href="#aM"
           id="use698" />
      </g>
      <path
         d="M103-251c84 0 111 97 45 133-19 10-37 24-39 52H78c0-63 77-55 77-114 0-30-21-42-52-43-32 0-53 17-56 46l-32-2c7-45 34-72 88-72zM77 0v-35h34V0H77"
         id="aN" />
      <g
         id="B">
        <use
           transform="matrix(0.06790123456790124,0,0,0.06790123456790124,0,0)"
           xlink:href="#aJ"
           id="use702" />
        <use
           transform="matrix(0.06790123456790124,0,0,0.06790123456790124,13.580246913580249,0)"
           xlink:href="#aK"
           id="use704" />
        <use
           transform="matrix(0.06790123456790124,0,0,0.06790123456790124,22.611111111111114,0)"
           xlink:href="#aN"
           id="use706" />
      </g>
      <path
         fill="#c92d39"
         d="M190 0L58-211 59 0H30v-248h39L202-35l-2-213h31V0h-41"
         id="aO" />
      <path
         fill="#c92d39"
         d="M100-194c62-1 85 37 85 99 1 63-27 99-86 99S16-35 15-95c0-66 28-99 85-99zM99-20c44 1 53-31 53-75 0-43-8-75-51-75s-53 32-53 75 10 74 51 75"
         id="aP" />
      <g
         id="C">
        <use
           transform="matrix(0.06790123456790124,0,0,0.06790123456790124,0,0)"
           xlink:href="#aO"
           id="use711" />
        <use
           transform="matrix(0.06790123456790124,0,0,0.06790123456790124,17.58641975308642,0)"
           xlink:href="#aP"
           id="use713" />
      </g>
      <path
         fill="#c92d39"
         d="M141-36C126-15 110 5 73 4 37 3 15-17 15-53c-1-64 63-63 125-63 3-35-9-54-41-54-24 1-41 7-42 31l-33-3c5-37 33-52 76-52 45 0 72 20 72 64v82c-1 20 7 32 28 27v20c-31 9-61-2-59-35zM48-53c0 20 12 33 32 33 41-3 63-29 60-74-43 2-92-5-92 41"
         id="aQ" />
      <path
         fill="#c92d39"
         d="M135-143c-3-34-86-38-87 0 15 53 115 12 119 90S17 21 10-45l28-5c4 36 97 45 98 0-10-56-113-15-118-90-4-57 82-63 122-42 12 7 21 19 24 35"
         id="aR" />
      <path
         fill="#c92d39"
         d="M24-231v-30h32v30H24zM24 0v-190h32V0H24"
         id="aS" />
      <path
         fill="#c92d39"
         d="M59-47c-2 24 18 29 38 22v24C64 9 27 4 27-40v-127H5v-23h24l9-43h21v43h35v23H59v120"
         id="aT" />
      <path
         fill="#c92d39"
         d="M100-194c63 0 86 42 84 106H49c0 40 14 67 53 68 26 1 43-12 49-29l28 8c-11 28-37 45-77 45C44 4 14-33 15-96c1-61 26-98 85-98zm52 81c6-60-76-77-97-28-3 7-6 17-6 28h103"
         id="aU" />
      <g
         id="D">
        <use
           transform="matrix(0.06790123456790124,0,0,0.06790123456790124,0,0)"
           xlink:href="#aQ"
           id="use721" />
        <use
           transform="matrix(0.06790123456790124,0,0,0.06790123456790124,13.580246913580249,0)"
           xlink:href="#aR"
           id="use723" />
        <use
           transform="matrix(0.06790123456790124,0,0,0.06790123456790124,25.802469135802472,0)"
           xlink:href="#aS"
           id="use725" />
        <use
           transform="matrix(0.06790123456790124,0,0,0.06790123456790124,31.16666666666667,0)"
           xlink:href="#aR"
           id="use727" />
        <use
           transform="matrix(0.06790123456790124,0,0,0.06790123456790124,43.38888888888889,0)"
           xlink:href="#aT"
           id="use729" />
        <use
           transform="matrix(0.06790123456790124,0,0,0.06790123456790124,50.17901234567902,0)"
           xlink:href="#aU"
           id="use731" />
      </g>
      <path
         fill="#c92d39"
         d="M24 0v-261h32V0H24"
         id="aV" />
      <g
         id="E">
        <use
           transform="matrix(0.06790123456790124,0,0,0.06790123456790124,0,0)"
           xlink:href="#aQ"
           id="use735" />
        <use
           transform="matrix(0.06790123456790124,0,0,0.06790123456790124,13.580246913580249,0)"
           xlink:href="#aV"
           id="use737" />
      </g>
      <path
         fill="#c92d39"
         d="M134-131c28 9 52 24 51 62-1 50-34 73-85 73S17-19 16-69c0-36 21-54 49-61-75-25-45-126 34-121 46 3 78 18 79 63 0 33-17 51-44 57zm-34-11c31 1 46-15 46-44 0-28-17-43-47-42-29 0-46 13-45 42 1 28 16 44 46 44zm1 122c35 0 51-18 51-52 0-30-18-46-53-46-33 0-51 17-51 47 0 34 19 51 53 51"
         id="aW" />
      <path
         fill="#c92d39"
         d="M54-142c48-35 137-8 131 61C196 18 31 33 14-55l32-4c7 23 22 37 52 37 35-1 51-22 54-58 4-55-73-65-99-34H22l8-134h141v27H59"
         id="aX" />
      <path
         fill="#c92d39"
         d="M252-156c43 0 55 33 55 80 0 46-13 78-56 78-42 0-55-33-55-78 0-48 12-80 56-80zM93 0H65l162-248h28zM13-171c-1-47 13-79 56-79s55 33 55 79-13 79-55 79c-43 0-56-33-56-79zM251-17c28 0 30-29 30-59 0-31-1-60-29-60-29 0-31 29-31 60 0 29 2 59 30 59zM69-112c27 0 28-30 29-59 0-31-1-60-29-60-29 0-30 30-30 60s2 59 30 59"
         id="aY" />
      <g
         id="F">
        <use
           transform="matrix(0.06790123456790124,0,0,0.06790123456790124,0,0)"
           xlink:href="#aW"
           id="use743" />
        <use
           transform="matrix(0.06790123456790124,0,0,0.06790123456790124,13.580246913580249,0)"
           xlink:href="#aX"
           id="use745" />
        <use
           transform="matrix(0.06790123456790124,0,0,0.06790123456790124,27.160493827160497,0)"
           xlink:href="#aY"
           id="use747" />
      </g>
      <path
         fill="#c92d39"
         d="M85-194c31 0 48 13 60 33l-1-100h32l1 261h-30c-2-10 0-23-3-31C134-8 116 4 85 4 32 4 16-35 15-94c0-66 23-100 70-100zm9 24c-40 0-46 34-46 75 0 40 6 74 45 74 42 0 51-32 51-76 0-42-9-74-50-73"
         id="aZ" />
      <g
         id="G">
        <use
           transform="matrix(0.06790123456790124,0,0,0.06790123456790124,0,0)"
           xlink:href="#aZ"
           id="use751" />
        <use
           transform="matrix(0.06790123456790124,0,0,0.06790123456790124,13.580246913580249,0)"
           xlink:href="#aU"
           id="use753" />
      </g>
      <g
         id="H">
        <use
           transform="matrix(0.06790123456790124,0,0,0.06790123456790124,0,0)"
           xlink:href="#aV"
           id="use756" />
        <use
           transform="matrix(0.06790123456790124,0,0,0.06790123456790124,5.364197530864199,0)"
           xlink:href="#aQ"
           id="use758" />
        <use
           transform="matrix(0.06790123456790124,0,0,0.06790123456790124,18.944444444444446,0)"
           xlink:href="#aR"
           id="use760" />
      </g>
      <path
         fill="#c92d39"
         d="M96-169c-40 0-48 33-48 73s9 75 48 75c24 0 41-14 43-38l32 2c-6 37-31 61-74 61-59 0-76-41-82-99-10-93 101-131 147-64 4 7 5 14 7 22l-32 3c-4-21-16-35-41-35"
         id="ba" />
      <path
         fill="#c92d39"
         d="M33 0v-38h34V0H33"
         id="bb" />
      <g
         id="I">
        <use
           transform="matrix(0.06790123456790124,0,0,0.06790123456790124,0,0)"
           xlink:href="#ba"
           id="use765" />
        <use
           transform="matrix(0.06790123456790124,0,0,0.06790123456790124,12.222222222222223,0)"
           xlink:href="#aV"
           id="use767" />
        <use
           transform="matrix(0.06790123456790124,0,0,0.06790123456790124,17.58641975308642,0)"
           xlink:href="#aQ"
           id="use769" />
        <use
           transform="matrix(0.06790123456790124,0,0,0.06790123456790124,31.16666666666667,0)"
           xlink:href="#aR"
           id="use771" />
        <use
           transform="matrix(0.06790123456790124,0,0,0.06790123456790124,43.38888888888889,0)"
           xlink:href="#aU"
           id="use773" />
        <use
           transform="matrix(0.06790123456790124,0,0,0.06790123456790124,56.96913580246914,0)"
           xlink:href="#aR"
           id="use775" />
        <use
           transform="matrix(0.06790123456790124,0,0,0.06790123456790124,69.19135802469137,0)"
           xlink:href="#bb"
           id="use777" />
      </g>
      <path
         fill="#c92d39"
         d="M117-194c89-4 53 116 60 194h-32v-121c0-31-8-49-39-48C34-167 62-67 57 0H25l-1-190h30c1 10-1 24 2 32 11-22 29-35 61-36"
         id="bc" />
      <path
         fill="#c92d39"
         d="M114-163C36-179 61-72 57 0H25l-1-190h30c1 12-1 29 2 39 6-27 23-49 58-41v29"
         id="bd" />
      <path
         fill="#c92d39"
         d="M177-190C167-65 218 103 67 71c-23-6-38-20-44-43l32-5c15 47 100 32 89-28v-30C133-14 115 1 83 1 29 1 15-40 15-95c0-56 16-97 71-98 29-1 48 16 59 35 1-10 0-23 2-32h30zM94-22c36 0 50-32 50-73 0-42-14-75-50-75-39 0-46 34-46 75s6 73 46 73"
         id="be" />
      <g
         id="J">
        <use
           transform="matrix(0.06790123456790124,0,0,0.06790123456790124,0,0)"
           xlink:href="#aU"
           id="use783" />
        <use
           transform="matrix(0.06790123456790124,0,0,0.06790123456790124,13.580246913580249,0)"
           xlink:href="#bc"
           id="use785" />
        <use
           transform="matrix(0.06790123456790124,0,0,0.06790123456790124,27.160493827160497,0)"
           xlink:href="#aT"
           id="use787" />
        <use
           transform="matrix(0.06790123456790124,0,0,0.06790123456790124,33.95061728395062,0)"
           xlink:href="#bd"
           id="use789" />
        <use
           transform="matrix(0.06790123456790124,0,0,0.06790123456790124,42.03086419753087,0)"
           xlink:href="#aU"
           id="use791" />
        <use
           transform="matrix(0.06790123456790124,0,0,0.06790123456790124,55.611111111111114,0)"
           xlink:href="#be"
           id="use793" />
        <use
           transform="matrix(0.06790123456790124,0,0,0.06790123456790124,69.19135802469137,0)"
           xlink:href="#aQ"
           id="use795" />
      </g>
      <g
         id="K">
        <use
           transform="matrix(0.06790123456790124,0,0,0.06790123456790124,0,0)"
           xlink:href="#aU"
           id="use798" />
        <use
           transform="matrix(0.06790123456790124,0,0,0.06790123456790124,13.580246913580249,0)"
           xlink:href="#aV"
           id="use800" />
      </g>
      <path
         fill="#c92d39"
         d="M108 0H70L1-190h34L89-25l56-165h34"
         id="bf" />
      <g
         id="L">
        <use
           transform="matrix(0.06790123456790124,0,0,0.06790123456790124,0,0)"
           xlink:href="#aQ"
           id="use804" />
        <use
           transform="matrix(0.06790123456790124,0,0,0.06790123456790124,13.580246913580249,0)"
           xlink:href="#ba"
           id="use806" />
        <use
           transform="matrix(0.06790123456790124,0,0,0.06790123456790124,25.802469135802472,0)"
           xlink:href="#aT"
           id="use808" />
        <use
           transform="matrix(0.06790123456790124,0,0,0.06790123456790124,32.592592592592595,0)"
           xlink:href="#aS"
           id="use810" />
        <use
           transform="matrix(0.06790123456790124,0,0,0.06790123456790124,37.95679012345679,0)"
           xlink:href="#bf"
           id="use812" />
        <use
           transform="matrix(0.06790123456790124,0,0,0.06790123456790124,50.17901234567901,0)"
           xlink:href="#aS"
           id="use814" />
        <use
           transform="matrix(0.06790123456790124,0,0,0.06790123456790124,55.54320987654321,0)"
           xlink:href="#aZ"
           id="use816" />
        <use
           transform="matrix(0.06790123456790124,0,0,0.06790123456790124,69.12345679012346,0)"
           xlink:href="#aQ"
           id="use818" />
        <use
           transform="matrix(0.06790123456790124,0,0,0.06790123456790124,82.70370370370371,0)"
           xlink:href="#aZ"
           id="use820" />
        <use
           transform="matrix(0.06790123456790124,0,0,0.06790123456790124,96.28395061728396,0)"
           xlink:href="#aU"
           id="use822" />
        <use
           transform="matrix(0.06790123456790124,0,0,0.06790123456790124,109.86419753086422,0)"
           xlink:href="#aR"
           id="use824" />
        <use
           transform="matrix(0.06790123456790124,0,0,0.06790123456790124,122.08641975308646,0)"
           xlink:href="#bb"
           id="use826" />
      </g>
      <path
         d="M101-251c68 0 85 55 85 127S166 4 100 4C33 4 14-52 14-124c0-73 17-127 87-127zm-1 229c47 0 54-49 54-102s-4-102-53-102c-51 0-55 48-55 102 0 53 5 102 54 102"
         id="bg" />
      <path
         d="M252-156c43 0 55 33 55 80 0 46-13 78-56 78-42 0-55-33-55-78 0-48 12-80 56-80zM93 0H65l162-248h28zM13-171c-1-47 13-79 56-79s55 33 55 79-13 79-55 79c-43 0-56-33-56-79zM251-17c28 0 30-29 30-59 0-31-1-60-29-60-29 0-31 29-31 60 0 29 2 59 30 59zM69-112c27 0 28-30 29-59 0-31-1-60-29-60-29 0-30 30-30 60s2 59 30 59"
         id="bh" />
      <g
         id="M">
        <use
           transform="matrix(0.06790123456790124,0,0,0.06790123456790124,0,0)"
           xlink:href="#aJ"
           id="use831" />
        <use
           transform="matrix(0.06790123456790124,0,0,0.06790123456790124,13.580246913580249,0)"
           xlink:href="#bg"
           id="use833" />
        <use
           transform="matrix(0.06790123456790124,0,0,0.06790123456790124,27.160493827160497,0)"
           xlink:href="#bh"
           id="use835" />
      </g>
      <g
         id="N">
        <use
           transform="matrix(0.06790123456790124,0,0,0.06790123456790124,0,0)"
           xlink:href="#av"
           id="use838" />
        <use
           transform="matrix(0.06790123456790124,0,0,0.06790123456790124,16.296296296296298,0)"
           xlink:href="#al"
           id="use840" />
        <use
           transform="matrix(0.06790123456790124,0,0,0.06790123456790124,28.51851851851852,0)"
           xlink:href="#Y"
           id="use842" />
        <use
           transform="matrix(0.06790123456790124,0,0,0.06790123456790124,35.308641975308646,0)"
           xlink:href="#T"
           id="use844" />
        <use
           transform="matrix(0.06790123456790124,0,0,0.06790123456790124,40.67283950617284,0)"
           xlink:href="#ar"
           id="use846" />
        <use
           transform="matrix(0.06790123456790124,0,0,0.06790123456790124,52.89506172839506,0)"
           xlink:href="#T"
           id="use848" />
        <use
           transform="matrix(0.06790123456790124,0,0,0.06790123456790124,58.25925925925926,0)"
           xlink:href="#ag"
           id="use850" />
        <use
           transform="matrix(0.06790123456790124,0,0,0.06790123456790124,71.8395061728395,0)"
           xlink:href="#ao"
           id="use852" />
        <use
           transform="matrix(0.06790123456790124,0,0,0.06790123456790124,85.41975308641976,0)"
           xlink:href="#ag"
           id="use854" />
        <use
           transform="matrix(0.06790123456790124,0,0,0.06790123456790124,99.00000000000001,0)"
           xlink:href="#V"
           id="use856" />
        <use
           transform="matrix(0.06790123456790124,0,0,0.06790123456790124,112.58024691358027,0)"
           xlink:href="#X"
           id="use858" />
      </g>
      <path
         d="M179-190L93 31C79 59 56 82 12 73V49c39 6 53-20 64-50L1-190h34L92-34l54-156h33"
         id="bi" />
      <use
         transform="matrix(0.06790123456790124,0,0,0.06790123456790124,0,0)"
         xlink:href="#bi"
         id="P" />
      <g
         id="Q">
        <use
           transform="matrix(0.06790123456790124,0,0,0.06790123456790124,0,0)"
           xlink:href="#R"
           id="use863" />
        <use
           transform="matrix(0.06790123456790124,0,0,0.06790123456790124,16.296296296296298,0)"
           xlink:href="#S"
           id="use865" />
        <use
           transform="matrix(0.06790123456790124,0,0,0.06790123456790124,24.376543209876544,0)"
           xlink:href="#aM"
           id="use867" />
        <use
           transform="matrix(0.06790123456790124,0,0,0.06790123456790124,37.95679012345679,0)"
           xlink:href="#al"
           id="use869" />
        <use
           transform="matrix(0.06790123456790124,0,0,0.06790123456790124,50.17901234567901,0)"
           xlink:href="#Y"
           id="use871" />
        <use
           transform="matrix(0.06790123456790124,0,0,0.06790123456790124,56.96913580246914,0)"
           xlink:href="#T"
           id="use873" />
        <use
           transform="matrix(0.06790123456790124,0,0,0.06790123456790124,62.333333333333336,0)"
           xlink:href="#al"
           id="use875" />
        <use
           transform="matrix(0.06790123456790124,0,0,0.06790123456790124,74.55555555555556,0)"
           xlink:href="#ao"
           id="use877" />
        <use
           transform="matrix(0.06790123456790124,0,0,0.06790123456790124,88.13580246913581,0)"
           xlink:href="#X"
           id="use879" />
      </g>
    </defs>
    <use
       xlink:href="#b"
       transform="translate(426.25255,274.09959)"
       id="use14-6"
       x="0"
       y="0"
       width="100%"
       height="100%" />
    <text
       xml:space="preserve"
       style="font-style:normal;font-variant:normal;font-weight:normal;font-stretch:normal;font-size:26.66666603px;line-height:1.25;font-family:Verdana;-inkscape-font-specification:Verdana;letter-spacing:0px;word-spacing:0px;fill:#000000;fill-opacity:1;stroke:none"
       x="104.5066"
       y="306.94324"
       id="text5011"><tspan
         sodipodi:role="line"
         id="tspan5009"
         x="104.5066"
         y="306.94324">20%</tspan></text>
    <text
       xml:space="preserve"
       style="font-style:normal;font-variant:normal;font-weight:normal;font-stretch:normal;font-size:26.66666603px;line-height:1.25;font-family:Verdana;-inkscape-font-specification:Verdana;letter-spacing:0px;word-spacing:0px;fill:#000000;fill-opacity:1;stroke:none"
       x="450.89279"
       y="303.23898"
       id="text5011-7"><tspan
         sodipodi:role="line"
         id="tspan5009-7"
         x="450.89279"
         y="303.23898">45%</tspan></text>
    <text
       xml:space="preserve"
       style="font-style:normal;font-variant:normal;font-weight:normal;font-stretch:normal;font-size:26.66666603px;line-height:1.25;font-family:Verdana;-inkscape-font-specification:Verdana;letter-spacing:0px;word-spacing:0px;fill:#000000;fill-opacity:1;stroke:none"
       x="275.37534"
       y="304.57883"
       id="text5011-9"><tspan
         sodipodi:role="line"
         id="tspan5009-4"
         x="275.37534"
         y="304.57883">35%</tspan></text>
    <text
       xml:space="preserve"
       style="font-style:normal;font-variant:normal;font-weight:normal;font-stretch:normal;font-size:26.66666603px;line-height:1.25;font-family:Verdana;-inkscape-font-specification:Verdana;letter-spacing:0px;word-spacing:0px;fill:#000000;fill-opacity:1;stroke:none"
       x="92.448128"
       y="243.97131"
       id="text5041"><tspan
         sodipodi:role="line"
         id="tspan5039"
         x="92.448128"
         y="243.97131">Primer</tspan></text>
    <text
       xml:space="preserve"
       style="font-style:normal;font-variant:normal;font-weight:normal;font-stretch:normal;font-size:26.66666603px;line-height:1.25;font-family:Verdana;-inkscape-font-specification:Verdana;letter-spacing:0px;word-spacing:0px;fill:#000000;fill-opacity:1;stroke:none"
       x="247.84872"
       y="241.29169"
       id="text5045"><tspan
         sodipodi:role="line"
         id="tspan5043"
         x="247.84872"
         y="241.29169">Segundo</tspan></text>
    <text
       xml:space="preserve"
       style="font-style:normal;font-variant:normal;font-weight:normal;font-stretch:normal;font-size:26.66666603px;line-height:1.25;font-family:Verdana;-inkscape-font-specification:Verdana;letter-spacing:0px;word-spacing:0px;fill:#000000;fill-opacity:1;stroke:none"
       x="438.78397"
       y="239.95187"
       id="text5049"><tspan
         sodipodi:role="line"
         id="tspan5047"
         x="438.78397"
         y="239.95187">Tercer</tspan></text>
  </g>
</svg>
