<?xml version="1.0" encoding="UTF-8" standalone="no"?>
<svg
   xmlns:dc="http://purl.org/dc/elements/1.1/"
   xmlns:cc="http://creativecommons.org/ns#"
   xmlns:rdf="http://www.w3.org/1999/02/22-rdf-syntax-ns#"
   xmlns:svg="http://www.w3.org/2000/svg"
   xmlns="http://www.w3.org/2000/svg"
   xmlns:sodipodi="http://sodipodi.sourceforge.net/DTD/sodipodi-0.dtd"
   xmlns:inkscape="http://www.inkscape.org/namespaces/inkscape"
   id="Layer_1"
   data-name="Layer 1"
   width="20"
   height="20"
   viewBox="0 0 20 20"
   version="1.1"
   sodipodi:docname="icon.svg"
   inkscape:version="0.92.4 (5da689c313, 2019-01-14)">
  <metadata
     id="metadata25">
    <rdf:RDF>
      <cc:Work
         rdf:about="">
        <dc:format>image/svg+xml</dc:format>
        <dc:type
           rdf:resource="http://purl.org/dc/dcmitype/StillImage" />
        <dc:title>48px_sourcefile_20170718_multi</dc:title>
      </cc:Work>
    </rdf:RDF>
  </metadata>
  <sodipodi:namedview
     pagecolor="#ffffff"
     bordercolor="#666666"
     borderopacity="1"
     objecttolerance="10"
     gridtolerance="10"
     guidetolerance="10"
     inkscape:pageopacity="0"
     inkscape:pageshadow="2"
     inkscape:window-width="2560"
     inkscape:window-height="1017"
     id="namedview23"
     showgrid="false"
     inkscape:zoom="4.9166667"
     inkscape:cx="24"
     inkscape:cy="24"
     inkscape:window-x="-8"
     inkscape:window-y="-8"
     inkscape:window-maximized="1"
     inkscape:current-layer="Layer_1" />
  <defs
     id="defs4">
    <style
       id="style2">.cls-1{fill:#9c0;}.cls-2{fill:#fff;}</style>
  </defs>
  <title
     id="title6">48px_sourcefile_20170718_multi</title>
  <circle
     class="cls-1"
     cx="9.9544067"
     cy="10.135593"
     r="9.8644066"
     id="circle8"
     style="fill:#99cc00;stroke-width:0.41101694" />
  <path
     class="cls-2"
     d="M 12.128687,6.2062712 A 0.62474576,0.62474576 0 0 0 11.23267,5.6144068 c -0.271272,0.045212 -0.283602,0.2836017 -0.369916,0.4767796 -0.08631,0.193178 0.06165,0.1602967 0.131526,0.2301695 0.06987,0.069873 0.03699,0.1561865 0.03699,0.2383899 a 13.436144,13.436144 0 0 0 0.03699,1.3645762 0.46855932,0.46855932 0 0 0 0.300042,0.4397882 c 0.464449,0.217839 0.785043,0 0.801483,-0.4932204 0.01644,-0.4932203 -0.01233,-1.1097457 -0.0411,-1.6646186 z"
     id="path10"
     inkscape:connector-curvature="0"
     style="fill:#ffffff;stroke-width:0.41101694" />
  <path
     class="cls-2"
     d="M 14.541356,13.555254 A 0.93711864,0.93711864 0 0 1 14.39339,13.037373 C 14.36462,12.527712 14.33174,12.013941 14.286526,11.50428 a 3.2305932,3.2305932 0 0 0 -0.258941,-1.015212 c -0.06987,0.230169 -0.131526,0.411017 -0.184958,0.587754 -0.03699,0.06165 -0.06987,0.131525 -0.106864,0.193178 -0.386356,0.678178 -0.854915,1.270042 -1.68928,1.418008 a 2.959322,2.959322 0 0 1 -1.344025,-0.08631 0.48911017,0.48911017 0 0 0 -0.316483,-0.05343 c 0.09042,0.184957 0.176737,0.361695 0.263051,0.538432 v 0 c -0.07809,0.131525 -0.160297,0.123305 -0.23017,0 -0.06987,-0.123305 -0.147966,-0.271271 -0.217839,-0.411017 A 0.55898305,0.55898305 0 0 0 9.7900001,12.264661 C 9.3337713,12.087924 8.889873,11.902966 8.4500848,11.701568 A 3.4936441,3.4936441 0 0 1 7.0074153,10.653475 c -0.1397457,-0.184958 -0.2301694,-0.168517 -0.3329237,0 -0.1233051,0.06165 -0.2219491,0.201398 -0.4110169,0.09042 0,-0.09864 0.053432,-0.147966 0.1315254,-0.184957 A 0.44389831,0.44389831 0 0 0 6.6498306,10.189025 2.1825,2.1825 0 0 0 6.1031781,8.409322 0.36169492,0.36169492 0 0 0 5.6633899,8.2161441 C 5.470212,8.2695763 5.5318645,8.4545339 5.5236442,8.5696186 a 5.8569915,5.8569915 0 0 1 -0.2301695,1.8249154 0.7809322,0.7809322 0 0 0 0.2301695,0.678178 c 0.3863559,0.501441 0.7233898,1.023432 1.0850847,1.541313 a 2.5359746,2.5359746 0 0 0 0.6083051,0.608306 19.872669,19.872669 0 0 1 3.230593,2.6675 0.63707627,0.63707627 0 0 0 0.785043,0.184957 v 0 a 5.2774576,5.2774576 0 0 0 2.235932,-0.941229 3.8758898,3.8758898 0 0 0 0.98644,-0.822034 c 0.423348,-0.406906 0.394577,-0.25483 0.08631,-0.756271 z"
     id="path12"
     inkscape:connector-curvature="0"
     style="fill:#ffffff;stroke-width:0.41101694" />
  <path
     class="cls-2"
     d="M 8.4911865,5.3020339 A 2.3633475,2.3633475 0 0 1 8.2199153,5.0883051 C 7.7801272,4.6772881 7.5047459,4.6772881 7.1471611,5.1746186 a 1.1302966,1.1302966 0 0 0 -0.316483,0.4685594 0.59186441,0.59186441 0 0 0 0.078093,0.6083051 c 0.086314,0.086314 0.2466101,-0.1068645 0.3781356,-0.1602967 0,0 0,0 0,-0.032881 C 7.2005933,5.9802119 7.1101696,5.8980085 7.023856,5.8116949 6.9375425,5.7253814 6.9375425,5.6966102 6.999195,5.6349576 7.0608475,5.5733051 7.1225001,5.6102966 7.167712,5.667839 a 0.50966102,0.50966102 0 0 0 0.4562288,0.2013983 l -0.069873,-0.032881 a 0.27538136,0.27538136 0 0 1 0.069873,0.032881 1.0439831,1.0439831 0 0 0 0.8220339,-0.069873 0.26305085,0.26305085 0 0 0 0.045212,-0.4973304 z"
     id="path14"
     inkscape:connector-curvature="0"
     style="fill:#ffffff;stroke-width:0.41101694" />
  <path
     class="cls-2"
     d="M 13.538475,7.1680508 A 0.45622881,0.45622881 0 0 0 12.967161,6.8474576 0.8220339,0.8220339 0 0 0 12.580805,7.1392797 c -0.02877,0.045212 -0.09864,0.1068644 -0.04521,0.1479661 0.209619,0.1602966 0.06165,0.3452542 0.05343,0.5261017 a 1.8865678,1.8865678 0 0 0 0.02466,0.97 0.41101695,0.41101695 0 0 0 0.591864,0 2.0180932,2.0180932 0 0 0 0.332924,-1.6152967 z"
     id="path16"
     inkscape:connector-curvature="0"
     style="fill:#ffffff;stroke-width:0.41101694" />
  <path
     class="cls-2"
     d="M 10.570932,6.7899153 A 10.275424,10.275424 0 0 0 10.201017,5.2814831 C 10.0325,4.7882627 9.617373,4.6896186 9.1981357,5.0266525 A 0.89190678,0.89190678 0 0 0 8.8446611,5.7130508 L 8.6925848,5.935 C 8.9761865,6.0336441 8.8775425,5.8199153 8.9022035,5.7130508 9.0501696,5.6513983 9.0871611,5.7664831 9.132373,5.8610169 a 5.7090254,5.7090254 0 0 1 0.3205932,0.9864407 0.55487288,0.55487288 0 0 0 0.9001268,0.411017 v 0 a 0.41101695,0.41101695 0 0 0 0.217839,-0.4685593 z"
     id="path18"
     inkscape:connector-curvature="0"
     style="fill:#ffffff;stroke-width:0.41101694" />
  <path
     class="cls-2"
     d="m 13.817966,9.4286441 v 0 A 0.62885593,0.62885593 0 0 0 13.772754,9.1655932 0.76860169,0.76860169 0 0 0 13.579576,8.7093644 2.0550847,2.0550847 0 0 1 13.263093,9.2108051 v 0 a 0.8220339,0.8220339 0 0 1 -0.822034,-0.032881 l -0.09042,-0.1602966 -0.04521,-0.045212 v 0 a 1.2330508,1.2330508 0 0 0 -0.02877,-0.411017 0.89601695,0.89601695 0 0 1 -1.270043,0.024661 v 0 c -0.04521,-0.078093 -0.09042,-0.1479661 -0.131525,-0.2219491 -0.0411,-0.073983 -0.03699,-0.2013983 -0.05343,-0.3000424 -0.01644,-0.098644 0,-0.090424 0,-0.2301695 0,-0.1397458 -0.04521,-0.3000424 -0.06987,-0.4562288 A 0.99466102,0.99466102 0 0 1 9.3872035,7.5872881 C 9.3337713,7.4557627 9.2885594,7.3160169 9.2351272,7.1762712 v 0 A 0.98644068,0.98644068 0 0 0 9.1364831,6.7652542 C 9.0583899,6.3172458 9.0296187,6.3049153 8.5898306,6.2638136 c -0.2096186,0 -0.411017,0.036992 -0.6165254,0.036992 A 1.5002119,1.5002119 0 0 0 6.8964408,6.711822 1.2905932,1.2905932 0 0 0 6.3950001,7.2584746 0.49733051,0.49733051 0 0 0 6.2552543,7.5585169 c -0.078093,0.1767373 -0.1685169,0.3534746 0.053432,0.4932204 v 0 L 6.563517,8.3969915 6.7032628,8.651822 v 0 c 0.032881,0.086314 0.069873,0.168517 0.098644,0.2466102 v 0 c 0,0.069873 0.036992,0.1315254 0.053432,0.2013983 v 0 l 0.045212,0.2013983 v 0 0.01233 0 l 0.045212,0.4644492 c 0,0.1233051 0,0.24661 0.098644,0.341144 v 0 a 2.1126271,2.1126271 0 0 0 0.5014406,0.546652 v 0 a 1.1549576,1.1549576 0 0 0 0.4932204,0.345254 v 0 a 2.9223305,2.9223305 0 0 0 0.6946186,0.345255 v 0 a 1.7550424,1.7550424 0 0 0 0.5466526,0.24661 v 0 a 2.1413983,2.1413983 0 0 0 0.6494068,0.25483 2.7702542,2.7702542 0 0 0 0.8466952,0.291822 2.0961864,2.0961864 0 0 0 1.586525,0 v 0 a 0.96588983,0.96588983 0 0 0 0.493221,-0.300041 v 0 a 0.77271186,0.77271186 0 0 0 0.300042,-0.345255 1.0933051,1.0933051 0 0 0 0.345254,-0.501441 1.5947458,1.5947458 0 0 0 0.24661,-0.546652 1.7797034,1.7797034 0 0 0 0.06987,-1.0275424 z M 7.4513136,8.2325847 A 0.41101695,0.41101695 0 0 1 7.3526696,7.9777542 0.41101695,0.41101695 0 0 1 7.8458899,7.8174576 l 0.411017,0.1150848 c 0.1150847,0.098644 0.2301695,0.2013983 0.3452542,0.291822 0.053432,0.1233051 0.078093,0.2466102 -0.045212,0.3452542 A 0.8220339,0.8220339 0 0 1 7.9075425,8.5244068 C 7.6979238,8.4915254 7.5951696,8.3312288 7.4513136,8.2325847 Z M 9.0953814,10.135593 A 0.52610169,0.52610169 0 0 1 8.3719916,10.382203 0.37813559,0.37813559 0 0 1 8.187034,10.275339 3.0127542,3.0127542 0 0 1 7.9856357,9.9341949 0.25483051,0.25483051 0 0 1 8.1253814,9.6423729 0.52199153,0.52199153 0 0 1 8.7747882,9.5889407 c 0.086314,0.098644 0.168517,0.2013983 0.2466102,0.3000424 a 0.22194915,0.22194915 0 0 1 0.073983,0.2466099 z M 9.3666526,8.1997034 c 0.193178,-0.2013983 0.3164831,-0.2013983 0.5466526,0 L 9.958517,8.4011017 C 9.6790255,8.6025 9.5063984,8.5490678 9.3830933,8.1873729 Z m 1.2330504,2.2359326 a 0.34936441,0.34936441 0 0 1 -0.345254,-0.04521 0.32881356,0.32881356 0 0 1 -0.147966,-0.345255 l 0.09864,-0.1479656 c 0.115085,0 0.23017,0.032881 0.345254,0.053432 a 0.8220339,0.8220339 0 0 1 0.156187,0.2466106 0.30004237,0.30004237 0 0 1 -0.07398,0.221949 z m 1.644068,-0.106865 a 0.93300847,0.93300847 0 0 1 -0.23839,-0.06987 c -0.04521,-0.02877 -0.07809,-0.08631 -0.131525,-0.106864 a 0.32881356,0.32881356 0 0 1 -0.147966,-0.4562289 0.63707627,0.63707627 0 0 1 0.05343,-0.098644 0.85902542,0.85902542 0 0 1 0.748051,0.098644 c 0.176737,0 0.300042,0.069873 0.324703,0.2630508 -0.05754,0.3247031 -0.221949,0.4233471 -0.571313,0.3534751 z"
     id="path20"
     inkscape:connector-curvature="0"
     style="fill:#ffffff;stroke-width:0.41101694" />
</svg>
