<?xml version="1.0" encoding="UTF-8" standalone="no"?>
<!DOCTYPE svg PUBLIC "-//W3C//DTD SVG 1.1//EN"
 "http://www.w3.org/Graphics/SVG/1.1/DTD/svg11.dtd">
<!-- Generated by graphviz version 2.38.0 (20140413.2041)
 -->
<!-- Title: G Pages: 1 -->
<svg width="566pt" height="372pt"
 viewBox="0.00 0.00 565.50 372.00" xmlns="http://www.w3.org/2000/svg" xmlns:xlink="http://www.w3.org/1999/xlink">
<g id="graph0" class="graph" transform="scale(1 1) rotate(0) translate(4 368)">
<title>G</title>
<polygon fill="white" stroke="none" points="-4,4 -4,-368 561.5,-368 561.5,4 -4,4"/>
<!-- Sensor -->
<g id="node1" class="node"><title>Sensor</title>
<polygon fill="none" stroke="black" points="431,-292.5 431,-329.5 550,-329.5 550,-292.5 431,-292.5"/>
<text text-anchor="start" x="469" y="-308.3" font-family="Times New Roman,serif" font-weight="bold" font-size="14.00">Sensor</text>
<polygon fill="none" stroke="black" points="431,-255.5 431,-292.5 550,-292.5 550,-255.5 431,-255.5"/>
<text text-anchor="start" x="442" y="-270.3" font-family="Times New Roman,serif" font-size="14.00">&#45; valorActual : int</text>
<polygon fill="none" stroke="black" points="431,-218.5 431,-255.5 550,-255.5 550,-218.5 431,-218.5"/>
<text text-anchor="start" x="442" y="-233.3" font-family="Times New Roman,serif" font-size="14.00">...</text>
</g>
<!-- Alarma -->
<g id="node2" class="node"><title>Alarma</title>
<polygon fill="none" stroke="black" points="188,-322.5 188,-359.5 361,-359.5 361,-322.5 188,-322.5"/>
<text text-anchor="start" x="251.5" y="-338.3" font-family="Times New Roman,serif" font-weight="bold" font-size="14.00">Alarma</text>
<polygon fill="none" stroke="black" points="188,-270.5 188,-322.5 361,-322.5 361,-270.5 188,-270.5"/>
<text text-anchor="start" x="199" y="-300.3" font-family="Times New Roman,serif" font-size="14.00">&#45; umbral : int</text>
<text text-anchor="start" x="199" y="-285.3" font-family="Times New Roman,serif" font-size="14.00">&#45; activada: bool</text>
<polygon fill="none" stroke="black" points="188,-188.5 188,-270.5 361,-270.5 361,-188.5 188,-188.5"/>
<text text-anchor="start" x="199" y="-248.3" font-family="Times New Roman,serif" font-size="14.00">...</text>
<text text-anchor="start" x="199" y="-233.3" font-family="Times New Roman,serif" font-size="14.00">+ Comprobar()</text>
<text text-anchor="start" x="199" y="-218.3" font-family="Times New Roman,serif" font-size="14.00">&lt;&lt;virtual&gt;&gt; + Activar()</text>
<text text-anchor="start" x="199" y="-203.3" font-family="Times New Roman,serif" font-size="14.00">&lt;&lt;virtual&gt;&gt; + Desactivar()</text>
</g>
<!-- Alarma&#45;&gt;Sensor -->
<g id="edge2" class="edge"><title>Alarma&#45;&gt;Sensor</title>
<path fill="none" stroke="black" d="M381.03,-274.5C391.472,-274.5 401.914,-274.5 412.355,-274.5"/>
<polygon fill="black" stroke="black" points="380.922,-274.5 374.922,-278.5 368.922,-274.5 374.922,-270.5 380.922,-274.5"/>
<polygon fill="black" stroke="black" points="422.367,-274.5 412.367,-279 417.367,-274.5 412.367,-274.5 412.367,-274.5 412.367,-274.5 417.367,-274.5 412.366,-270 422.367,-274.5 422.367,-274.5"/>
<text text-anchor="middle" x="406.506" y="-263.404" font-family="Times New Roman,serif" font-size="14.00">1</text>
</g>
<!-- Timbre -->
<g id="node3" class="node"><title>Timbre</title>
<polygon fill="none" stroke="black" points="8,-315.5 8,-352.5 118,-352.5 118,-315.5 8,-315.5"/>
<text text-anchor="start" x="40" y="-331.3" font-family="Times New Roman,serif" font-weight="bold" font-size="14.00">Timbre</text>
<polygon fill="none" stroke="black" points="8,-263.5 8,-315.5 118,-315.5 118,-263.5 8,-263.5"/>
<text text-anchor="start" x="19" y="-293.3" font-family="Times New Roman,serif" font-size="14.00">&#45; duracion : int</text>
<text text-anchor="start" x="19" y="-278.3" font-family="Times New Roman,serif" font-size="14.00">&#45; activado: bool</text>
<polygon fill="none" stroke="black" points="8,-196.5 8,-263.5 118,-263.5 118,-196.5 8,-196.5"/>
<text text-anchor="start" x="19" y="-241.3" font-family="Times New Roman,serif" font-size="14.00">...</text>
<text text-anchor="start" x="19" y="-226.3" font-family="Times New Roman,serif" font-size="14.00">+ Activar()</text>
<text text-anchor="start" x="19" y="-211.3" font-family="Times New Roman,serif" font-size="14.00">+ Desactivar()</text>
</g>
<!-- Timbre&#45;&gt;Alarma -->
<g id="edge1" class="edge"><title>Timbre&#45;&gt;Alarma</title>
<path fill="none" stroke="black" d="M136.437,-274.5C146.688,-274.5 156.938,-274.5 167.188,-274.5"/>
<polygon fill="black" stroke="black" points="126.053,-274.5 136.053,-270 131.053,-274.5 136.053,-274.5 136.053,-274.5 136.053,-274.5 131.053,-274.5 136.053,-279 126.053,-274.5 126.053,-274.5"/>
<polygon fill="black" stroke="black" points="167.221,-274.5 173.221,-270.5 179.221,-274.5 173.221,-278.5 167.221,-274.5"/>
<text text-anchor="middle" x="141.913" y="-278.196" font-family="Times New Roman,serif" font-size="14.00">1</text>
</g>
<!-- AlarmaLuminosa -->
<g id="node4" class="node"><title>AlarmaLuminosa</title>
<polygon fill="none" stroke="black" points="210,-100.5 210,-137.5 338,-137.5 338,-100.5 210,-100.5"/>
<text text-anchor="start" x="221" y="-116.3" font-family="Times New Roman,serif" font-weight="bold" font-size="14.00">AlarmaLuminosa</text>
<polygon fill="none" stroke="black" points="210,-78.5 210,-100.5 338,-100.5 338,-78.5 210,-78.5"/>
<polygon fill="none" stroke="black" points="210,-11.5 210,-78.5 338,-78.5 338,-11.5 210,-11.5"/>
<text text-anchor="start" x="221" y="-56.3" font-family="Times New Roman,serif" font-size="14.00">...</text>
<text text-anchor="start" x="221" y="-41.3" font-family="Times New Roman,serif" font-size="14.00">+ Activar()</text>
<text text-anchor="start" x="221" y="-26.3" font-family="Times New Roman,serif" font-size="14.00">+ Desactivar()</text>
</g>
<!-- AlarmaLuminosa&#45;&gt;Alarma -->
<g id="edge4" class="edge"><title>AlarmaLuminosa&#45;&gt;Alarma</title>
<path fill="none" stroke="black" d="M274,-141.706C274,-152.293 274,-163.444 274,-174.594"/>
<polygon fill="none" stroke="black" points="270.5,-174.816 274,-184.817 277.5,-174.817 270.5,-174.816"/>
</g>
<!-- Bombilla -->
<g id="node5" class="node"><title>Bombilla</title>
<polygon fill="none" stroke="black" points="408,-107.5 408,-144.5 527,-144.5 527,-107.5 408,-107.5"/>
<text text-anchor="start" x="440" y="-123.3" font-family="Times New Roman,serif" font-weight="bold" font-size="14.00">Bombilla</text>
<polygon fill="none" stroke="black" points="408,-70.5 408,-107.5 527,-107.5 527,-70.5 408,-70.5"/>
<text text-anchor="start" x="419" y="-85.3" font-family="Times New Roman,serif" font-size="14.00">&#45; encendida: bool</text>
<polygon fill="none" stroke="black" points="408,-3.5 408,-70.5 527,-70.5 527,-3.5 408,-3.5"/>
<text text-anchor="start" x="419" y="-48.3" font-family="Times New Roman,serif" font-size="14.00">...</text>
<text text-anchor="start" x="419" y="-33.3" font-family="Times New Roman,serif" font-size="14.00">+ Encender()</text>
<text text-anchor="start" x="419" y="-18.3" font-family="Times New Roman,serif" font-size="14.00">+ Apagar()</text>
</g>
<!-- AlarmaLuminosa&#45;&gt;Bombilla -->
<g id="edge3" class="edge"><title>AlarmaLuminosa&#45;&gt;Bombilla</title>
<path fill="none" stroke="black" d="M358.744,-74.5C368.845,-74.5 378.946,-74.5 389.047,-74.5"/>
<polygon fill="black" stroke="black" points="358.375,-74.5001 352.375,-78.5 346.375,-74.5 352.375,-70.5 358.375,-74.5001"/>
<polygon fill="black" stroke="black" points="399.148,-74.5 389.148,-79.0001 394.148,-74.5 389.148,-74.5001 389.148,-74.5001 389.148,-74.5001 394.148,-74.5 389.148,-70.0001 399.148,-74.5 399.148,-74.5"/>
<text text-anchor="middle" x="383.288" y="-63.4042" font-family="Times New Roman,serif" font-size="14.00">1</text>
</g>
</g>
</svg>
