<?xml version="1.0" encoding="UTF-8" standalone="no"?>
<!DOCTYPE svg PUBLIC "-//W3C//DTD SVG 1.1//EN"
 "http://www.w3.org/Graphics/SVG/1.1/DTD/svg11.dtd">
<!-- Generated by graphviz version 2.38.0 (20140413.2041)
 -->
<!-- Title: G Pages: 1 -->
<svg width="681pt" height="480pt"
 viewBox="0.00 0.00 680.50 480.00" xmlns="http://www.w3.org/2000/svg" xmlns:xlink="http://www.w3.org/1999/xlink">
<g id="graph0" class="graph" transform="scale(1 1) rotate(0) translate(4 476)">
<title>G</title>
<polygon fill="white" stroke="none" points="-4,4 -4,-476 676.5,-476 676.5,4 -4,4"/>
<!-- Cuenta -->
<g id="node1" class="node"><title>Cuenta</title>
<polygon fill="none" stroke="black" points="95,-137.5 95,-174.5 367,-174.5 367,-137.5 95,-137.5"/>
<text text-anchor="start" x="208.5" y="-153.3" font-family="Times New Roman,serif" font-weight="bold" font-size="14.00">Cuenta</text>
<polygon fill="none" stroke="black" points="95,-85.5 95,-137.5 367,-137.5 367,-85.5 95,-85.5"/>
<text text-anchor="start" x="106" y="-115.3" font-family="Times New Roman,serif" font-size="14.00">&#45; titular : string</text>
<text text-anchor="start" x="106" y="-100.3" font-family="Times New Roman,serif" font-size="14.00">&#45; saldo : double</text>
<polygon fill="none" stroke="black" points="95,-3.5 95,-85.5 367,-85.5 367,-3.5 95,-3.5"/>
<text text-anchor="start" x="106" y="-63.3" font-family="Times New Roman,serif" font-size="14.00">+ Cuenta(in numero : string, in titular : string)</text>
<text text-anchor="start" x="106" y="-48.3" font-family="Times New Roman,serif" font-size="14.00">+ Ingreso(in cantidad : double): void</text>
<text text-anchor="start" x="106" y="-33.3" font-family="Times New Roman,serif" font-size="14.00">+ Reintegro(in cantidad :double): void</text>
<text text-anchor="start" x="106" y="-18.3" font-family="Times New Roman,serif" font-size="14.00">+ ToString(): string</text>
</g>
<!-- NotaReintegro -->
<g id="node4" class="node"><title>NotaReintegro</title>
<polygon fill="#ffffe6" stroke="black" points="579.5,-116 410.5,-116 410.5,-63 585.5,-63 585.5,-110 579.5,-116"/>
<polyline fill="none" stroke="black" points="579.5,-116 579.5,-110 "/>
<polyline fill="none" stroke="black" points="585.5,-110 579.5,-110 "/>
<text text-anchor="middle" x="498" y="-100.8" font-family="Times New Roman,serif" font-size="14.00">Si el reintegro</text>
<text text-anchor="middle" x="498" y="-85.8" font-family="Times New Roman,serif" font-size="14.00">es superior al saldo</text>
<text text-anchor="middle" x="498" y="-70.8" font-family="Times New Roman,serif" font-size="14.00">generaremos una excepción.</text>
</g>
<!-- Cuenta&#45;&gt;NotaReintegro -->
<g id="edge3" class="edge"><title>Cuenta&#45;&gt;NotaReintegro</title>
<path fill="none" stroke="black" stroke-dasharray="5,2" d="M375.19,-89.5C386.864,-89.5 398.537,-89.5 410.21,-89.5"/>
</g>
<!-- NumeroCuenta -->
<g id="node2" class="node"><title>NumeroCuenta</title>
<polygon fill="none" stroke="black" points="8,-431 8,-468 454,-468 454,-431 8,-431"/>
<text text-anchor="start" x="184" y="-446.8" font-family="Times New Roman,serif" font-weight="bold" font-size="14.00">NumeroCuenta</text>
<polygon fill="none" stroke="black" points="8,-334 8,-431 454,-431 454,-334 8,-334"/>
<text text-anchor="start" x="19" y="-408.8" font-family="Times New Roman,serif" font-size="14.00">&#45; entidad : string</text>
<text text-anchor="start" x="19" y="-393.8" font-family="Times New Roman,serif" font-size="14.00">&#45; sucursal : string</text>
<text text-anchor="start" x="19" y="-378.8" font-family="Times New Roman,serif" font-size="14.00">&#45; dcEntSuc : string</text>
<text text-anchor="start" x="19" y="-363.8" font-family="Times New Roman,serif" font-size="14.00">&#45; dcNumero : string</text>
<text text-anchor="start" x="19" y="-348.8" font-family="Times New Roman,serif" font-size="14.00">&#45; cuenta : string</text>
<polygon fill="none" stroke="black" points="8,-256 8,-334 454,-334 454,-256 8,-256"/>
<text text-anchor="start" x="19" y="-312.8" font-family="Times New Roman,serif" font-size="14.00">+ NumeroCuenta(in numero : string)</text>
<text text-anchor="start" x="19" y="-298.8" font-family="Times New Roman,serif" font-size="14.00">&#45; formatoCorrecto(in numero : string) : bool</text>
<text text-anchor="start" x="19" y="-284.8" font-family="Times New Roman,serif" font-size="14.00">&#45; </text>
<text text-anchor="start" x="28" y="-284.8" font-family="Times New Roman,serif" text-decoration="underline" font-size="14.00">dcCorrecto(in dc : string, in digitos : string, in ponderaciones : int[]) : bool</text>
<text text-anchor="start" x="19" y="-270.8" font-family="Times New Roman,serif" font-size="14.00">+ ToString() : string</text>
</g>
<!-- NumeroCuenta&#45;&gt;Cuenta -->
<g id="edge1" class="edge"><title>NumeroCuenta&#45;&gt;Cuenta</title>
<path fill="none" stroke="black" d="M231,-241.553C231,-224.909 231,-207.942 231,-191.677"/>
<polygon fill="black" stroke="black" points="231,-251.757 226.5,-241.757 231,-246.757 231,-241.757 231,-241.757 231,-241.757 231,-246.757 235.5,-241.757 231,-251.757 231,-251.757"/>
<polygon fill="black" stroke="black" points="231,-191.394 227,-185.394 231,-179.394 235,-185.394 231,-191.394"/>
<text text-anchor="middle" x="223.604" y="-232.197" font-family="Times New Roman,serif" font-size="14.00">1</text>
</g>
<!-- NotaConstructor -->
<g id="node3" class="node"><title>NotaConstructor</title>
<polygon fill="#ffffe6" stroke="black" points="666.5,-388.5 497.5,-388.5 497.5,-335.5 672.5,-335.5 672.5,-382.5 666.5,-388.5"/>
<polyline fill="none" stroke="black" points="666.5,-388.5 666.5,-382.5 "/>
<polyline fill="none" stroke="black" points="672.5,-382.5 666.5,-382.5 "/>
<text text-anchor="middle" x="585" y="-373.3" font-family="Times New Roman,serif" font-size="14.00">Si el número de cuenta</text>
<text text-anchor="middle" x="585" y="-358.3" font-family="Times New Roman,serif" font-size="14.00">no es correcto,</text>
<text text-anchor="middle" x="585" y="-343.3" font-family="Times New Roman,serif" font-size="14.00">generaremos una excepción.</text>
</g>
<!-- NumeroCuenta&#45;&gt;NotaConstructor -->
<g id="edge2" class="edge"><title>NumeroCuenta&#45;&gt;NotaConstructor</title>
<path fill="none" stroke="black" stroke-dasharray="5,2" d="M462.275,-362C473.941,-362 485.606,-362 497.271,-362"/>
</g>
</g>
</svg>
