<?xml version="1.0" encoding="UTF-8" standalone="no"?>
<!DOCTYPE svg PUBLIC "-//W3C//DTD SVG 1.1//EN"
 "http://www.w3.org/Graphics/SVG/1.1/DTD/svg11.dtd">
<!-- Generated by graphviz version 2.38.0 (20140413.2041)
 -->
<!-- Title: G Pages: 1 -->
<svg width="387pt" height="125pt"
 viewBox="0.00 0.00 387.00 125.00" xmlns="http://www.w3.org/2000/svg" xmlns:xlink="http://www.w3.org/1999/xlink">
<g id="graph0" class="graph" transform="scale(1 1) rotate(0) translate(4 121)">
<title>G</title>
<polygon fill="white" stroke="none" points="-4,4 -4,-121 383,-121 383,4 -4,4"/>
<!-- raiz -->
<g id="node1" class="node"><title>raiz</title>
<text text-anchor="middle" x="27" y="-41.3" font-family="Times New Roman,serif" font-size="14.00">C:\</text>
</g>
<!-- n1 -->
<g id="node2" class="node"><title>n1</title>
<polygon fill="none" stroke="black" points="155,-63 152,-67 131,-67 128,-63 90,-63 90,-27 155,-27 155,-63"/>
<text text-anchor="middle" x="122.5" y="-41.3" font-family="Times New Roman,serif" font-size="14.00">nombres</text>
</g>
<!-- raiz&#45;&gt;n1 -->
<g id="edge1" class="edge"><title>raiz&#45;&gt;n1</title>
<path fill="none" stroke="black" d="M54.045,-45C65.1762,-45 78.2699,-45 89.945,-45"/>
</g>
<!-- n11 -->
<g id="node3" class="node"><title>n11</title>
<polygon fill="none" stroke="black" points="245,-90 242,-94 221,-94 218,-90 191,-90 191,-54 245,-54 245,-90"/>
<text text-anchor="middle" x="218" y="-68.3" font-family="Times New Roman,serif" font-size="14.00">pepe</text>
</g>
<!-- n1&#45;&gt;n11 -->
<g id="edge2" class="edge"><title>n1&#45;&gt;n11</title>
<path fill="none" stroke="black" d="M155.155,-54.141C166.81,-57.5067 179.868,-61.2773 190.971,-64.4835"/>
</g>
<!-- n12 -->
<g id="node4" class="node"><title>n12</title>
<polygon fill="none" stroke="black" points="245,-36 242,-40 221,-40 218,-36 191,-36 191,-0 245,-0 245,-36"/>
<text text-anchor="middle" x="218" y="-14.3" font-family="Times New Roman,serif" font-size="14.00">juan</text>
</g>
<!-- n1&#45;&gt;n12 -->
<g id="edge3" class="edge"><title>n1&#45;&gt;n12</title>
<path fill="none" stroke="black" d="M155.155,-35.859C166.81,-32.4933 179.868,-28.7227 190.971,-25.5165"/>
</g>
<!-- n111 -->
<g id="node5" class="node"><title>n111</title>
<polygon fill="none" stroke="black" points="357,-117 354,-121 333,-121 330,-117 303,-117 303,-81 357,-81 357,-117"/>
<text text-anchor="middle" x="330" y="-95.3" font-family="Times New Roman,serif" font-size="14.00">datos</text>
</g>
<!-- n11&#45;&gt;n111 -->
<g id="edge4" class="edge"><title>n11&#45;&gt;n111</title>
<path fill="none" stroke="black" d="M245.068,-78.3986C262.476,-82.6715 285.29,-88.2711 302.737,-92.5537"/>
</g>
<!-- n112 -->
<g id="node6" class="node"><title>n112</title>
<text text-anchor="middle" x="330" y="-41.3" font-family="Times New Roman,serif" font-size="14.00">documento.txt</text>
</g>
<!-- n11&#45;&gt;n112 -->
<g id="edge5" class="edge"><title>n11&#45;&gt;n112</title>
<path fill="none" stroke="black" d="M245.068,-65.6014C255.742,-62.9815 268.447,-59.8629 280.702,-56.8549"/>
</g>
</g>
</svg>
