<?xml version="1.0" encoding="UTF-8" standalone="no"?>
<!-- Created with Inkscape (http://www.inkscape.org/) -->

<svg
   xmlns:dc="http://purl.org/dc/elements/1.1/"
   xmlns:cc="http://creativecommons.org/ns#"
   xmlns:rdf="http://www.w3.org/1999/02/22-rdf-syntax-ns#"
   xmlns:svg="http://www.w3.org/2000/svg"
   xmlns="http://www.w3.org/2000/svg"
   xmlns:sodipodi="http://sodipodi.sourceforge.net/DTD/sodipodi-0.dtd"
   xmlns:inkscape="http://www.inkscape.org/namespaces/inkscape"
   width="297mm"
   height="75mm"
   viewBox="0 0 297 75"
   version="1.1"
   id="svg8"
   inkscape:version="0.92.4 (5da689c313, 2019-01-14)"
   sodipodi:docname="ej1.svg">
  <defs
     id="defs2" />
  <sodipodi:namedview
     id="base"
     pagecolor="#ffffff"
     bordercolor="#666666"
     borderopacity="1.0"
     inkscape:pageopacity="0.0"
     inkscape:pageshadow="2"
     inkscape:zoom="0.7"
     inkscape:cx="511.76255"
     inkscape:cy="253.27317"
     inkscape:document-units="mm"
     inkscape:current-layer="layer1"
     showgrid="false"
     inkscape:snap-global="false"
     showguides="false"
     inkscape:window-width="1278"
     inkscape:window-height="1008"
     inkscape:window-x="635"
     inkscape:window-y="21"
     inkscape:window-maximized="0" />
  <metadata
     id="metadata5">
    <rdf:RDF>
      <cc:Work
         rdf:about="">
        <dc:format>image/svg+xml</dc:format>
        <dc:type
           rdf:resource="http://purl.org/dc/dcmitype/StillImage" />
        <dc:title />
      </cc:Work>
    </rdf:RDF>
  </metadata>
  <g
     inkscape:label="Capa 1"
     inkscape:groupmode="layer"
     id="layer1"
     transform="translate(0,-222)">
    <path
       sodipodi:type="star"
       style="opacity:1;fill:none;fill-opacity:1;stroke:#000000;stroke-width:2.43454766;stroke-linecap:square;stroke-linejoin:miter;stroke-miterlimit:4;stroke-dasharray:none;stroke-dashoffset:0;stroke-opacity:1;paint-order:fill markers stroke"
       id="path12"
       sodipodi:sides="3"
       sodipodi:cx="31.75"
       sodipodi:cy="147.32143"
       sodipodi:r1="18.769857"
       sodipodi:r2="8.9332514"
       sodipodi:arg1="0.52359878"
       sodipodi:arg2="1.5707963"
       inkscape:flatsided="false"
       inkscape:rounded="0"
       inkscape:randomized="0"
       d="M 48.005173,156.70636 31.75,156.25468 15.494827,156.70636 24.013577,142.8548 31.75,128.55157 39.486423,142.8548 Z"
       inkscape:transform-center-y="-1.700456"
       transform="matrix(0.80021311,0,0,0.36237914,-7.8900854,217.04694)" />
    <path
       sodipodi:type="star"
       style="opacity:1;fill:none;fill-opacity:1;stroke:#000000;stroke-width:1.63926303;stroke-linecap:square;stroke-linejoin:miter;stroke-miterlimit:4;stroke-dasharray:none;stroke-dashoffset:0;stroke-opacity:1;paint-order:fill markers stroke"
       id="path12-7"
       sodipodi:sides="3"
       sodipodi:cx="107.34524"
       sodipodi:cy="162.56371"
       sodipodi:r1="18.769857"
       sodipodi:r2="8.9332514"
       sodipodi:arg1="0.52359878"
       sodipodi:arg2="1.5707963"
       inkscape:flatsided="false"
       inkscape:rounded="0"
       inkscape:randomized="0"
       d="m 123.60041,171.94863 -16.25517,-0.45167 -16.255176,0.45167 8.518751,-13.85155 7.736425,-14.30323 7.73642,14.30323 z"
       inkscape:transform-center-y="-3.750624"
       transform="matrix(0.80021311,0,0,0.79928656,61.69364,136.17291)" />
    <path
       sodipodi:type="star"
       style="opacity:1;fill:#333333;fill-opacity:1;stroke:#000000;stroke-width:1.4300344;stroke-linecap:square;stroke-linejoin:miter;stroke-miterlimit:4;stroke-dasharray:none;stroke-dashoffset:0;stroke-opacity:1;paint-order:fill markers stroke"
       id="path12-8"
       sodipodi:sides="3"
       sodipodi:cx="111.50298"
       sodipodi:cy="236.64703"
       sodipodi:r1="18.769857"
       sodipodi:r2="8.9332514"
       sodipodi:arg1="0.52359878"
       sodipodi:arg2="1.5707963"
       inkscape:flatsided="false"
       inkscape:rounded="0"
       inkscape:randomized="0"
       d="m 127.75816,246.03196 -16.25518,-0.45167 -16.25517,0.45167 8.51875,-13.85155 7.73642,-14.30323 7.73643,14.30323 z"
       inkscape:transform-center-y="-4.9284175"
       transform="matrix(0.80021311,0,0,1.0502843,-45.694262,15.104897)" />
    <path
       sodipodi:type="star"
       style="opacity:1;fill:none;fill-opacity:1;stroke:#000000;stroke-width:1.89753556;stroke-linecap:square;stroke-linejoin:miter;stroke-miterlimit:4;stroke-dasharray:none;stroke-dashoffset:0;stroke-opacity:1;paint-order:fill markers stroke"
       id="path12-9"
       sodipodi:sides="3"
       sodipodi:cx="169.33333"
       sodipodi:cy="198.47144"
       sodipodi:r1="18.769857"
       sodipodi:r2="8.9332514"
       sodipodi:arg1="0.52359878"
       sodipodi:arg2="1.5707963"
       inkscape:flatsided="false"
       inkscape:rounded="0"
       inkscape:randomized="0"
       d="m 185.5885,207.85636 -16.25517,-0.45167 -16.25518,0.45167 8.51876,-13.85155 7.73642,-14.30323 7.73642,14.30323 z"
       inkscape:transform-center-y="-2.7991162"
       transform="matrix(0.80021311,0,0,0.59651306,-65.955657,149.71382)" />
    <path
       sodipodi:type="star"
       style="opacity:1;fill:#cccccc;fill-opacity:1;stroke:#000000;stroke-width:1.63926303;stroke-linecap:square;stroke-linejoin:miter;stroke-miterlimit:4;stroke-dasharray:none;stroke-dashoffset:0;stroke-opacity:1;paint-order:fill markers stroke"
       id="path12-2"
       sodipodi:sides="3"
       sodipodi:cx="178.78275"
       sodipodi:cy="136.48335"
       sodipodi:r1="18.769857"
       sodipodi:r2="8.9332514"
       sodipodi:arg1="0.52359878"
       sodipodi:arg2="1.5707963"
       inkscape:flatsided="false"
       inkscape:rounded="0"
       inkscape:randomized="0"
       d="m 195.03792,145.86828 -16.25517,-0.45168 -16.25518,0.45168 8.51875,-13.85155 7.73643,-14.30323 7.73642,14.30323 z"
       inkscape:transform-center-y="-3.7506241"
       transform="matrix(0.80021311,0,0,0.79928656,82.574027,157.01858)" />
    <path
       sodipodi:type="star"
       style="opacity:1;fill:#cccccc;fill-opacity:1;stroke:#000000;stroke-width:2.59089851;stroke-linecap:square;stroke-linejoin:miter;stroke-miterlimit:4;stroke-dasharray:none;stroke-dashoffset:0;stroke-opacity:1;paint-order:fill markers stroke"
       id="path12-1"
       sodipodi:sides="3"
       sodipodi:cx="84.666664"
       sodipodi:cy="105.11132"
       sodipodi:r1="18.769857"
       sodipodi:r2="8.9332514"
       sodipodi:arg1="0.52359878"
       sodipodi:arg2="1.5707963"
       inkscape:flatsided="false"
       inkscape:rounded="0"
       inkscape:randomized="0"
       d="m 100.92184,114.49625 -16.255176,-0.45168 -16.255173,0.45168 8.51875,-13.85155 7.736423,-14.303237 7.736423,14.303227 z"
       inkscape:transform-center-y="-1.5014116"
       transform="matrix(0.80021311,0,0,0.3199624,209.91737,237.22753)"
       inkscape:transform-center-x="-4.0918218e-06" />
    <path
       sodipodi:type="star"
       style="opacity:1;fill:#cccccc;fill-opacity:1;stroke:#000000;stroke-width:1.91012943;stroke-linecap:square;stroke-linejoin:miter;stroke-miterlimit:4;stroke-dasharray:none;stroke-dashoffset:0;stroke-opacity:1;paint-order:fill markers stroke"
       id="path12-3"
       sodipodi:sides="3"
       sodipodi:cx="160.2619"
       sodipodi:cy="85.456558"
       sodipodi:r1="18.769857"
       sodipodi:r2="8.9332514"
       sodipodi:arg1="0.52359878"
       sodipodi:arg2="1.5707963"
       inkscape:flatsided="false"
       inkscape:rounded="0"
       inkscape:randomized="0"
       d="m 176.51708,94.841487 -16.25518,-0.451677 -16.25517,0.451677 8.51875,-13.851554 7.73642,-14.303232 7.73642,14.303231 z"
       inkscape:transform-center-y="-2.7623296"
       transform="matrix(0.80021311,0,0,0.58867306,123.40986,217.87615)"
       inkscape:transform-center-x="-3.5076271e-06" />
    <path
       sodipodi:type="star"
       style="opacity:1;fill:#cccccc;fill-opacity:1;stroke:#000000;stroke-width:1.15005982;stroke-linecap:square;stroke-linejoin:miter;stroke-miterlimit:4;stroke-dasharray:none;stroke-dashoffset:0;stroke-opacity:1;paint-order:fill markers stroke"
       id="path12-97"
       sodipodi:sides="3"
       sodipodi:cx="225.65179"
       sodipodi:cy="260.83752"
       sodipodi:r1="18.769857"
       sodipodi:r2="8.9332514"
       sodipodi:arg1="0.52359878"
       sodipodi:arg2="1.5707963"
       inkscape:flatsided="false"
       inkscape:rounded="0"
       inkscape:randomized="0"
       d="m 241.90697,270.22245 -16.25518,-0.45167 -16.25517,0.45167 8.51875,-13.85155 7.73642,-14.30323 7.73643,14.30323 z"
       inkscape:transform-center-y="-7.6200876"
       transform="matrix(0.80021311,0,0,1.6238988,-58.992022,-165.23459)" />
    <path
       sodipodi:type="star"
       style="opacity:1;fill:none;fill-opacity:1;stroke:#000000;stroke-width:1.34375453;stroke-linecap:square;stroke-linejoin:miter;stroke-miterlimit:4;stroke-dasharray:none;stroke-dashoffset:0;stroke-opacity:1;paint-order:fill markers stroke"
       id="path12-6"
       sodipodi:sides="3"
       sodipodi:cx="250.9762"
       sodipodi:cy="209.81073"
       sodipodi:r1="18.769857"
       sodipodi:r2="8.9332514"
       sodipodi:arg1="0.52359878"
       sodipodi:arg2="1.5707963"
       inkscape:flatsided="false"
       inkscape:rounded="0"
       inkscape:randomized="0"
       d="m 267.23137,219.19566 -16.25517,-0.45168 -16.25518,0.45168 8.51875,-13.85156 7.73643,-14.30323 7.73642,14.30323 z"
       inkscape:transform-center-y="-5.5816356"
       transform="matrix(0.80021311,0,0,1.1894874,-105.27215,12.727254)"
       inkscape:transform-center-x="3.9335789e-06" />
    <path
       sodipodi:type="star"
       style="opacity:1;fill:none;fill-opacity:1;stroke:#000000;stroke-width:1.50521553;stroke-linecap:square;stroke-linejoin:miter;stroke-miterlimit:4;stroke-dasharray:none;stroke-dashoffset:0;stroke-opacity:1;paint-order:fill markers stroke"
       id="path12-82"
       sodipodi:sides="3"
       sodipodi:cx="245.68452"
       sodipodi:cy="146.31073"
       sodipodi:r1="18.769857"
       sodipodi:r2="8.9332514"
       sodipodi:arg1="0.52359878"
       sodipodi:arg2="1.5707963"
       inkscape:flatsided="false"
       inkscape:rounded="0"
       inkscape:randomized="0"
       d="m 261.9397,155.69566 -16.25518,-0.45168 -16.25517,0.45168 8.51875,-13.85156 7.73642,-14.30323 7.73643,14.30323 z"
       inkscape:transform-center-y="-4.4483961"
       transform="matrix(0.80021311,0,0,0.94798713,-22.992064,125.95034)" />
    <path
       sodipodi:type="star"
       style="opacity:1;fill:#cccccc;fill-opacity:1;stroke:#000000;stroke-width:1.27900112;stroke-linecap:square;stroke-linejoin:miter;stroke-miterlimit:4;stroke-dasharray:none;stroke-dashoffset:0;stroke-opacity:1;paint-order:fill markers stroke"
       id="path12-89"
       sodipodi:sides="3"
       sodipodi:cx="254.37798"
       sodipodi:cy="92.638107"
       sodipodi:r1="18.769857"
       sodipodi:r2="8.9332514"
       sodipodi:arg1="0.52359878"
       sodipodi:arg2="1.5707963"
       inkscape:flatsided="false"
       inkscape:rounded="0"
       inkscape:randomized="0"
       d="m 270.63315,102.02304 -16.25517,-0.45168 -16.25518,0.45168 8.51875,-13.851558 7.73643,-14.303232 7.73642,14.303231 z"
       inkscape:transform-center-y="-6.1611131"
       transform="matrix(0.80021311,0,0,1.3129794,-3.9334718,139.46106)" />
    <g
       id="g3866"
       transform="translate(2.7973117e-8,50.270834)">
      <text
         id="text99"
         y="235.39366"
         x="44.018967"
         style="font-style:normal;font-weight:normal;font-size:7.76111126px;line-height:1.25;font-family:sans-serif;text-align:center;letter-spacing:0px;word-spacing:0px;text-anchor:middle;fill:#000000;fill-opacity:1;stroke:none;stroke-width:0.26458332"
         xml:space="preserve"><tspan
           style="stroke-width:0.26458332"
           y="235.39366"
           x="44.018967"
           id="tspan97"
           sodipodi:role="line">1</tspan></text>
      <text
         id="text103"
         y="235.44482"
         x="70.137604"
         style="font-style:normal;font-weight:normal;font-size:7.76111126px;line-height:1.25;font-family:sans-serif;text-align:center;letter-spacing:0px;word-spacing:0px;text-anchor:middle;fill:#000000;fill-opacity:1;stroke:none;stroke-width:0.26458332"
         xml:space="preserve"><tspan
           style="stroke-width:0.26458332"
           y="235.44482"
           x="70.137604"
           id="tspan101"
           sodipodi:role="line">2</tspan></text>
      <text
         id="text107"
         y="235.38988"
         x="95.994766"
         style="font-style:normal;font-weight:normal;font-size:7.76111126px;line-height:1.25;font-family:sans-serif;text-align:center;letter-spacing:0px;word-spacing:0px;text-anchor:middle;fill:#000000;fill-opacity:1;stroke:none;stroke-width:0.26458332"
         xml:space="preserve"><tspan
           style="stroke-width:0.26458332"
           y="235.38988"
           x="95.994766"
           id="tspan105"
           sodipodi:role="line">3</tspan></text>
      <text
         id="text111"
         y="235.39366"
         x="121.95425"
         style="font-style:normal;font-weight:normal;font-size:7.76111126px;line-height:1.25;font-family:sans-serif;text-align:center;letter-spacing:0px;word-spacing:0px;text-anchor:middle;fill:#000000;fill-opacity:1;stroke:none;stroke-width:0.26458332"
         xml:space="preserve"><tspan
           style="stroke-width:0.26458332"
           y="235.39366"
           x="121.95425"
           id="tspan109"
           sodipodi:role="line">4</tspan></text>
      <text
         id="text115"
         y="235.33871"
         x="147.91185"
         style="font-style:normal;font-weight:normal;font-size:7.76111126px;line-height:1.25;font-family:sans-serif;text-align:center;letter-spacing:0px;word-spacing:0px;text-anchor:middle;fill:#000000;fill-opacity:1;stroke:none;stroke-width:0.26458332"
         xml:space="preserve"><tspan
           style="stroke-width:0.26458332"
           y="235.33871"
           x="147.91185"
           id="tspan113"
           sodipodi:role="line">5</tspan></text>
      <text
         id="text119"
         y="235.38988"
         x="173.79173"
         style="font-style:normal;font-weight:normal;font-size:7.76111126px;line-height:1.25;font-family:sans-serif;text-align:center;letter-spacing:0px;word-spacing:0px;text-anchor:middle;fill:#000000;fill-opacity:1;stroke:none;stroke-width:0.26458332"
         xml:space="preserve"><tspan
           style="stroke-width:0.26458332"
           y="235.38988"
           x="173.79173"
           id="tspan117"
           sodipodi:role="line">6</tspan></text>
      <text
         id="text123"
         y="235.39366"
         x="199.77774"
         style="font-style:normal;font-weight:normal;font-size:7.76111126px;line-height:1.25;font-family:sans-serif;text-align:center;letter-spacing:0px;word-spacing:0px;text-anchor:middle;fill:#000000;fill-opacity:1;stroke:none;stroke-width:0.26458332"
         xml:space="preserve"><tspan
           style="stroke-width:0.26458332"
           y="235.39366"
           x="199.77774"
           id="tspan121"
           sodipodi:role="line">7</tspan></text>
      <text
         id="text127"
         y="235.38988"
         x="225.7126"
         style="font-style:normal;font-weight:normal;font-size:7.76111126px;line-height:1.25;font-family:sans-serif;text-align:center;letter-spacing:0px;word-spacing:0px;text-anchor:middle;fill:#000000;fill-opacity:1;stroke:none;stroke-width:0.26458332"
         xml:space="preserve"><tspan
           style="stroke-width:0.26458332"
           y="235.38988"
           x="225.7126"
           id="tspan125"
           sodipodi:role="line">8</tspan></text>
      <text
         id="text131"
         y="235.38988"
         x="251.68535"
         style="font-style:normal;font-weight:normal;font-size:7.76111126px;line-height:1.25;font-family:sans-serif;text-align:center;letter-spacing:0px;word-spacing:0px;text-anchor:middle;fill:#000000;fill-opacity:1;stroke:none;stroke-width:0.26458332"
         xml:space="preserve"><tspan
           style="stroke-width:0.26458332"
           y="235.38988"
           x="251.68535"
           id="tspan129"
           sodipodi:role="line">9</tspan></text>
      <text
         id="text135"
         y="235.38988"
         x="277.43451"
         style="font-style:normal;font-weight:normal;font-size:7.76111126px;line-height:1.25;font-family:sans-serif;text-align:center;letter-spacing:0px;word-spacing:0px;text-anchor:middle;fill:#000000;fill-opacity:1;stroke:none;stroke-width:0.26458332"
         xml:space="preserve"><tspan
           style="stroke-width:0.26458332"
           y="235.38988"
           x="277.43451"
           id="tspan133"
           sodipodi:role="line">10</tspan></text>
      <text
         id="text139"
         y="235.38988"
         x="18.142857"
         style="font-style:normal;font-weight:normal;font-size:7.76111126px;line-height:1.25;font-family:sans-serif;text-align:center;letter-spacing:0px;word-spacing:0px;text-anchor:middle;fill:#000000;fill-opacity:1;stroke:none;stroke-width:0.26458332"
         xml:space="preserve"><tspan
           style="stroke-width:0.26458332"
           y="235.38988"
           x="18.142857"
           id="tspan137"
           sodipodi:role="line">0</tspan></text>
    </g>
    <text
       xml:space="preserve"
       style="font-style:normal;font-weight:normal;font-size:7.76111126px;line-height:1.25;font-family:sans-serif;text-align:center;letter-spacing:0px;word-spacing:0px;text-anchor:middle;fill:#000000;fill-opacity:1;stroke:none;stroke-width:0.26458332"
       x="44.675369"
       y="294.51166"
       id="text3870"><tspan
         sodipodi:role="line"
         id="tspan3868"
         x="44.675369"
         y="294.51166"
         style="font-size:4.58611107px;stroke-width:0.26458332">2602 m</tspan></text>
    <text
       xml:space="preserve"
       style="font-style:normal;font-weight:normal;font-size:7.76111126px;line-height:1.25;font-family:sans-serif;text-align:center;letter-spacing:0px;word-spacing:0px;text-anchor:middle;fill:#000000;fill-opacity:1;stroke:none;stroke-width:0.26458332"
       x="123.0483"
       y="294.51166"
       id="text3870-4"><tspan
         sodipodi:role="line"
         id="tspan3868-3"
         x="123.0483"
         y="294.51166"
         style="font-size:4.58611107px;stroke-width:0.26458332">3000 m</tspan></text>
    <g
       id="g3937"
       transform="translate(20.410714,118.68453)">
      <path
         style="stroke-width:0.26458332"
         inkscape:connector-curvature="0"
         d="m 22.779205,111.6806 c -0.004,-0.01 -0.01365,-0.0258 -0.01122,-0.028 0.02063,-0.018 0.04196,-0.0365 0.06602,-0.0489 0.05388,-0.0278 0.107472,-0.0593 0.1651,-0.0761 0.09342,-0.0273 0.182491,-0.002 0.261048,0.0523 0.04004,0.0278 0.07492,0.0633 0.111112,0.0965 0.04337,0.0396 0.08927,0.0614 0.150239,0.0403 0.08331,-0.0287 0.159439,-0.008 0.238502,0.0291 0.115256,0.0542 0.229402,0.10687 0.297646,0.22091 0.03276,0.0547 0.06713,0.11152 0.08331,0.17207 0.02609,0.0973 0.04408,0.19786 0.05379,0.29816 0.01092,0.11333 -0.02558,0.21696 -0.09352,0.30917 -0.01385,0.0188 -0.02467,0.0412 -0.03154,0.0635 -0.009,0.0291 -0.01334,0.0598 -0.0186,0.0899 -0.02184,0.12618 -0.02982,0.13447 -0.148115,0.15419 -0.04479,0.0675 -0.08735,0.13295 -0.131232,0.19745 -0.03539,0.052 -0.07643,0.0653 -0.134669,0.0375 -0.06066,-0.0289 -0.11829,-0.0643 -0.18704,-0.10232 -0.0459,0.0529 -0.09332,0.10748 -0.143971,0.16581 0.07431,0.12123 0.09686,0.25398 0.116774,0.38763 0.0031,0.0211 0.0068,0.0441 0.01769,0.0615 0.0452,0.0723 0.03296,0.13699 -0.01304,0.20443 -0.0371,0.0544 -0.04631,0.11799 -0.04681,0.18441 -0.001,0.14731 -0.0037,0.29462 -0.01082,0.44172 -0.0041,0.0844 -0.0185,0.16844 -0.02902,0.25963 0.03528,-0.003 0.06804,-0.005 0.100395,-0.009 0.153474,-0.02 0.301489,0.12556 0.314632,0.29532 0.004,0.0516 -0.02881,0.0859 -0.08705,0.083 -0.07189,-0.004 -0.143162,-0.0185 -0.219697,-0.0291 0.07795,0.11991 0.151452,0.24386 0.235772,0.35993 0.140634,0.19361 0.289255,0.38136 0.432417,0.57315 0.05591,0.0749 0.117077,0.14387 0.201397,0.18522 0.14124,0.0692 0.200689,0.19068 0.227177,0.33576 0.01628,0.0894 -0.0093,0.12506 -0.09746,0.14185 -0.05975,0.0113 -0.118795,0.0265 -0.178547,0.0383 -0.05662,0.0112 -0.101305,-0.008 -0.136186,-0.0548 -0.04762,-0.0637 -0.09817,-0.12507 -0.145487,-0.18887 -0.01982,-0.0267 -0.04095,-0.0552 -0.05065,-0.0862 -0.03488,-0.11201 -0.104844,-0.20068 -0.181884,-0.2846 -0.09756,-0.10626 -0.195229,-0.21272 -0.297647,-0.31423 -0.133455,-0.13224 -0.255386,-0.27368 -0.363465,-0.42726 -0.0099,-0.0141 -0.02194,-0.0267 -0.04286,-0.0519 7.1e-4,0.22434 0.05753,0.42544 0.08553,0.63857 -0.05217,0.009 -0.09312,0.0155 -0.140937,0.0234 0.01001,0.0201 0.01729,0.0388 0.02791,0.0554 0.05965,0.093 0.119909,0.18552 0.180368,0.27803 0.05318,0.0813 0.08422,0.16925 0.08836,0.26722 0.0041,0.0993 0.03175,0.19229 0.07472,0.28258 0.02467,0.0519 0.04155,0.10899 0.05247,0.1655 0.03812,0.19614 0.09099,0.38763 0.157518,0.57619 0.109292,0.30988 0.161057,0.63139 0.146397,0.95886 -0.01981,0.44485 -0.03023,0.8894 -0.01062,1.33435 0.0025,0.0576 0.0083,0.11496 0.01314,0.17966 0.03893,0.005 0.07128,0.01 0.103732,0.0143 0.06339,0.008 0.07097,0.0145 0.07542,0.0803 0.0041,0.0612 0.007,0.12273 0.0059,0.184 -8.87e-4,0.0533 0.01557,0.0936 0.05914,0.12668 0.102619,0.0778 0.202913,0.15874 0.30442,0.238 0.03528,0.0276 0.0737,0.0338 0.120009,0.0311 0.06673,-0.004 0.134568,0.005 0.201599,0.0121 0.100901,0.0109 0.154283,0.10201 0.106663,0.1929 -0.02133,0.0409 -0.06046,0.0786 -0.100698,0.10171 -0.04671,0.0268 -0.102619,0.0398 -0.156102,0.0516 -0.05975,0.0131 -0.121121,0.0237 -0.181985,0.025 -0.05733,0.001 -0.11546,-0.008 -0.172179,-0.0183 -0.04499,-0.008 -0.08796,-0.027 -0.132546,-0.038 -0.0458,-0.0113 -0.09443,-0.0158 -0.13113,0.0197 -0.115358,0.11161 -0.24932,0.0848 -0.381157,0.0503 -0.181682,-0.0476 -0.188759,-0.0559 -0.182187,-0.24326 0.0027,-0.0783 0.02204,-0.15742 0.04398,-0.23325 0.01982,-0.0683 0.0187,-0.13244 -0.0023,-0.19846 -0.02781,-0.0868 -0.0275,-0.087 0.05904,-0.1376 -0.03134,-0.11182 -0.06177,-0.22697 -0.09595,-0.34102 -0.04762,-0.15853 -0.100698,-0.31554 -0.1467,-0.47457 -0.08078,-0.27895 -0.09615,-0.56224 -0.03276,-0.84634 0.02588,-0.11596 0.02184,-0.22272 -0.03498,-0.32868 -0.104439,-0.19442 -0.205744,-0.39056 -0.308768,-0.58579 -0.0054,-0.0102 -0.01415,-0.0187 -0.02992,-0.0392 -0.0072,0.0298 -0.01284,0.0477 -0.01567,0.0662 -0.0183,0.11808 -0.0366,0.23627 -0.05368,0.35456 -0.02265,0.1559 -0.08816,0.2936 -0.182288,0.41725 -0.09746,0.128 -0.168639,0.26894 -0.235165,0.41472 -0.132243,0.29017 -0.274091,0.57599 -0.410478,0.86434 -0.02992,0.0633 -0.05409,0.12941 -0.08028,0.19259 0.09949,0.0661 0.09989,0.0674 0.05379,0.17178 -0.0185,0.0419 -0.03721,0.0838 -0.05894,0.13285 0.0464,0.0667 0.08836,0.13881 0.142353,0.20049 0.03498,0.04 0.08553,0.0677 0.132344,0.0955 0.04196,0.0248 0.08988,0.0396 0.132444,0.0636 0.06369,0.0358 0.110404,0.0886 0.130221,0.16015 0.02639,0.0951 -0.03165,0.17653 -0.127693,0.17359 -0.147104,-0.005 -0.294917,-0.008 -0.440707,-0.026 -0.05551,-0.007 -0.106259,-0.0515 -0.167325,-0.0831 -0.102721,0.0974 -0.234458,0.0796 -0.367812,0.0419 -0.04661,-0.0131 -0.0916,-0.0319 -0.147408,-0.0519 0.0065,-0.0565 0.0046,-0.11283 0.02022,-0.16378 0.03953,-0.1285 0.08867,-0.25408 0.130524,-0.38187 0.01588,-0.0485 0.03053,-0.0999 0.03154,-0.15024 0.0016,-0.0802 0.02416,-0.14356 0.09554,-0.18582 0.05197,-0.0308 0.064,-0.0784 0.07279,-0.13771 0.02801,-0.19088 0.0639,-0.38075 0.10262,-0.56982 0.05753,-0.28106 0.189567,-0.52987 0.344356,-0.76797 0.0084,-0.0128 0.01527,-0.0269 0.02477,-0.0387 0.158427,-0.19634 0.14306,-0.41189 0.0736,-0.63533 -0.06733,-0.21667 -0.13113,-0.43444 -0.195937,-0.65192 -0.0096,-0.0322 -0.0188,-0.065 -0.02447,-0.0982 -0.02396,-0.14235 -0.05935,-0.27904 -0.12931,-0.40875 -0.07512,-0.13912 -0.07138,-0.29614 -0.06228,-0.45011 0.0054,-0.0909 0.01628,-0.18138 0.02487,-0.27409 -0.05854,-0.002 -0.105652,-0.005 -0.163989,-0.008 0.003,0.11596 0.0084,0.22535 0.0078,0.33475 -5.05e-4,0.10777 0.02851,0.21585 0.0095,0.32858 -0.09817,-0.0431 -0.156406,-0.15013 -0.142353,-0.23335 0.008,-0.0473 0.0054,-0.0964 0.0079,-0.14983 -0.02548,0.0121 -0.0456,0.0217 -0.07775,0.0371 -0.02184,-0.10434 0.0083,-0.20019 0.0054,-0.29917 -0.06066,-0.009 -0.117482,-0.0184 -0.174504,-0.0256 -0.09211,-0.0117 -0.171571,-0.047 -0.23011,-0.12092 -0.03205,-0.0405 -0.07279,-0.0589 -0.122334,-0.0731 -0.159035,-0.0458 -0.316756,-0.0965 -0.473465,-0.14994 -0.05459,-0.0186 -0.109292,-0.044 -0.156102,-0.0772 -0.231829,-0.16459 -0.263879,-0.36083 -0.186434,-0.61602 0.04509,-0.14872 0.146801,-0.26044 0.240523,-0.37762 0.03256,-0.0407 0.07522,-0.0405 0.116269,-0.0186 0.04853,0.0259 0.09413,0.0574 0.140836,0.0866 0.05116,0.0321 0.10171,0.0655 0.171875,0.0669 -0.0181,-0.13669 -0.03943,-0.2662 -0.05146,-0.39652 -0.01405,-0.15257 -0.0272,-0.30614 0.0023,-0.4585 0.03093,-0.15985 0.105854,-0.30099 0.200385,-0.4306 0.04276,-0.0586 0.03751,-0.12011 0.04185,-0.1835 0.0044,-0.0631 -0.0023,-0.11951 -0.05015,-0.16965 -0.02042,-0.0214 -0.03114,-0.0616 -0.02992,-0.0925 0.0053,-0.13467 0.01709,-0.26914 0.02517,-0.40381 0.0031,-0.0526 0.02598,-0.0941 0.0645,-0.12769 0.03923,-0.0343 0.07926,-0.0677 0.119908,-0.10029 0.170156,-0.13589 0.339301,-0.27308 0.511581,-0.40614 0.092,-0.071 0.188051,-0.13719 0.285716,-0.20018 0.03771,-0.0243 0.08402,-0.0375 0.128198,-0.0489 0.0638,-0.0165 0.121627,0.002 0.170156,0.0464 0.05682,0.0522 0.06521,0.10676 0.02447,0.17258 -0.02558,0.0412 -0.05429,0.0806 -0.08654,0.128 0.02639,0.0111 0.04418,0.0207 0.06319,0.0263 0.07643,0.0227 0.153676,0.0428 0.229907,0.0661 0.250634,0.0769 0.405321,0.24265 0.45921,0.50056 0.0188,0.09 0.03751,0.18007 0.05692,0.26994 0.003,0.0138 0.0094,0.0268 0.01497,0.0422 0.10181,-0.10292 0.130422,-0.16065 0.1284,-0.26287 -0.02497,5.9e-4 -0.04995,10e-4 -0.07967,0.002 0.04479,-0.20302 0.08877,-0.40219 0.133456,-0.6046 -0.124154,0.0117 -0.130726,0.0165 -0.156912,0.12385 -0.01001,0.0409 -0.01598,0.0827 -0.02446,0.12749 -0.0091,-0.008 -0.01982,-0.0123 -0.02164,-0.0192 -0.03771,-0.13962 -0.101912,-0.27156 -0.121728,-0.41604 -0.0073,-0.0528 0.0017,-0.10676 0.03862,-0.1474 0.05106,-0.0564 0.10727,-0.10818 0.161259,-0.16187 0.01233,-0.0123 0.02477,-0.0246 0.03721,-0.0368 0.0731,-0.0244 0.146195,-0.0489 0.222831,-0.0744 -0.09362,-0.008 -0.154486,0.0137 -0.221214,0.0764 z"
         id="path83" />
      <text
         id="text3870-3-0"
         y="108.16941"
         x="22.244614"
         style="font-style:normal;font-weight:normal;font-size:7.76111126px;line-height:1.25;font-family:sans-serif;text-align:center;letter-spacing:0px;word-spacing:0px;text-anchor:middle;fill:#000000;fill-opacity:1;stroke:none;stroke-width:0.26458332"
         xml:space="preserve"><tspan
           style="font-size:4.58611107px;stroke-width:0.26458332"
           y="108.16941"
           x="22.244614"
           id="tspan3868-0-3"
           sodipodi:role="line">Carmen</tspan></text>
    </g>
    <text
       xml:space="preserve"
       style="font-style:normal;font-weight:normal;font-size:7.76111126px;line-height:1.25;font-family:sans-serif;text-align:center;letter-spacing:0px;word-spacing:0px;text-anchor:middle;fill:#000000;fill-opacity:1;stroke:none;stroke-width:0.26458332"
       x="201.43466"
       y="294.51166"
       id="text3870-4-4"><tspan
         sodipodi:role="line"
         id="tspan3868-3-9"
         x="201.43466"
         y="294.51166"
         style="font-size:4.58611107px;stroke-width:0.26458332">2775 m</tspan></text>
    <text
       xml:space="preserve"
       style="font-style:normal;font-weight:normal;font-size:7.76111126px;line-height:1.25;font-family:sans-serif;text-align:center;letter-spacing:0px;word-spacing:0px;text-anchor:middle;fill:#000000;fill-opacity:1;stroke:none;stroke-width:0.26458332"
       x="227.5612"
       y="294.51166"
       id="text3870-4-4-7"><tspan
         sodipodi:role="line"
         id="tspan3868-3-9-1"
         x="227.5612"
         y="294.51166"
         style="font-size:4.58611107px;stroke-width:0.26458332">2200 m</tspan></text>
    <text
       xml:space="preserve"
       style="font-style:normal;font-weight:normal;font-size:7.76111126px;line-height:1.25;font-family:sans-serif;text-align:center;letter-spacing:0px;word-spacing:0px;text-anchor:middle;fill:#000000;fill-opacity:1;stroke:none;stroke-width:0.26458332"
       x="253.68776"
       y="294.51166"
       id="text3870-4-4-7-2"><tspan
         sodipodi:role="line"
         id="tspan3868-3-9-1-1"
         x="253.68776"
         y="294.51166"
         style="font-size:4.58611107px;stroke-width:0.26458332">2000 m</tspan></text>
    <text
       xml:space="preserve"
       style="font-style:normal;font-weight:normal;font-size:7.76111126px;line-height:1.25;font-family:sans-serif;text-align:center;letter-spacing:0px;word-spacing:0px;text-anchor:middle;fill:#000000;fill-opacity:1;stroke:none;stroke-width:0.26458332"
       x="279.73035"
       y="294.51166"
       id="text3870-4-4-7-2-6"><tspan
         sodipodi:role="line"
         id="tspan3868-3-9-1-1-8"
         x="279.73035"
         y="294.51166"
         style="font-size:4.58611107px;stroke-width:0.26458332">1550 m</tspan></text>
    <text
       xml:space="preserve"
       style="font-style:normal;font-weight:normal;font-size:7.76111126px;line-height:1.25;font-family:sans-serif;text-align:center;letter-spacing:0px;word-spacing:0px;text-anchor:middle;fill:#000000;fill-opacity:1;stroke:none;stroke-width:0.26458332"
       x="18.464848"
       y="294.51166"
       id="text3870-4-4-7-2-6-0"><tspan
         sodipodi:role="line"
         id="tspan3868-3-9-1-1-8-4"
         x="18.464848"
         y="294.51166"
         style="font-size:4.58611107px;stroke-width:0.26458332">1550 m</tspan></text>
    <text
       xml:space="preserve"
       style="font-style:normal;font-weight:normal;font-size:7.76111126px;line-height:1.25;font-family:sans-serif;text-align:center;letter-spacing:0px;word-spacing:0px;text-anchor:middle;fill:#000000;fill-opacity:1;stroke:none;stroke-width:0.26458332"
       x="70.801918"
       y="294.51166"
       id="text3870-4-4-7-2-4"><tspan
         sodipodi:role="line"
         id="tspan3868-3-9-1-1-4"
         x="70.801918"
         y="294.51166"
         style="font-size:4.58611107px;stroke-width:0.26458332">2000 m</tspan></text>
    <text
       xml:space="preserve"
       style="font-style:normal;font-weight:normal;font-size:7.76111126px;line-height:1.25;font-family:sans-serif;text-align:center;letter-spacing:0px;word-spacing:0px;text-anchor:middle;fill:#000000;fill-opacity:1;stroke:none;stroke-width:0.26458332"
       x="96.928467"
       y="294.51166"
       id="text3870-4-4-8"><tspan
         sodipodi:role="line"
         id="tspan3868-3-9-9"
         x="96.928467"
         y="294.51166"
         style="font-size:4.58611107px;stroke-width:0.26458332">2690 m</tspan></text>
    <text
       xml:space="preserve"
       style="font-style:normal;font-weight:normal;font-size:7.76111126px;line-height:1.25;font-family:sans-serif;text-align:center;letter-spacing:0px;word-spacing:0px;text-anchor:middle;fill:#000000;fill-opacity:1;stroke:none;stroke-width:0.26458332"
       x="149.18156"
       y="294.51166"
       id="text3870-4-4-7-0"><tspan
         sodipodi:role="line"
         id="tspan3868-3-9-1-6"
         x="149.18156"
         y="294.51166"
         style="font-size:4.58611107px;stroke-width:0.26458332">2200 m</tspan></text>
    <text
       xml:space="preserve"
       style="font-style:normal;font-weight:normal;font-size:7.76111126px;line-height:1.25;font-family:sans-serif;text-align:center;letter-spacing:0px;word-spacing:0px;text-anchor:middle;fill:#000000;fill-opacity:1;stroke:none;stroke-width:0.26458332"
       x="175.30812"
       y="294.51166"
       id="text3870-4-4-7-0-0"><tspan
         sodipodi:role="line"
         id="tspan3868-3-9-1-6-5"
         x="175.30812"
         y="294.51166"
         style="font-size:4.58611107px;stroke-width:0.26458332">2350 m</tspan></text>
  </g>
</svg>
