<?xml version="1.0" encoding="UTF-8" standalone="no"?>
<!DOCTYPE svg PUBLIC "-//W3C//DTD SVG 1.1//EN"
 "http://www.w3.org/Graphics/SVG/1.1/DTD/svg11.dtd">
<!-- Generated by graphviz version 2.38.0 (20140413.2041)
 -->
<!-- Title: G Pages: 1 -->
<svg width="134pt" height="184pt"
 viewBox="0.00 0.00 134.00 184.00" xmlns="http://www.w3.org/2000/svg" xmlns:xlink="http://www.w3.org/1999/xlink">
<g id="graph0" class="graph" transform="scale(1 1) rotate(0) translate(4 180)">
<title>G</title>
<polygon fill="white" stroke="none" points="-4,4 -4,-180 130,-180 130,4 -4,4"/>
<!-- ICloneable -->
<g id="node1" class="node"><title>ICloneable</title>
<polygon fill="none" stroke="black" points="8,-121.5 8,-171.5 118,-171.5 118,-121.5 8,-121.5"/>
<text text-anchor="start" x="22.5" y="-150.3" font-family="Times New Roman,serif" font-size="14.00">&lt;&lt;interface&gt;&gt;</text>
<text text-anchor="start" x="29.5" y="-136.3" font-family="Times New Roman,serif" font-weight="bold" font-size="14.00">ICloneable</text>
<polygon fill="none" stroke="black" points="8,-84.5 8,-121.5 118,-121.5 118,-84.5 8,-84.5"/>
<text text-anchor="start" x="19" y="-99.3" font-family="Times New Roman,serif" font-size="14.00">Clone() : object</text>
</g>
<!-- MiClase -->
<g id="node2" class="node"><title>MiClase</title>
<polygon fill="none" stroke="black" points="26,-3.5 26,-40.5 100,-40.5 100,-3.5 26,-3.5"/>
<text text-anchor="start" x="37" y="-19.3" font-family="Times New Roman,serif" font-weight="bold" font-size="14.00">MiClase</text>
</g>
<!-- MiClase&#45;&gt;ICloneable -->
<g id="edge1" class="edge"><title>MiClase&#45;&gt;ICloneable</title>
<path fill="none" stroke="black" stroke-dasharray="5,2" d="M63,-45.0489C63,-52.5705 63,-61.4046 63,-70.4445"/>
<polygon fill="none" stroke="black" points="59.5001,-70.6791 63,-80.6792 66.5001,-70.6792 59.5001,-70.6791"/>
</g>
</g>
</svg>
