<?xml version="1.0" encoding="UTF-8" standalone="no"?>
<!DOCTYPE svg PUBLIC "-//W3C//DTD SVG 1.1//EN"
 "http://www.w3.org/Graphics/SVG/1.1/DTD/svg11.dtd">
<!-- Generated by graphviz version 2.38.0 (20140413.2041)
 -->
<!-- Title: G Pages: 1 -->
<svg width="176pt" height="229pt"
 viewBox="0.00 0.00 175.50 229.00" xmlns="http://www.w3.org/2000/svg" xmlns:xlink="http://www.w3.org/1999/xlink">
<g id="graph0" class="graph" transform="scale(1 1) rotate(0) translate(4 225)">
<title>G</title>
<polygon fill="white" stroke="none" points="-4,4 -4,-225 171.5,-225 171.5,4 -4,4"/>
<!-- IMedia -->
<g id="node1" class="node"><title>IMedia</title>
<polygon fill="none" stroke="black" points="16,-167 16,-217 150,-217 150,-167 16,-167"/>
<text text-anchor="start" x="42.5" y="-195.8" font-family="Times New Roman,serif" font-size="14.00">&lt;&lt;interface&gt;&gt;</text>
<text text-anchor="start" x="60.5" y="-181.8" font-family="Times New Roman,serif" font-weight="bold" font-size="14.00">IMedia</text>
<polygon fill="none" stroke="black" points="16,-85 16,-167 150,-167 150,-85 16,-85"/>
<text text-anchor="start" x="27" y="-144.8" font-family="Times New Roman,serif" font-size="14.00">Play() : void</text>
<text text-anchor="start" x="27" y="-129.8" font-family="Times New Roman,serif" font-size="14.00">Stop() : void</text>
<text text-anchor="start" x="27" y="-114.8" font-family="Times New Roman,serif" font-size="14.00">Pause() : void</text>
<text text-anchor="start" x="27" y="-99.8" font-family="Times New Roman,serif" font-size="14.00">GetDuracion() : unit</text>
</g>
<!-- Video -->
<g id="node2" class="node"><title>Video</title>
<polygon fill="none" stroke="black" points="8,-3.5 8,-40.5 66,-40.5 66,-3.5 8,-3.5"/>
<text text-anchor="start" x="19" y="-19.3" font-family="Times New Roman,serif" font-weight="bold" font-size="14.00">Video</text>
</g>
<!-- Video&#45;&gt;IMedia -->
<g id="edge1" class="edge"><title>Video&#45;&gt;IMedia</title>
<path fill="none" stroke="black" d="M44.9077,-45.2461C47.6627,-52.8224 50.9349,-61.8211 54.3868,-71.3138"/>
<polygon fill="none" stroke="black" points="51.1794,-72.7351 57.8862,-80.9369 57.7579,-70.3429 51.1794,-72.7351"/>
</g>
<!-- Audio -->
<g id="node3" class="node"><title>Audio</title>
<polygon fill="none" stroke="black" points="101,-3.5 101,-40.5 160,-40.5 160,-3.5 101,-3.5"/>
<text text-anchor="start" x="112" y="-19.3" font-family="Times New Roman,serif" font-weight="bold" font-size="14.00">Audio</text>
</g>
<!-- Audio&#45;&gt;IMedia -->
<g id="edge2" class="edge"><title>Audio&#45;&gt;IMedia</title>
<path fill="none" stroke="black" d="M121.92,-45.2461C119.106,-52.8224 115.762,-61.8211 112.235,-71.3138"/>
<polygon fill="none" stroke="black" points="108.862,-70.344 108.66,-80.9369 115.424,-72.782 108.862,-70.344"/>
</g>
</g>
</svg>
