<?xml version="1.0" encoding="UTF-8" standalone="no"?><svg xmlns="http://www.w3.org/2000/svg" xmlns:xlink="http://www.w3.org/1999/xlink" contentScriptType="application/ecmascript" contentStyleType="text/css" height="692px" preserveAspectRatio="none" style="width:782px;height:692px;" version="1.1" viewBox="0 0 782 692" width="782px" zoomAndPan="magnify"><defs><filter height="300%" id="fdtuw5nmfmith" width="300%" x="-1" y="-1"><feGaussianBlur result="blurOut" stdDeviation="2.0"/><feColorMatrix in="blurOut" result="blurOut2" type="matrix" values="0 0 0 0 0 0 0 0 0 0 0 0 0 0 0 0 0 0 .4 0"/><feOffset dx="4.0" dy="4.0" in="blurOut2" result="blurOut3"/><feBlend in="SourceGraphic" in2="blurOut3" mode="normal"/></filter></defs><g><!--cluster Program.exe--><polygon fill="#F5F5F5" filter="url(#fdtuw5nmfmith)" points="392,24,487,24,494,47.6094,552,47.6094,552,224,392,224,392,24" style="stroke: #000000; stroke-width: 1.5;"/><line style="stroke: #000000; stroke-width: 1.5;" x1="392" x2="494" y1="47.6094" y2="47.6094"/><text fill="#000000" font-family="sans-serif" font-size="14" font-weight="bold" lengthAdjust="spacingAndGlyphs" textLength="89" x="396" y="40.5332">Program.exe</text><text fill="#000000" font-family="sans-serif" font-size="14" font-style="italic" lengthAdjust="spacingAndGlyphs" textLength="84" x="434" y="64.1426">«executable»</text><!--cluster Program--><polygon fill="#FFFFFF" filter="url(#fdtuw5nmfmith)" points="416,86,481,86,488,109.6094,528,109.6094,528,200,416,200,416,86" style="stroke: #000000; stroke-width: 1.5;"/><line style="stroke: #000000; stroke-width: 1.5;" x1="416" x2="488" y1="109.6094" y2="109.6094"/><text fill="#000000" font-family="sans-serif" font-size="14" font-weight="bold" lengthAdjust="spacingAndGlyphs" textLength="59" x="420" y="102.5332">Program</text><!--cluster MyLibrary1.dll--><polygon fill="#F5F5F5" filter="url(#fdtuw5nmfmith)" points="22,274,125,274,132,297.6094,473,297.6094,473,680,22,680,22,274" style="stroke: #000000; stroke-width: 1.5;"/><line style="stroke: #000000; stroke-width: 1.5;" x1="22" x2="132" y1="297.6094" y2="297.6094"/><text fill="#000000" font-family="sans-serif" font-size="14" font-weight="bold" lengthAdjust="spacingAndGlyphs" textLength="97" x="26" y="290.5332">MyLibrary1.dll</text><text fill="#000000" font-family="sans-serif" font-size="14" font-style="italic" lengthAdjust="spacingAndGlyphs" textLength="55" x="224" y="314.1426">«library»</text><!--cluster MyLibrary1--><polygon fill="#FFFFFF" filter="url(#fdtuw5nmfmith)" points="46,336,128,336,135,359.6094,449,359.6094,449,656,46,656,46,336" style="stroke: #000000; stroke-width: 1.5;"/><line style="stroke: #000000; stroke-width: 1.5;" x1="46" x2="135" y1="359.6094" y2="359.6094"/><text fill="#000000" font-family="sans-serif" font-size="14" font-weight="bold" lengthAdjust="spacingAndGlyphs" textLength="76" x="50" y="352.5332">MyLibrary1</text><!--cluster MyLibrary1.Utilities--><polygon fill="#F5F5F5" filter="url(#fdtuw5nmfmith)" points="70,510,129,510,136,533.6094,425,533.6094,425,632,70,632,70,510" style="stroke: #000000; stroke-width: 1.5;"/><line style="stroke: #000000; stroke-width: 1.5;" x1="70" x2="136" y1="533.6094" y2="533.6094"/><text fill="#000000" font-family="sans-serif" font-size="14" font-weight="bold" lengthAdjust="spacingAndGlyphs" textLength="53" x="74" y="526.5332">Utilities</text><!--cluster MyLibrary2.dll--><polygon fill="#F5F5F5" filter="url(#fdtuw5nmfmith)" points="497,274,600,274,607,297.6094,760,297.6094,760,460,497,460,497,274" style="stroke: #000000; stroke-width: 1.5;"/><line style="stroke: #000000; stroke-width: 1.5;" x1="497" x2="607" y1="297.6094" y2="297.6094"/><text fill="#000000" font-family="sans-serif" font-size="14" font-weight="bold" lengthAdjust="spacingAndGlyphs" textLength="97" x="501" y="290.5332">MyLibrary2.dll</text><text fill="#000000" font-family="sans-serif" font-size="14" font-style="italic" lengthAdjust="spacingAndGlyphs" textLength="55" x="605" y="314.1426">«library»</text><!--cluster MyLibrary2--><polygon fill="#FFFFFF" filter="url(#fdtuw5nmfmith)" points="521,336,603,336,610,359.6094,736,359.6094,736,436,521,436,521,336" style="stroke: #000000; stroke-width: 1.5;"/><line style="stroke: #000000; stroke-width: 1.5;" x1="521" x2="610" y1="359.6094" y2="359.6094"/><text fill="#000000" font-family="sans-serif" font-size="14" font-weight="bold" lengthAdjust="spacingAndGlyphs" textLength="76" x="525" y="352.5332">MyLibrary2</text><!--class Program.Program--><rect fill="#FFFAFA" filter="url(#fdtuw5nmfmith)" height="61.8359" id="Program.Program" style="stroke: #000000; stroke-width: 1.5;" width="80" x="432" y="122"/><ellipse cx="447" cy="138" fill="#ADD1B2" rx="11" ry="11" style="stroke: #000000; stroke-width: 1.0;"/><path d="M449.7656,133.875 Q449.9219,133.6563 450.1094,133.5469 Q450.2969,133.4375 450.5156,133.4375 Q450.8906,133.4375 451.125,133.6953 Q451.3594,133.9531 451.3594,134.5625 L451.3594,136.0156 Q451.3594,136.625 451.125,136.8906 Q450.8906,137.1563 450.5156,137.1563 Q450.1719,137.1563 449.9688,136.9531 Q449.7656,136.7656 449.6563,136.25 Q449.6094,135.8906 449.4219,135.7031 Q449.0938,135.3281 448.4844,135.1094 Q447.875,134.8906 447.25,134.8906 Q446.4844,134.8906 445.8516,135.2188 Q445.2188,135.5469 444.7266,136.2969 Q444.2344,137.0469 444.2344,138.0781 L444.2344,139.1719 Q444.2344,140.4063 445.125,141.2266 Q446.0156,142.0469 447.6094,142.0469 Q448.5469,142.0469 449.2031,141.7969 Q449.5938,141.6406 450.0156,141.2031 Q450.2813,140.9375 450.4297,140.8594 Q450.5781,140.7813 450.7813,140.7813 Q451.1094,140.7813 451.3672,141.0391 Q451.625,141.2969 451.625,141.6406 Q451.625,141.9844 451.2813,142.3906 Q450.7813,142.9688 449.9844,143.2969 Q448.9063,143.75 447.6094,143.75 Q446.0938,143.75 444.8906,143.125 Q443.9063,142.625 443.2188,141.5547 Q442.5313,140.4844 442.5313,139.2031 L442.5313,138.0469 Q442.5313,136.7188 443.1484,135.5703 Q443.7656,134.4219 444.8594,133.8047 Q445.9531,133.1875 447.1875,133.1875 Q447.9219,133.1875 448.5703,133.3516 Q449.2188,133.5156 449.7656,133.875 Z "/><text fill="#000000" font-family="sans-serif" font-size="12" lengthAdjust="spacingAndGlyphs" textLength="48" x="461" y="142.9102">Program</text><line style="stroke: #000000; stroke-width: 1.5;" x1="433" x2="511" y1="154" y2="154"/><line style="stroke: #000000; stroke-width: 1.5;" x1="433" x2="511" y1="162" y2="162"/><text fill="#000000" font-family="sans-serif" font-size="11" lengthAdjust="spacingAndGlyphs" text-decoration="underline" textLength="63" x="438" y="177.4189">-Main() : void</text><!--class MyLibrary1.ClassA--><rect fill="#FFFAFA" filter="url(#fdtuw5nmfmith)" height="48" id="MyLibrary1.ClassA" style="stroke: #000000; stroke-width: 1.5;" width="72" x="338" y="372"/><ellipse cx="353" cy="388" fill="#ADD1B2" rx="11" ry="11" style="stroke: #000000; stroke-width: 1.0;"/><path d="M355.7656,383.875 Q355.9219,383.6563 356.1094,383.5469 Q356.2969,383.4375 356.5156,383.4375 Q356.8906,383.4375 357.125,383.6953 Q357.3594,383.9531 357.3594,384.5625 L357.3594,386.0156 Q357.3594,386.625 357.125,386.8906 Q356.8906,387.1563 356.5156,387.1563 Q356.1719,387.1563 355.9688,386.9531 Q355.7656,386.7656 355.6563,386.25 Q355.6094,385.8906 355.4219,385.7031 Q355.0938,385.3281 354.4844,385.1094 Q353.875,384.8906 353.25,384.8906 Q352.4844,384.8906 351.8516,385.2188 Q351.2188,385.5469 350.7266,386.2969 Q350.2344,387.0469 350.2344,388.0781 L350.2344,389.1719 Q350.2344,390.4063 351.125,391.2266 Q352.0156,392.0469 353.6094,392.0469 Q354.5469,392.0469 355.2031,391.7969 Q355.5938,391.6406 356.0156,391.2031 Q356.2813,390.9375 356.4297,390.8594 Q356.5781,390.7813 356.7813,390.7813 Q357.1094,390.7813 357.3672,391.0391 Q357.625,391.2969 357.625,391.6406 Q357.625,391.9844 357.2813,392.3906 Q356.7813,392.9688 355.9844,393.2969 Q354.9063,393.75 353.6094,393.75 Q352.0938,393.75 350.8906,393.125 Q349.9063,392.625 349.2188,391.5547 Q348.5313,390.4844 348.5313,389.2031 L348.5313,388.0469 Q348.5313,386.7188 349.1484,385.5703 Q349.7656,384.4219 350.8594,383.8047 Q351.9531,383.1875 353.1875,383.1875 Q353.9219,383.1875 354.5703,383.3516 Q355.2188,383.5156 355.7656,383.875 Z "/><text fill="#000000" font-family="sans-serif" font-size="12" lengthAdjust="spacingAndGlyphs" textLength="40" x="367" y="392.9102">ClassA</text><line style="stroke: #000000; stroke-width: 1.5;" x1="339" x2="409" y1="404" y2="404"/><line style="stroke: #000000; stroke-width: 1.5;" x1="339" x2="409" y1="412" y2="412"/><!--class MyLibrary1.ClassB--><rect fill="#FFFAFA" filter="url(#fdtuw5nmfmith)" height="48" id="MyLibrary1.ClassB" style="stroke: #000000; stroke-width: 1.5;" width="73" x="90.5" y="372"/><ellipse cx="105.5" cy="388" fill="#ADD1B2" rx="11" ry="11" style="stroke: #000000; stroke-width: 1.0;"/><path d="M108.2656,383.875 Q108.4219,383.6563 108.6094,383.5469 Q108.7969,383.4375 109.0156,383.4375 Q109.3906,383.4375 109.625,383.6953 Q109.8594,383.9531 109.8594,384.5625 L109.8594,386.0156 Q109.8594,386.625 109.625,386.8906 Q109.3906,387.1563 109.0156,387.1563 Q108.6719,387.1563 108.4688,386.9531 Q108.2656,386.7656 108.1563,386.25 Q108.1094,385.8906 107.9219,385.7031 Q107.5938,385.3281 106.9844,385.1094 Q106.375,384.8906 105.75,384.8906 Q104.9844,384.8906 104.3516,385.2188 Q103.7188,385.5469 103.2266,386.2969 Q102.7344,387.0469 102.7344,388.0781 L102.7344,389.1719 Q102.7344,390.4063 103.625,391.2266 Q104.5156,392.0469 106.1094,392.0469 Q107.0469,392.0469 107.7031,391.7969 Q108.0938,391.6406 108.5156,391.2031 Q108.7813,390.9375 108.9297,390.8594 Q109.0781,390.7813 109.2813,390.7813 Q109.6094,390.7813 109.8672,391.0391 Q110.125,391.2969 110.125,391.6406 Q110.125,391.9844 109.7813,392.3906 Q109.2813,392.9688 108.4844,393.2969 Q107.4063,393.75 106.1094,393.75 Q104.5938,393.75 103.3906,393.125 Q102.4063,392.625 101.7188,391.5547 Q101.0313,390.4844 101.0313,389.2031 L101.0313,388.0469 Q101.0313,386.7188 101.6484,385.5703 Q102.2656,384.4219 103.3594,383.8047 Q104.4531,383.1875 105.6875,383.1875 Q106.4219,383.1875 107.0703,383.3516 Q107.7188,383.5156 108.2656,383.875 Z "/><text fill="#000000" font-family="sans-serif" font-size="12" lengthAdjust="spacingAndGlyphs" textLength="41" x="119.5" y="392.9102">ClassB</text><line style="stroke: #000000; stroke-width: 1.5;" x1="91.5" x2="162.5" y1="404" y2="404"/><line style="stroke: #000000; stroke-width: 1.5;" x1="91.5" x2="162.5" y1="412" y2="412"/><!--class MyLibrary1.Utilities.ClassU1--><rect fill="#FFFAFA" filter="url(#fdtuw5nmfmith)" height="70.0234" id="MyLibrary1.Utilities.ClassU1" style="stroke: #000000; stroke-width: 1.5;" width="206" x="203" y="546"/><ellipse cx="277.25" cy="566.0938" fill="#ADFF2F" rx="11" ry="11" style="stroke: #000000; stroke-width: 1.0;"/><path d="M281.7344,563.4844 L281.7344,568.3125 Q281.7344,569.8906 280.6016,570.9922 Q279.4688,572.0938 277.875,572.0938 Q277.0938,572.0938 276.3984,571.8125 Q275.7031,571.5313 275.1484,570.9922 Q274.5938,570.4531 274.2891,569.8672 Q273.9844,569.2813 273.9844,568.3125 L273.9844,563.4844 Q273.4531,563.4844 273.1953,563.2422 Q272.9375,563 272.9375,562.625 Q272.9375,562.25 273.1953,562.0156 Q273.4531,561.7813 274.0625,561.7813 L276.2969,561.7813 Q276.9219,561.7813 277.1797,562.0156 Q277.4375,562.25 277.4375,562.625 Q277.4375,563.0156 277.1797,563.25 Q276.9219,563.4844 276.2969,563.4844 L275.6875,563.4844 L275.6875,568.4531 Q275.6875,569.2188 276.3203,569.8047 Q276.9531,570.3906 277.8594,570.3906 Q278.4531,570.3906 278.9766,570.1094 Q279.5,569.8281 279.8281,569.2813 Q280.0313,568.9531 280.0313,568.4531 L280.0313,563.4844 L279.4219,563.4844 Q278.8125,563.4844 278.5469,563.25 Q278.2813,563.0156 278.2813,562.625 Q278.2813,562.25 278.5469,562.0156 Q278.8125,561.7813 279.4219,561.7813 L281.6563,561.7813 Q282.2656,561.7813 282.5313,562.0156 Q282.7969,562.25 282.7969,562.625 Q282.7969,563 282.5391,563.2422 Q282.2813,563.4844 281.7344,563.4844 Z "/><text fill="#000000" font-family="sans-serif" font-size="12" font-style="italic" lengthAdjust="spacingAndGlyphs" textLength="42" x="301.25" y="563.457">«utility»</text><text fill="#000000" font-family="sans-serif" font-size="12" lengthAdjust="spacingAndGlyphs" textLength="49" x="297.75" y="578.5508">ClassU1</text><line style="stroke: #000000; stroke-width: 1.5;" x1="204" x2="408" y1="586.1875" y2="586.1875"/><line style="stroke: #000000; stroke-width: 1.5;" x1="204" x2="408" y1="594.1875" y2="594.1875"/><text fill="#000000" font-family="sans-serif" font-size="11" lengthAdjust="spacingAndGlyphs" text-decoration="underline" textLength="194" x="209" y="609.6064">+Utility1( p1: Type1, p2: Type2, ...) : void</text><!--class MyLibrary1.Utilities.ClassU2--><rect fill="#FFFAFA" filter="url(#fdtuw5nmfmith)" height="48" id="MyLibrary1.Utilities.ClassU2" style="stroke: #000000; stroke-width: 1.5;" width="81" x="86.5" y="557"/><ellipse cx="101.5" cy="573" fill="#ADD1B2" rx="11" ry="11" style="stroke: #000000; stroke-width: 1.0;"/><path d="M104.2656,568.875 Q104.4219,568.6563 104.6094,568.5469 Q104.7969,568.4375 105.0156,568.4375 Q105.3906,568.4375 105.625,568.6953 Q105.8594,568.9531 105.8594,569.5625 L105.8594,571.0156 Q105.8594,571.625 105.625,571.8906 Q105.3906,572.1563 105.0156,572.1563 Q104.6719,572.1563 104.4688,571.9531 Q104.2656,571.7656 104.1563,571.25 Q104.1094,570.8906 103.9219,570.7031 Q103.5938,570.3281 102.9844,570.1094 Q102.375,569.8906 101.75,569.8906 Q100.9844,569.8906 100.3516,570.2188 Q99.7188,570.5469 99.2266,571.2969 Q98.7344,572.0469 98.7344,573.0781 L98.7344,574.1719 Q98.7344,575.4063 99.625,576.2266 Q100.5156,577.0469 102.1094,577.0469 Q103.0469,577.0469 103.7031,576.7969 Q104.0938,576.6406 104.5156,576.2031 Q104.7813,575.9375 104.9297,575.8594 Q105.0781,575.7813 105.2813,575.7813 Q105.6094,575.7813 105.8672,576.0391 Q106.125,576.2969 106.125,576.6406 Q106.125,576.9844 105.7813,577.3906 Q105.2813,577.9688 104.4844,578.2969 Q103.4063,578.75 102.1094,578.75 Q100.5938,578.75 99.3906,578.125 Q98.4063,577.625 97.7188,576.5547 Q97.0313,575.4844 97.0313,574.2031 L97.0313,573.0469 Q97.0313,571.7188 97.6484,570.5703 Q98.2656,569.4219 99.3594,568.8047 Q100.4531,568.1875 101.6875,568.1875 Q102.4219,568.1875 103.0703,568.3516 Q103.7188,568.5156 104.2656,568.875 Z "/><text fill="#000000" font-family="sans-serif" font-size="12" lengthAdjust="spacingAndGlyphs" textLength="49" x="115.5" y="577.9102">ClassU2</text><line style="stroke: #000000; stroke-width: 1.5;" x1="87.5" x2="166.5" y1="589" y2="589"/><line style="stroke: #000000; stroke-width: 1.5;" x1="87.5" x2="166.5" y1="597" y2="597"/><!--class MyLibrary2.ClassC--><rect fill="#FFFAFA" filter="url(#fdtuw5nmfmith)" height="48" id="MyLibrary2.ClassC" style="stroke: #000000; stroke-width: 1.5;" width="74" x="646" y="372"/><ellipse cx="661" cy="388" fill="#ADD1B2" rx="11" ry="11" style="stroke: #000000; stroke-width: 1.0;"/><path d="M663.7656,383.875 Q663.9219,383.6563 664.1094,383.5469 Q664.2969,383.4375 664.5156,383.4375 Q664.8906,383.4375 665.125,383.6953 Q665.3594,383.9531 665.3594,384.5625 L665.3594,386.0156 Q665.3594,386.625 665.125,386.8906 Q664.8906,387.1563 664.5156,387.1563 Q664.1719,387.1563 663.9688,386.9531 Q663.7656,386.7656 663.6563,386.25 Q663.6094,385.8906 663.4219,385.7031 Q663.0938,385.3281 662.4844,385.1094 Q661.875,384.8906 661.25,384.8906 Q660.4844,384.8906 659.8516,385.2188 Q659.2188,385.5469 658.7266,386.2969 Q658.2344,387.0469 658.2344,388.0781 L658.2344,389.1719 Q658.2344,390.4063 659.125,391.2266 Q660.0156,392.0469 661.6094,392.0469 Q662.5469,392.0469 663.2031,391.7969 Q663.5938,391.6406 664.0156,391.2031 Q664.2813,390.9375 664.4297,390.8594 Q664.5781,390.7813 664.7813,390.7813 Q665.1094,390.7813 665.3672,391.0391 Q665.625,391.2969 665.625,391.6406 Q665.625,391.9844 665.2813,392.3906 Q664.7813,392.9688 663.9844,393.2969 Q662.9063,393.75 661.6094,393.75 Q660.0938,393.75 658.8906,393.125 Q657.9063,392.625 657.2188,391.5547 Q656.5313,390.4844 656.5313,389.2031 L656.5313,388.0469 Q656.5313,386.7188 657.1484,385.5703 Q657.7656,384.4219 658.8594,383.8047 Q659.9531,383.1875 661.1875,383.1875 Q661.9219,383.1875 662.5703,383.3516 Q663.2188,383.5156 663.7656,383.875 Z "/><text fill="#000000" font-family="sans-serif" font-size="12" lengthAdjust="spacingAndGlyphs" textLength="42" x="675" y="392.9102">ClassC</text><line style="stroke: #000000; stroke-width: 1.5;" x1="647" x2="719" y1="404" y2="404"/><line style="stroke: #000000; stroke-width: 1.5;" x1="647" x2="719" y1="412" y2="412"/><!--class MyLibrary2.ClassD--><rect fill="#FFFAFA" filter="url(#fdtuw5nmfmith)" height="48" id="MyLibrary2.ClassD" style="stroke: #000000; stroke-width: 1.5;" width="74" x="537" y="372"/><ellipse cx="552" cy="388" fill="#ADD1B2" rx="11" ry="11" style="stroke: #000000; stroke-width: 1.0;"/><path d="M554.7656,383.875 Q554.9219,383.6563 555.1094,383.5469 Q555.2969,383.4375 555.5156,383.4375 Q555.8906,383.4375 556.125,383.6953 Q556.3594,383.9531 556.3594,384.5625 L556.3594,386.0156 Q556.3594,386.625 556.125,386.8906 Q555.8906,387.1563 555.5156,387.1563 Q555.1719,387.1563 554.9688,386.9531 Q554.7656,386.7656 554.6563,386.25 Q554.6094,385.8906 554.4219,385.7031 Q554.0938,385.3281 553.4844,385.1094 Q552.875,384.8906 552.25,384.8906 Q551.4844,384.8906 550.8516,385.2188 Q550.2188,385.5469 549.7266,386.2969 Q549.2344,387.0469 549.2344,388.0781 L549.2344,389.1719 Q549.2344,390.4063 550.125,391.2266 Q551.0156,392.0469 552.6094,392.0469 Q553.5469,392.0469 554.2031,391.7969 Q554.5938,391.6406 555.0156,391.2031 Q555.2813,390.9375 555.4297,390.8594 Q555.5781,390.7813 555.7813,390.7813 Q556.1094,390.7813 556.3672,391.0391 Q556.625,391.2969 556.625,391.6406 Q556.625,391.9844 556.2813,392.3906 Q555.7813,392.9688 554.9844,393.2969 Q553.9063,393.75 552.6094,393.75 Q551.0938,393.75 549.8906,393.125 Q548.9063,392.625 548.2188,391.5547 Q547.5313,390.4844 547.5313,389.2031 L547.5313,388.0469 Q547.5313,386.7188 548.1484,385.5703 Q548.7656,384.4219 549.8594,383.8047 Q550.9531,383.1875 552.1875,383.1875 Q552.9219,383.1875 553.5703,383.3516 Q554.2188,383.5156 554.7656,383.875 Z "/><text fill="#000000" font-family="sans-serif" font-size="12" lengthAdjust="spacingAndGlyphs" textLength="42" x="566" y="392.9102">ClassD</text><line style="stroke: #000000; stroke-width: 1.5;" x1="538" x2="610" y1="404" y2="404"/><line style="stroke: #000000; stroke-width: 1.5;" x1="538" x2="610" y1="412" y2="412"/><!--link Program.Program to MyLibrary1.ClassA--><path d="M459.786,184.036 C440.677,231.029 403.977,321.28 385.389,366.993 " fill="none" id="Program.Program-&gt;MyLibrary1.ClassA" style="stroke: #000000; stroke-width: 1.0; stroke-dasharray: 7.0,7.0;"/><polygon fill="#000000" points="383.431,371.808,390.5278,364.9789,385.3153,367.1766,383.1176,361.9641,383.431,371.808" style="stroke: #000000; stroke-width: 1.0;"/><text fill="#000000" font-family="sans-serif" font-size="13" lengthAdjust="spacingAndGlyphs" textLength="42" x="435" y="254.4951">«uses»</text><!--link MyLibrary1.ClassB to MyLibrary1.Utilities.ClassU2--><path d="M127,420.177 C127,453.636 127,515.414 127,551.579 " fill="none" id="MyLibrary1.ClassB-&gt;MyLibrary1.Utilities.ClassU2" style="stroke: #000000; stroke-width: 1.0; stroke-dasharray: 7.0,7.0;"/><polygon fill="#000000" points="127,556.723,131,547.723,127,551.723,123,547.723,127,556.723" style="stroke: #000000; stroke-width: 1.0;"/><text fill="#000000" font-family="sans-serif" font-size="13" lengthAdjust="spacingAndGlyphs" textLength="42" x="128" y="490.4951">«uses»</text><!--link MyLibrary1.ClassA to MyLibrary1.Utilities.ClassU1--><path d="M365.388,420.177 C354.101,450.552 334.142,504.265 320.504,540.967 " fill="none" id="MyLibrary1.ClassA-&gt;MyLibrary1.Utilities.ClassU1" style="stroke: #000000; stroke-width: 1.0; stroke-dasharray: 7.0,7.0;"/><polygon fill="#000000" points="318.707,545.804,325.5929,538.7624,320.4496,541.1175,318.0945,535.9742,318.707,545.804" style="stroke: #000000; stroke-width: 1.0;"/><text fill="#000000" font-family="sans-serif" font-size="13" lengthAdjust="spacingAndGlyphs" textLength="42" x="345" y="490.4951">«uses»</text><!--link Program.Program to MyLibrary2.ClassC--><path d="M512.272,174.361 C547.2,193.781 597.037,225.968 629,266 C653.102,296.186 668.103,338.676 676.006,366.518 " fill="none" id="Program.Program-&gt;MyLibrary2.ClassC" style="stroke: #000000; stroke-width: 1.0; stroke-dasharray: 7.0,7.0;"/><polygon fill="#000000" points="677.4,371.54,678.8478,361.7981,676.063,366.7221,671.1391,363.9373,677.4,371.54" style="stroke: #000000; stroke-width: 1.0;"/><text fill="#000000" font-family="sans-serif" font-size="13" lengthAdjust="spacingAndGlyphs" textLength="42" x="619" y="254.4951">«uses»</text><!--link MyLibrary2.ClassC to MyLibrary1.Utilities.ClassU1--><path d="M670.394,420.019 C660.852,435.521 646.43,455.367 629,468 C565.302,514.168 480.976,542.552 414.459,559.192 " fill="none" id="MyLibrary2.ClassC-&gt;MyLibrary1.Utilities.ClassU1" style="stroke: #000000; stroke-width: 1.0; stroke-dasharray: 7.0,7.0;"/><polygon fill="#000000" points="409.297,560.469,418.9939,562.1923,414.1509,559.2691,417.0741,554.4261,409.297,560.469" style="stroke: #000000; stroke-width: 1.0;"/><text fill="#000000" font-family="sans-serif" font-size="13" lengthAdjust="spacingAndGlyphs" textLength="42" x="614" y="490.4951">«uses»</text><!--
@startuml paquetes

skinparam ArrowColor Black
skinparam PackageBackgroundColor WhiteSmoke
skinparam ClassBorderColor Black
skinparam ClassBackgroundColor Snow
skinparam ClassAttributeIconSize 0

package Program.exe <<executable>> {
  namespace Program  #DDDDD {
    class Program {
      - {static} Main() : void
    }
  }
}

package MyLibrary1.dll <<library>> {
  namespace MyLibrary1 #DDDDD {
    class ClassA { 
    }
    class ClassB { 
    }
    namespace MyLibrary1.Utilities {
      class ClassU1 <<U, GreenYellow>><<utility>> { 
        + {static} Utility1( p1: Type1, p2: Type2, ...) : void
      }    
      class ClassU2 { 
      }    
    }
  }
  Program.Program ..> MyLibrary1.ClassA : <<uses>>
  MyLibrary1.ClassB ..> MyLibrary1.Utilities.ClassU2 : <<uses>>
  MyLibrary1.ClassA ..>  MyLibrary1.Utilities.ClassU1 : <<uses>>
}

package MyLibrary2.dll <<library>> {
  namespace MyLibrary2 #DDDDD {
    class ClassC { 
    }
    class ClassD { 
    }
    Program.Program ..> ClassC : <<uses>>
    MyLibrary2.ClassC ..> MyLibrary1.Utilities.ClassU1 : <<uses>>
  }
}

@enduml

PlantUML version 1.2019.09(Mon Aug 26 18:19:51 CEST 2019)
(GPL source distribution)
Java Runtime: Java(TM) SE Runtime Environment
JVM: Java HotSpot(TM) 64-Bit Server VM
Java Version: 1.8.0_241-b07
Operating System: Windows 10
OS Version: 10.0
Default Encoding: Cp1252
Language: es
Country: ES
--></g></svg>