<?xml version="1.0" encoding="UTF-8" standalone="no"?>
<!DOCTYPE svg PUBLIC "-//W3C//DTD SVG 1.1//EN"
 "http://www.w3.org/Graphics/SVG/1.1/DTD/svg11.dtd">
<!-- Generated by graphviz version 2.38.0 (20140413.2041)
 -->
<!-- Title: G Pages: 1 -->
<svg width="1724pt" height="385pt"
 viewBox="0.00 0.00 1723.50 385.00" xmlns="http://www.w3.org/2000/svg" xmlns:xlink="http://www.w3.org/1999/xlink">
<g id="graph0" class="graph" transform="scale(1 1) rotate(0) translate(4 381)">
<title>G</title>
<polygon fill="white" stroke="none" points="-4,4 -4,-381 1719.5,-381 1719.5,4 -4,4"/>
<!-- Color -->
<g id="node1" class="node"><title>Color</title>
<polygon fill="none" stroke="black" points="8.5,-293 8.5,-343 131.5,-343 131.5,-293 8.5,-293"/>
<text text-anchor="start" x="19.5" y="-321.8" font-family="Times New Roman,serif" font-size="14.00">&lt;&lt;enumeration&gt;&gt;</text>
<text text-anchor="start" x="52" y="-307.8" font-family="Times New Roman,serif" font-weight="bold" font-size="14.00">Color</text>
<polygon fill="none" stroke="black" points="8.5,-241 8.5,-293 131.5,-293 131.5,-241 8.5,-241"/>
<text text-anchor="start" x="19.5" y="-270.8" font-family="Times New Roman,serif" font-size="14.00">Blanca</text>
<text text-anchor="start" x="19.5" y="-255.8" font-family="Times New Roman,serif" font-size="14.00">Negra</text>
<polygon fill="none" stroke="black" points="8.5,-219 8.5,-241 131.5,-241 131.5,-219 8.5,-219"/>
</g>
<!-- Pieza -->
<g id="node2" class="node"><title>Pieza</title>
<polygon fill="none" stroke="black" points="1017.5,-323 1017.5,-373 1256.5,-373 1256.5,-323 1017.5,-323"/>
<text text-anchor="start" x="1120" y="-351.8" font-family="Times New Roman,serif" font-weight="bold" font-size="14.00">Pieza</text>
<text text-anchor="start" x="1108" y="-337.8" font-family="Times New Roman,serif" font-size="14.00">{abstract}</text>
<polygon fill="none" stroke="black" points="1017.5,-286 1017.5,-323 1256.5,-323 1256.5,-286 1017.5,-286"/>
<text text-anchor="start" x="1028.5" y="-300.8" font-family="Times New Roman,serif" font-size="14.00">&#45; color : Color</text>
<polygon fill="none" stroke="black" points="1017.5,-189 1017.5,-286 1256.5,-286 1256.5,-189 1017.5,-189"/>
<text text-anchor="start" x="1028.5" y="-263.8" font-family="Times New Roman,serif" font-size="14.00">+ Pieza(in color : Color)</text>
<text text-anchor="start" x="1028.5" y="-248.8" font-family="Times New Roman,serif" font-size="14.00">+ GetColor() : Color</text>
<text text-anchor="start" x="1028.5" y="-233.8" font-family="Times New Roman,serif" font-size="14.00">+ GetInicialNombre() : char {abstract}</text>
<text text-anchor="start" x="1028.5" y="-218.8" font-family="Times New Roman,serif" font-size="14.00">+ Valor() : uint {abstract}</text>
<text text-anchor="start" x="1028.5" y="-203.8" font-family="Times New Roman,serif" font-size="14.00">+ ToString() : string {abstract}</text>
</g>
<!-- Peon -->
<g id="node3" class="node"><title>Peon</title>
<polygon fill="none" stroke="black" points="565.5,-107.5 565.5,-144.5 825.5,-144.5 825.5,-107.5 565.5,-107.5"/>
<text text-anchor="start" x="680" y="-123.3" font-family="Times New Roman,serif" font-weight="bold" font-size="14.00">Peon</text>
<polygon fill="none" stroke="black" points="565.5,-85.5 565.5,-107.5 825.5,-107.5 825.5,-85.5 565.5,-85.5"/>
<polygon fill="none" stroke="black" points="565.5,-3.5 565.5,-85.5 825.5,-85.5 825.5,-3.5 565.5,-3.5"/>
<text text-anchor="start" x="576.5" y="-63.3" font-family="Times New Roman,serif" font-size="14.00">+ Peon(in color : Color)</text>
<text text-anchor="start" x="576.5" y="-48.3" font-family="Times New Roman,serif" font-size="14.00">&lt;&lt;override&gt;&gt; + GetInicialNombre() : char</text>
<text text-anchor="start" x="576.5" y="-33.3" font-family="Times New Roman,serif" font-size="14.00">&lt;&lt;override&gt;&gt; + Valor() : ushort</text>
<text text-anchor="start" x="576.5" y="-18.3" font-family="Times New Roman,serif" font-size="14.00">&lt;&lt;override&gt;&gt; + ToString() : string</text>
</g>
<!-- Peon&#45;&gt;Pieza -->
<g id="edge1" class="edge"><title>Peon&#45;&gt;Pieza</title>
<path fill="none" stroke="black" d="M833.761,-145.258C836.692,-146.533 839.607,-147.782 842.5,-149 887.582,-167.978 901.418,-166.022 946.5,-185 963.867,-192.311 981.87,-200.488 999.564,-208.894"/>
<polygon fill="none" stroke="black" points="998.252,-212.146 1008.78,-213.307 1001.27,-205.832 998.252,-212.146"/>
</g>
<!-- Caballo -->
<g id="node4" class="node"><title>Caballo</title>
<polygon fill="none" stroke="black" points="859.5,-107.5 859.5,-144.5 1119.5,-144.5 1119.5,-107.5 859.5,-107.5"/>
<text text-anchor="start" x="965" y="-123.3" font-family="Times New Roman,serif" font-weight="bold" font-size="14.00">Caballo</text>
<polygon fill="none" stroke="black" points="859.5,-85.5 859.5,-107.5 1119.5,-107.5 1119.5,-85.5 859.5,-85.5"/>
<polygon fill="none" stroke="black" points="859.5,-3.5 859.5,-85.5 1119.5,-85.5 1119.5,-3.5 859.5,-3.5"/>
<text text-anchor="start" x="870.5" y="-63.3" font-family="Times New Roman,serif" font-size="14.00">+ Caballo(in color : Color)</text>
<text text-anchor="start" x="870.5" y="-48.3" font-family="Times New Roman,serif" font-size="14.00">&lt;&lt;override&gt;&gt; + GetInicialNombre() : char</text>
<text text-anchor="start" x="870.5" y="-33.3" font-family="Times New Roman,serif" font-size="14.00">&lt;&lt;override&gt;&gt; + Valor() : ushort</text>
<text text-anchor="start" x="870.5" y="-18.3" font-family="Times New Roman,serif" font-size="14.00">&lt;&lt;override&gt;&gt; + ToString() : string</text>
</g>
<!-- Caballo&#45;&gt;Pieza -->
<g id="edge2" class="edge"><title>Caballo&#45;&gt;Pieza</title>
<path fill="none" stroke="black" d="M1042.36,-149.04C1048.79,-157.985 1055.45,-167.249 1062.12,-176.527"/>
<polygon fill="none" stroke="black" points="1059.3,-178.599 1067.98,-184.676 1064.98,-174.513 1059.3,-178.599"/>
</g>
<!-- Alfil -->
<g id="node5" class="node"><title>Alfil</title>
<polygon fill="none" stroke="black" points="1153.5,-107.5 1153.5,-144.5 1413.5,-144.5 1413.5,-107.5 1153.5,-107.5"/>
<text text-anchor="start" x="1270.5" y="-123.3" font-family="Times New Roman,serif" font-weight="bold" font-size="14.00">Alfil</text>
<polygon fill="none" stroke="black" points="1153.5,-85.5 1153.5,-107.5 1413.5,-107.5 1413.5,-85.5 1153.5,-85.5"/>
<polygon fill="none" stroke="black" points="1153.5,-3.5 1153.5,-85.5 1413.5,-85.5 1413.5,-3.5 1153.5,-3.5"/>
<text text-anchor="start" x="1164.5" y="-63.3" font-family="Times New Roman,serif" font-size="14.00">+ Alfil(in color : Color)</text>
<text text-anchor="start" x="1164.5" y="-48.3" font-family="Times New Roman,serif" font-size="14.00">&lt;&lt;override&gt;&gt; + GetInicialNombre() : char</text>
<text text-anchor="start" x="1164.5" y="-33.3" font-family="Times New Roman,serif" font-size="14.00">&lt;&lt;override&gt;&gt; + Valor() : ushort</text>
<text text-anchor="start" x="1164.5" y="-18.3" font-family="Times New Roman,serif" font-size="14.00">&lt;&lt;override&gt;&gt; + ToString() : string</text>
</g>
<!-- Alfil&#45;&gt;Pieza -->
<g id="edge3" class="edge"><title>Alfil&#45;&gt;Pieza</title>
<path fill="none" stroke="black" d="M1230.64,-149.04C1224.21,-157.985 1217.55,-167.249 1210.88,-176.527"/>
<polygon fill="none" stroke="black" points="1208.02,-174.513 1205.02,-184.676 1213.7,-178.599 1208.02,-174.513"/>
</g>
<!-- Torre -->
<g id="node6" class="node"><title>Torre</title>
<polygon fill="none" stroke="black" points="1447.5,-107.5 1447.5,-144.5 1707.5,-144.5 1707.5,-107.5 1447.5,-107.5"/>
<text text-anchor="start" x="1559" y="-123.3" font-family="Times New Roman,serif" font-weight="bold" font-size="14.00">Torre</text>
<polygon fill="none" stroke="black" points="1447.5,-85.5 1447.5,-107.5 1707.5,-107.5 1707.5,-85.5 1447.5,-85.5"/>
<polygon fill="none" stroke="black" points="1447.5,-3.5 1447.5,-85.5 1707.5,-85.5 1707.5,-3.5 1447.5,-3.5"/>
<text text-anchor="start" x="1458.5" y="-63.3" font-family="Times New Roman,serif" font-size="14.00">+ Torre(in color : Color)</text>
<text text-anchor="start" x="1458.5" y="-48.3" font-family="Times New Roman,serif" font-size="14.00">&lt;&lt;override&gt;&gt; + GetInicialNombre() : char</text>
<text text-anchor="start" x="1458.5" y="-33.3" font-family="Times New Roman,serif" font-size="14.00">&lt;&lt;override&gt;&gt; + Valor() : ushort</text>
<text text-anchor="start" x="1458.5" y="-18.3" font-family="Times New Roman,serif" font-size="14.00">&lt;&lt;override&gt;&gt; + ToString() : string</text>
</g>
<!-- Torre&#45;&gt;Pieza -->
<g id="edge4" class="edge"><title>Torre&#45;&gt;Pieza</title>
<path fill="none" stroke="black" d="M1439.48,-144.732C1436.46,-146.174 1433.47,-147.598 1430.5,-149 1379.49,-173.103 1322.98,-198.571 1273.25,-220.577"/>
<polygon fill="none" stroke="black" points="1271.78,-217.401 1264.05,-224.645 1274.61,-223.804 1271.78,-217.401"/>
</g>
<!-- Casilla -->
<g id="node7" class="node"><title>Casilla</title>
<polygon fill="none" stroke="black" points="669.5,-329 669.5,-366 929.5,-366 929.5,-329 669.5,-329"/>
<text text-anchor="start" x="778" y="-344.8" font-family="Times New Roman,serif" font-weight="bold" font-size="14.00">Casilla</text>
<polygon fill="none" stroke="black" points="669.5,-277 669.5,-329 929.5,-329 929.5,-277 669.5,-277"/>
<text text-anchor="start" x="680.5" y="-306.8" font-family="Times New Roman,serif" font-size="14.00">&#45; pieza : Pieza</text>
<text text-anchor="start" x="680.5" y="-291.8" font-family="Times New Roman,serif" font-size="14.00">&#45; color : Color</text>
<polygon fill="none" stroke="black" points="669.5,-195 669.5,-277 929.5,-277 929.5,-195 669.5,-195"/>
<text text-anchor="start" x="680.5" y="-254.8" font-family="Times New Roman,serif" font-size="14.00">+ Casilla(in color : Color)</text>
<text text-anchor="start" x="680.5" y="-239.8" font-family="Times New Roman,serif" font-size="14.00">&lt;&lt;override&gt;&gt; + GetInicialNombre() : char</text>
<text text-anchor="start" x="680.5" y="-224.8" font-family="Times New Roman,serif" font-size="14.00">&lt;&lt;override&gt;&gt; + Valor() : ushort</text>
<text text-anchor="start" x="680.5" y="-209.8" font-family="Times New Roman,serif" font-size="14.00">&lt;&lt;override&gt;&gt; + ToString() : string</text>
</g>
<!-- Casilla&#45;&gt;Pieza -->
<g id="edge5" class="edge"><title>Casilla&#45;&gt;Pieza</title>
<path fill="none" stroke="black" d="M949.934,-281C969.546,-281 989.158,-281 1008.77,-281"/>
<polygon fill="none" stroke="black" points="949.723,-281 943.723,-285 937.723,-281 943.723,-277 949.723,-281"/>
<text text-anchor="middle" x="986.112" y="-266.735" font-family="Times New Roman,serif" font-size="14.00">0..1</text>
<text text-anchor="middle" x="960.38" y="-287.865" font-family="Times New Roman,serif" font-size="14.00">0..1</text>
</g>
<!-- Tablero -->
<g id="node8" class="node"><title>Tablero</title>
<polygon fill="none" stroke="black" points="165.5,-306 165.5,-343 581.5,-343 581.5,-306 165.5,-306"/>
<text text-anchor="start" x="349" y="-321.8" font-family="Times New Roman,serif" font-weight="bold" font-size="14.00">Tablero</text>
<polygon fill="none" stroke="black" points="165.5,-269 165.5,-306 581.5,-306 581.5,-269 165.5,-269"/>
<text text-anchor="start" x="176.5" y="-283.8" font-family="Times New Roman,serif" font-size="14.00">&#45; casilla : Casilla[,]</text>
<polygon fill="none" stroke="black" points="165.5,-219 165.5,-269 581.5,-269 581.5,-219 165.5,-219"/>
<text text-anchor="start" x="176.5" y="-247.8" font-family="Times New Roman,serif" font-size="14.00">+ Tablero()</text>
<text text-anchor="start" x="176.5" y="-233.8" font-family="Times New Roman,serif" text-decoration="underline" font-size="14.00">&#45; decodifica(in string casilla, out ushort fila, out ushort columna) : void</text>
</g>
<!-- Tablero&#45;&gt;Casilla -->
<g id="edge6" class="edge"><title>Tablero&#45;&gt;Casilla</title>
<path fill="none" stroke="black" d="M601.866,-281C621.742,-281 641.617,-281 661.493,-281"/>
<polygon fill="black" stroke="black" points="601.828,-281 595.828,-285 589.828,-281 595.828,-277 601.828,-281"/>
<text text-anchor="middle" x="638.836" y="-266.735" font-family="Times New Roman,serif" font-size="14.00">64</text>
<text text-anchor="middle" x="612.486" y="-287.865" font-family="Times New Roman,serif" font-size="14.00">1</text>
</g>
</g>
</svg>
