<?xml version="1.0" encoding="UTF-8" standalone="no"?><svg xmlns="http://www.w3.org/2000/svg" xmlns:xlink="http://www.w3.org/1999/xlink" contentScriptType="application/ecmascript" contentStyleType="text/css" height="341px" preserveAspectRatio="none" style="width:245px;height:341px;" version="1.1" viewBox="0 0 245 341" width="245px" zoomAndPan="magnify"><defs><filter height="300%" id="f1kjm4xmt777ow" width="300%" x="-1" y="-1"><feGaussianBlur result="blurOut" stdDeviation="2.0"/><feColorMatrix in="blurOut" result="blurOut2" type="matrix" values="0 0 0 0 0 0 0 0 0 0 0 0 0 0 0 0 0 0 .4 0"/><feOffset dx="4.0" dy="4.0" in="blurOut2" result="blurOut3"/><feBlend in="SourceGraphic" in2="blurOut3" mode="normal"/></filter></defs><g><polygon fill="#F5F5F5" filter="url(#f1kjm4xmt777ow)" points="10,8,105,8,112,31.6094,119,31.6094,119,63.2188,10,63.2188,10,8" style="stroke: #000000; stroke-width: 1.5;"/><line style="stroke: #000000; stroke-width: 1.5;" x1="10" x2="112" y1="31.6094" y2="31.6094"/><text fill="#000000" font-family="sans-serif" font-size="14" font-weight="bold" lengthAdjust="spacingAndGlyphs" textLength="89" x="14" y="24.5332">Program.exe</text><text fill="#000000" font-family="sans-serif" font-size="14" font-style="italic" lengthAdjust="spacingAndGlyphs" textLength="84" x="26.5" y="48.1426">«executable»</text><polygon fill="#F5F5F5" filter="url(#f1kjm4xmt777ow)" points="6,274,109,274,116,297.6094,123,297.6094,123,329.2188,6,329.2188,6,274" style="stroke: #000000; stroke-width: 1.5;"/><line style="stroke: #000000; stroke-width: 1.5;" x1="6" x2="116" y1="297.6094" y2="297.6094"/><text fill="#000000" font-family="sans-serif" font-size="14" font-weight="bold" lengthAdjust="spacingAndGlyphs" textLength="97" x="10" y="290.5332">MyLibrary1.dll</text><text fill="#000000" font-family="sans-serif" font-size="14" font-style="italic" lengthAdjust="spacingAndGlyphs" textLength="55" x="41" y="314.1426">«library»</text><polygon fill="#F5F5F5" filter="url(#f1kjm4xmt777ow)" points="106,141,209,141,216,164.6094,223,164.6094,223,196.2188,106,196.2188,106,141" style="stroke: #000000; stroke-width: 1.5;"/><line style="stroke: #000000; stroke-width: 1.5;" x1="106" x2="216" y1="164.6094" y2="164.6094"/><text fill="#000000" font-family="sans-serif" font-size="14" font-weight="bold" lengthAdjust="spacingAndGlyphs" textLength="97" x="110" y="157.5332">MyLibrary2.dll</text><text fill="#000000" font-family="sans-serif" font-size="14" font-style="italic" lengthAdjust="spacingAndGlyphs" textLength="55" x="141" y="181.1426">«library»</text><!--link Program.exe to MyLibrary1.dll--><path d="M53.1418,63.423 C45.023,84.193 34.8031,113.866 30.5,141 C26.6713,165.143 26.6713,171.857 30.5,196 C34.4837,221.12 43.5386,248.4161 51.3027,268.8096 " fill="none" id="Program.exe-&gt;MyLibrary1.dll" style="stroke: #000000; stroke-width: 1.0; stroke-dasharray: 7.0,7.0;"/><polygon fill="#000000" points="53.1418,273.5766,53.6339,263.74,51.342,268.9118,46.1702,266.6198,53.1418,273.5766" style="stroke: #000000; stroke-width: 1.0;"/><text fill="#000000" font-family="sans-serif" font-size="13" lengthAdjust="spacingAndGlyphs" textLength="56" x="31.5" y="173.9951">«access»</text><!--link Program.exe to MyLibrary2.dll--><path d="M84.7365,63.01 C100.962,84.265 123.762,114.134 140.833,136.496 " fill="none" id="Program.exe-&gt;MyLibrary2.dll" style="stroke: #000000; stroke-width: 1.0; stroke-dasharray: 7.0,7.0;"/><polygon fill="#000000" points="143.95,140.58,141.6716,130.9983,140.9174,136.6046,135.3111,135.8504,143.95,140.58" style="stroke: #000000; stroke-width: 1.0;"/><text fill="#000000" font-family="sans-serif" font-size="13" lengthAdjust="spacingAndGlyphs" textLength="56" x="120.5" y="107.4951">«access»</text><!--link MyLibrary2.dll to MyLibrary1.dll--><path d="M144.264,196.01 C128.038,217.265 105.2378,247.1335 88.1675,269.4956 " fill="none" id="MyLibrary2.dll-&gt;MyLibrary1.dll" style="stroke: #000000; stroke-width: 1.0; stroke-dasharray: 7.0,7.0;"/><polygon fill="#000000" points="85.0496,273.58,93.6901,268.8533,88.0835,269.6057,87.3312,263.9991,85.0496,273.58" style="stroke: #000000; stroke-width: 1.0;"/><text fill="#000000" font-family="sans-serif" font-size="13" lengthAdjust="spacingAndGlyphs" textLength="56" x="120.5" y="240.4951">«access»</text><!--
@startuml paquetes

skinparam ArrowColor Black
skinparam PackageBackgroundColor WhiteSmoke
skinparam ClassBorderColor Black
skinparam ClassBackgroundColor Snow
skinparam ClassAttributeIconSize 0

package Program.exe <<executable>> {
}

package MyLibrary1.dll <<library>> {
}

package MyLibrary2.dll <<library>> {
}

Program.exe ..> MyLibrary1.dll : <<access>>
Program.exe ..> MyLibrary2.dll : <<access>>
MyLibrary2.dll ..> MyLibrary1.dll : <<access>>
@enduml

PlantUML version 1.2019.09(Mon Aug 26 18:19:51 CEST 2019)
(GPL source distribution)
Java Runtime: Java(TM) SE Runtime Environment
JVM: Java HotSpot(TM) 64-Bit Server VM
Java Version: 1.8.0_241-b07
Operating System: Windows 10
OS Version: 10.0
Default Encoding: Cp1252
Language: es
Country: ES
--></g></svg>