<?xml version="1.0" encoding="UTF-8" standalone="no"?><svg xmlns="http://www.w3.org/2000/svg" xmlns:xlink="http://www.w3.org/1999/xlink" contentScriptType="application/ecmascript" contentStyleType="text/css" height="798px" preserveAspectRatio="none" style="width:776px;height:798px;" version="1.1" viewBox="0 0 776 798" width="776px" zoomAndPan="magnify"><defs><filter height="300%" id="f1iv8ghrmnbay0" width="300%" x="-1" y="-1"><feGaussianBlur result="blurOut" stdDeviation="2.0"/><feColorMatrix in="blurOut" result="blurOut2" type="matrix" values="0 0 0 0 0 0 0 0 0 0 0 0 0 0 0 0 0 0 .4 0"/><feOffset dx="4.0" dy="4.0" in="blurOut2" result="blurOut3"/><feBlend in="SourceGraphic" in2="blurOut3" mode="normal"/></filter></defs><g><!--cluster Program.exe--><polygon fill="#F5F5F5" filter="url(#f1iv8ghrmnbay0)" points="185,24,280,24,287,47.6094,345,47.6094,345,224,185,224,185,24" style="stroke: #000000; stroke-width: 1.5;"/><line style="stroke: #000000; stroke-width: 1.5;" x1="185" x2="287" y1="47.6094" y2="47.6094"/><text fill="#000000" font-family="sans-serif" font-size="14" font-weight="bold" lengthAdjust="spacingAndGlyphs" textLength="89" x="189" y="40.5332">Program.exe</text><text fill="#000000" font-family="sans-serif" font-size="14" font-style="italic" lengthAdjust="spacingAndGlyphs" textLength="84" x="227" y="64.1426">«executable»</text><!--cluster Program--><polygon fill="#FFFFFF" filter="url(#f1iv8ghrmnbay0)" points="209,86,274,86,281,109.6094,321,109.6094,321,200,209,200,209,86" style="stroke: #000000; stroke-width: 1.5;"/><line style="stroke: #000000; stroke-width: 1.5;" x1="209" x2="281" y1="109.6094" y2="109.6094"/><text fill="#000000" font-family="sans-serif" font-size="14" font-weight="bold" lengthAdjust="spacingAndGlyphs" textLength="59" x="213" y="102.5332">Program</text><!--cluster MyLibrary1.dll--><polygon fill="#F5F5F5" filter="url(#f1iv8ghrmnbay0)" points="22,274,125,274,132,297.6094,467,297.6094,467,528,22,528,22,274" style="stroke: #000000; stroke-width: 1.5;"/><line style="stroke: #000000; stroke-width: 1.5;" x1="22" x2="132" y1="297.6094" y2="297.6094"/><text fill="#000000" font-family="sans-serif" font-size="14" font-weight="bold" lengthAdjust="spacingAndGlyphs" textLength="97" x="26" y="290.5332">MyLibrary1.dll</text><text fill="#000000" font-family="sans-serif" font-size="14" font-style="italic" lengthAdjust="spacingAndGlyphs" textLength="55" x="221" y="314.1426">«library»</text><!--cluster MyLibrary1--><polygon fill="#FFFFFF" filter="url(#f1iv8ghrmnbay0)" points="46,336,128,336,135,359.6094,443,359.6094,443,504,46,504,46,336" style="stroke: #000000; stroke-width: 1.5;"/><line style="stroke: #000000; stroke-width: 1.5;" x1="46" x2="135" y1="359.6094" y2="359.6094"/><text fill="#000000" font-family="sans-serif" font-size="14" font-weight="bold" lengthAdjust="spacingAndGlyphs" textLength="76" x="50" y="352.5332">MyLibrary1</text><!--cluster MyLibrary1.Utilities--><polygon fill="#F5F5F5" filter="url(#f1iv8ghrmnbay0)" points="305,380,364,380,371,403.6094,419,403.6094,419,480,305,480,305,380" style="stroke: #000000; stroke-width: 1.5;"/><line style="stroke: #000000; stroke-width: 1.5;" x1="305" x2="371" y1="403.6094" y2="403.6094"/><text fill="#000000" font-family="sans-serif" font-size="14" font-weight="bold" lengthAdjust="spacingAndGlyphs" textLength="53" x="309" y="396.5332">Utilities</text><!--cluster MyLibrary2.dll--><polygon fill="#F5F5F5" filter="url(#f1iv8ghrmnbay0)" points="491,318,594,318,601,341.6094,754,341.6094,754,504,491,504,491,318" style="stroke: #000000; stroke-width: 1.5;"/><line style="stroke: #000000; stroke-width: 1.5;" x1="491" x2="601" y1="341.6094" y2="341.6094"/><text fill="#000000" font-family="sans-serif" font-size="14" font-weight="bold" lengthAdjust="spacingAndGlyphs" textLength="97" x="495" y="334.5332">MyLibrary2.dll</text><text fill="#000000" font-family="sans-serif" font-size="14" font-style="italic" lengthAdjust="spacingAndGlyphs" textLength="55" x="599" y="358.1426">«library»</text><!--cluster MyLibrary2--><polygon fill="#FFFFFF" filter="url(#f1iv8ghrmnbay0)" points="515,380,597,380,604,403.6094,730,403.6094,730,480,515,480,515,380" style="stroke: #000000; stroke-width: 1.5;"/><line style="stroke: #000000; stroke-width: 1.5;" x1="515" x2="604" y1="403.6094" y2="403.6094"/><text fill="#000000" font-family="sans-serif" font-size="14" font-weight="bold" lengthAdjust="spacingAndGlyphs" textLength="76" x="519" y="396.5332">MyLibrary2</text><!--cluster Utilities.dll--><polygon fill="#F5F5F5" filter="url(#f1iv8ghrmnbay0)" points="162,578,242,578,249,601.6094,448,601.6094,448,786,162,786,162,578" style="stroke: #000000; stroke-width: 1.5;"/><line style="stroke: #000000; stroke-width: 1.5;" x1="162" x2="249" y1="601.6094" y2="601.6094"/><text fill="#000000" font-family="sans-serif" font-size="14" font-weight="bold" lengthAdjust="spacingAndGlyphs" textLength="74" x="166" y="594.5332">Utilities.dll</text><text fill="#000000" font-family="sans-serif" font-size="14" font-style="italic" lengthAdjust="spacingAndGlyphs" textLength="55" x="281.5" y="618.1426">«library»</text><!--cluster Utilities--><polygon fill="#F5F5F5" filter="url(#f1iv8ghrmnbay0)" points="186,640,245,640,252,663.6094,424,663.6094,424,762,186,762,186,640" style="stroke: #000000; stroke-width: 1.5;"/><line style="stroke: #000000; stroke-width: 1.5;" x1="186" x2="252" y1="663.6094" y2="663.6094"/><text fill="#000000" font-family="sans-serif" font-size="14" font-weight="bold" lengthAdjust="spacingAndGlyphs" textLength="53" x="190" y="656.5332">Utilities</text><!--class Program.Program--><rect fill="#FFFAFA" filter="url(#f1iv8ghrmnbay0)" height="61.8359" id="Program.Program" style="stroke: #000000; stroke-width: 1.5;" width="80" x="225" y="122"/><ellipse cx="240" cy="138" fill="#ADD1B2" rx="11" ry="11" style="stroke: #000000; stroke-width: 1.0;"/><path d="M242.7656,133.875 Q242.9219,133.6563 243.1094,133.5469 Q243.2969,133.4375 243.5156,133.4375 Q243.8906,133.4375 244.125,133.6953 Q244.3594,133.9531 244.3594,134.5625 L244.3594,136.0156 Q244.3594,136.625 244.125,136.8906 Q243.8906,137.1563 243.5156,137.1563 Q243.1719,137.1563 242.9688,136.9531 Q242.7656,136.7656 242.6563,136.25 Q242.6094,135.8906 242.4219,135.7031 Q242.0938,135.3281 241.4844,135.1094 Q240.875,134.8906 240.25,134.8906 Q239.4844,134.8906 238.8516,135.2188 Q238.2188,135.5469 237.7266,136.2969 Q237.2344,137.0469 237.2344,138.0781 L237.2344,139.1719 Q237.2344,140.4063 238.125,141.2266 Q239.0156,142.0469 240.6094,142.0469 Q241.5469,142.0469 242.2031,141.7969 Q242.5938,141.6406 243.0156,141.2031 Q243.2813,140.9375 243.4297,140.8594 Q243.5781,140.7813 243.7813,140.7813 Q244.1094,140.7813 244.3672,141.0391 Q244.625,141.2969 244.625,141.6406 Q244.625,141.9844 244.2813,142.3906 Q243.7813,142.9688 242.9844,143.2969 Q241.9063,143.75 240.6094,143.75 Q239.0938,143.75 237.8906,143.125 Q236.9063,142.625 236.2188,141.5547 Q235.5313,140.4844 235.5313,139.2031 L235.5313,138.0469 Q235.5313,136.7188 236.1484,135.5703 Q236.7656,134.4219 237.8594,133.8047 Q238.9531,133.1875 240.1875,133.1875 Q240.9219,133.1875 241.5703,133.3516 Q242.2188,133.5156 242.7656,133.875 Z "/><text fill="#000000" font-family="sans-serif" font-size="12" lengthAdjust="spacingAndGlyphs" textLength="48" x="254" y="142.9102">Program</text><line style="stroke: #000000; stroke-width: 1.5;" x1="226" x2="304" y1="154" y2="154"/><line style="stroke: #000000; stroke-width: 1.5;" x1="226" x2="304" y1="162" y2="162"/><text fill="#000000" font-family="sans-serif" font-size="11" lengthAdjust="spacingAndGlyphs" text-decoration="underline" textLength="63" x="231" y="177.4189">-Main() : void</text><!--class MyLibrary1.ClassA--><rect fill="#FFFAFA" filter="url(#f1iv8ghrmnbay0)" height="48" id="MyLibrary1.ClassA" style="stroke: #000000; stroke-width: 1.5;" width="72" x="62" y="416"/><ellipse cx="77" cy="432" fill="#ADD1B2" rx="11" ry="11" style="stroke: #000000; stroke-width: 1.0;"/><path d="M79.7656,427.875 Q79.9219,427.6563 80.1094,427.5469 Q80.2969,427.4375 80.5156,427.4375 Q80.8906,427.4375 81.125,427.6953 Q81.3594,427.9531 81.3594,428.5625 L81.3594,430.0156 Q81.3594,430.625 81.125,430.8906 Q80.8906,431.1563 80.5156,431.1563 Q80.1719,431.1563 79.9688,430.9531 Q79.7656,430.7656 79.6563,430.25 Q79.6094,429.8906 79.4219,429.7031 Q79.0938,429.3281 78.4844,429.1094 Q77.875,428.8906 77.25,428.8906 Q76.4844,428.8906 75.8516,429.2188 Q75.2188,429.5469 74.7266,430.2969 Q74.2344,431.0469 74.2344,432.0781 L74.2344,433.1719 Q74.2344,434.4063 75.125,435.2266 Q76.0156,436.0469 77.6094,436.0469 Q78.5469,436.0469 79.2031,435.7969 Q79.5938,435.6406 80.0156,435.2031 Q80.2813,434.9375 80.4297,434.8594 Q80.5781,434.7813 80.7813,434.7813 Q81.1094,434.7813 81.3672,435.0391 Q81.625,435.2969 81.625,435.6406 Q81.625,435.9844 81.2813,436.3906 Q80.7813,436.9688 79.9844,437.2969 Q78.9063,437.75 77.6094,437.75 Q76.0938,437.75 74.8906,437.125 Q73.9063,436.625 73.2188,435.5547 Q72.5313,434.4844 72.5313,433.2031 L72.5313,432.0469 Q72.5313,430.7188 73.1484,429.5703 Q73.7656,428.4219 74.8594,427.8047 Q75.9531,427.1875 77.1875,427.1875 Q77.9219,427.1875 78.5703,427.3516 Q79.2188,427.5156 79.7656,427.875 Z "/><text fill="#000000" font-family="sans-serif" font-size="12" lengthAdjust="spacingAndGlyphs" textLength="40" x="91" y="436.9102">ClassA</text><line style="stroke: #000000; stroke-width: 1.5;" x1="63" x2="133" y1="448" y2="448"/><line style="stroke: #000000; stroke-width: 1.5;" x1="63" x2="133" y1="456" y2="456"/><!--class MyLibrary1.ClassB--><rect fill="#FFFAFA" filter="url(#f1iv8ghrmnbay0)" height="48" id="MyLibrary1.ClassB" style="stroke: #000000; stroke-width: 1.5;" width="73" x="169.5" y="416"/><ellipse cx="184.5" cy="432" fill="#ADD1B2" rx="11" ry="11" style="stroke: #000000; stroke-width: 1.0;"/><path d="M187.2656,427.875 Q187.4219,427.6563 187.6094,427.5469 Q187.7969,427.4375 188.0156,427.4375 Q188.3906,427.4375 188.625,427.6953 Q188.8594,427.9531 188.8594,428.5625 L188.8594,430.0156 Q188.8594,430.625 188.625,430.8906 Q188.3906,431.1563 188.0156,431.1563 Q187.6719,431.1563 187.4688,430.9531 Q187.2656,430.7656 187.1563,430.25 Q187.1094,429.8906 186.9219,429.7031 Q186.5938,429.3281 185.9844,429.1094 Q185.375,428.8906 184.75,428.8906 Q183.9844,428.8906 183.3516,429.2188 Q182.7188,429.5469 182.2266,430.2969 Q181.7344,431.0469 181.7344,432.0781 L181.7344,433.1719 Q181.7344,434.4063 182.625,435.2266 Q183.5156,436.0469 185.1094,436.0469 Q186.0469,436.0469 186.7031,435.7969 Q187.0938,435.6406 187.5156,435.2031 Q187.7813,434.9375 187.9297,434.8594 Q188.0781,434.7813 188.2813,434.7813 Q188.6094,434.7813 188.8672,435.0391 Q189.125,435.2969 189.125,435.6406 Q189.125,435.9844 188.7813,436.3906 Q188.2813,436.9688 187.4844,437.2969 Q186.4063,437.75 185.1094,437.75 Q183.5938,437.75 182.3906,437.125 Q181.4063,436.625 180.7188,435.5547 Q180.0313,434.4844 180.0313,433.2031 L180.0313,432.0469 Q180.0313,430.7188 180.6484,429.5703 Q181.2656,428.4219 182.3594,427.8047 Q183.4531,427.1875 184.6875,427.1875 Q185.4219,427.1875 186.0703,427.3516 Q186.7188,427.5156 187.2656,427.875 Z "/><text fill="#000000" font-family="sans-serif" font-size="12" lengthAdjust="spacingAndGlyphs" textLength="41" x="198.5" y="436.9102">ClassB</text><line style="stroke: #000000; stroke-width: 1.5;" x1="170.5" x2="241.5" y1="448" y2="448"/><line style="stroke: #000000; stroke-width: 1.5;" x1="170.5" x2="241.5" y1="456" y2="456"/><!--class MyLibrary1.Utilities.ClassU2--><rect fill="#FFFAFA" filter="url(#f1iv8ghrmnbay0)" height="48" id="MyLibrary1.Utilities.ClassU2" style="stroke: #000000; stroke-width: 1.5;" width="81" x="321.5" y="416"/><ellipse cx="336.5" cy="432" fill="#ADD1B2" rx="11" ry="11" style="stroke: #000000; stroke-width: 1.0;"/><path d="M339.2656,427.875 Q339.4219,427.6563 339.6094,427.5469 Q339.7969,427.4375 340.0156,427.4375 Q340.3906,427.4375 340.625,427.6953 Q340.8594,427.9531 340.8594,428.5625 L340.8594,430.0156 Q340.8594,430.625 340.625,430.8906 Q340.3906,431.1563 340.0156,431.1563 Q339.6719,431.1563 339.4688,430.9531 Q339.2656,430.7656 339.1563,430.25 Q339.1094,429.8906 338.9219,429.7031 Q338.5938,429.3281 337.9844,429.1094 Q337.375,428.8906 336.75,428.8906 Q335.9844,428.8906 335.3516,429.2188 Q334.7188,429.5469 334.2266,430.2969 Q333.7344,431.0469 333.7344,432.0781 L333.7344,433.1719 Q333.7344,434.4063 334.625,435.2266 Q335.5156,436.0469 337.1094,436.0469 Q338.0469,436.0469 338.7031,435.7969 Q339.0938,435.6406 339.5156,435.2031 Q339.7813,434.9375 339.9297,434.8594 Q340.0781,434.7813 340.2813,434.7813 Q340.6094,434.7813 340.8672,435.0391 Q341.125,435.2969 341.125,435.6406 Q341.125,435.9844 340.7813,436.3906 Q340.2813,436.9688 339.4844,437.2969 Q338.4063,437.75 337.1094,437.75 Q335.5938,437.75 334.3906,437.125 Q333.4063,436.625 332.7188,435.5547 Q332.0313,434.4844 332.0313,433.2031 L332.0313,432.0469 Q332.0313,430.7188 332.6484,429.5703 Q333.2656,428.4219 334.3594,427.8047 Q335.4531,427.1875 336.6875,427.1875 Q337.4219,427.1875 338.0703,427.3516 Q338.7188,427.5156 339.2656,427.875 Z "/><text fill="#000000" font-family="sans-serif" font-size="12" lengthAdjust="spacingAndGlyphs" textLength="49" x="350.5" y="436.9102">ClassU2</text><line style="stroke: #000000; stroke-width: 1.5;" x1="322.5" x2="401.5" y1="448" y2="448"/><line style="stroke: #000000; stroke-width: 1.5;" x1="322.5" x2="401.5" y1="456" y2="456"/><!--class MyLibrary2.ClassC--><rect fill="#FFFAFA" filter="url(#f1iv8ghrmnbay0)" height="48" id="MyLibrary2.ClassC" style="stroke: #000000; stroke-width: 1.5;" width="74" x="640" y="416"/><ellipse cx="655" cy="432" fill="#ADD1B2" rx="11" ry="11" style="stroke: #000000; stroke-width: 1.0;"/><path d="M657.7656,427.875 Q657.9219,427.6563 658.1094,427.5469 Q658.2969,427.4375 658.5156,427.4375 Q658.8906,427.4375 659.125,427.6953 Q659.3594,427.9531 659.3594,428.5625 L659.3594,430.0156 Q659.3594,430.625 659.125,430.8906 Q658.8906,431.1563 658.5156,431.1563 Q658.1719,431.1563 657.9688,430.9531 Q657.7656,430.7656 657.6563,430.25 Q657.6094,429.8906 657.4219,429.7031 Q657.0938,429.3281 656.4844,429.1094 Q655.875,428.8906 655.25,428.8906 Q654.4844,428.8906 653.8516,429.2188 Q653.2188,429.5469 652.7266,430.2969 Q652.2344,431.0469 652.2344,432.0781 L652.2344,433.1719 Q652.2344,434.4063 653.125,435.2266 Q654.0156,436.0469 655.6094,436.0469 Q656.5469,436.0469 657.2031,435.7969 Q657.5938,435.6406 658.0156,435.2031 Q658.2813,434.9375 658.4297,434.8594 Q658.5781,434.7813 658.7813,434.7813 Q659.1094,434.7813 659.3672,435.0391 Q659.625,435.2969 659.625,435.6406 Q659.625,435.9844 659.2813,436.3906 Q658.7813,436.9688 657.9844,437.2969 Q656.9063,437.75 655.6094,437.75 Q654.0938,437.75 652.8906,437.125 Q651.9063,436.625 651.2188,435.5547 Q650.5313,434.4844 650.5313,433.2031 L650.5313,432.0469 Q650.5313,430.7188 651.1484,429.5703 Q651.7656,428.4219 652.8594,427.8047 Q653.9531,427.1875 655.1875,427.1875 Q655.9219,427.1875 656.5703,427.3516 Q657.2188,427.5156 657.7656,427.875 Z "/><text fill="#000000" font-family="sans-serif" font-size="12" lengthAdjust="spacingAndGlyphs" textLength="42" x="669" y="436.9102">ClassC</text><line style="stroke: #000000; stroke-width: 1.5;" x1="641" x2="713" y1="448" y2="448"/><line style="stroke: #000000; stroke-width: 1.5;" x1="641" x2="713" y1="456" y2="456"/><!--class MyLibrary2.ClassD--><rect fill="#FFFAFA" filter="url(#f1iv8ghrmnbay0)" height="48" id="MyLibrary2.ClassD" style="stroke: #000000; stroke-width: 1.5;" width="74" x="531" y="416"/><ellipse cx="546" cy="432" fill="#ADD1B2" rx="11" ry="11" style="stroke: #000000; stroke-width: 1.0;"/><path d="M548.7656,427.875 Q548.9219,427.6563 549.1094,427.5469 Q549.2969,427.4375 549.5156,427.4375 Q549.8906,427.4375 550.125,427.6953 Q550.3594,427.9531 550.3594,428.5625 L550.3594,430.0156 Q550.3594,430.625 550.125,430.8906 Q549.8906,431.1563 549.5156,431.1563 Q549.1719,431.1563 548.9688,430.9531 Q548.7656,430.7656 548.6563,430.25 Q548.6094,429.8906 548.4219,429.7031 Q548.0938,429.3281 547.4844,429.1094 Q546.875,428.8906 546.25,428.8906 Q545.4844,428.8906 544.8516,429.2188 Q544.2188,429.5469 543.7266,430.2969 Q543.2344,431.0469 543.2344,432.0781 L543.2344,433.1719 Q543.2344,434.4063 544.125,435.2266 Q545.0156,436.0469 546.6094,436.0469 Q547.5469,436.0469 548.2031,435.7969 Q548.5938,435.6406 549.0156,435.2031 Q549.2813,434.9375 549.4297,434.8594 Q549.5781,434.7813 549.7813,434.7813 Q550.1094,434.7813 550.3672,435.0391 Q550.625,435.2969 550.625,435.6406 Q550.625,435.9844 550.2813,436.3906 Q549.7813,436.9688 548.9844,437.2969 Q547.9063,437.75 546.6094,437.75 Q545.0938,437.75 543.8906,437.125 Q542.9063,436.625 542.2188,435.5547 Q541.5313,434.4844 541.5313,433.2031 L541.5313,432.0469 Q541.5313,430.7188 542.1484,429.5703 Q542.7656,428.4219 543.8594,427.8047 Q544.9531,427.1875 546.1875,427.1875 Q546.9219,427.1875 547.5703,427.3516 Q548.2188,427.5156 548.7656,427.875 Z "/><text fill="#000000" font-family="sans-serif" font-size="12" lengthAdjust="spacingAndGlyphs" textLength="42" x="560" y="436.9102">ClassD</text><line style="stroke: #000000; stroke-width: 1.5;" x1="532" x2="604" y1="448" y2="448"/><line style="stroke: #000000; stroke-width: 1.5;" x1="532" x2="604" y1="456" y2="456"/><!--class Utilities.ClassU1--><rect fill="#FFFAFA" filter="url(#f1iv8ghrmnbay0)" height="70.0234" id="Utilities.ClassU1" style="stroke: #000000; stroke-width: 1.5;" width="206" x="202" y="676"/><ellipse cx="276.25" cy="696.0938" fill="#ADFF2F" rx="11" ry="11" style="stroke: #000000; stroke-width: 1.0;"/><path d="M280.7344,693.4844 L280.7344,698.3125 Q280.7344,699.8906 279.6016,700.9922 Q278.4688,702.0938 276.875,702.0938 Q276.0938,702.0938 275.3984,701.8125 Q274.7031,701.5313 274.1484,700.9922 Q273.5938,700.4531 273.2891,699.8672 Q272.9844,699.2813 272.9844,698.3125 L272.9844,693.4844 Q272.4531,693.4844 272.1953,693.2422 Q271.9375,693 271.9375,692.625 Q271.9375,692.25 272.1953,692.0156 Q272.4531,691.7813 273.0625,691.7813 L275.2969,691.7813 Q275.9219,691.7813 276.1797,692.0156 Q276.4375,692.25 276.4375,692.625 Q276.4375,693.0156 276.1797,693.25 Q275.9219,693.4844 275.2969,693.4844 L274.6875,693.4844 L274.6875,698.4531 Q274.6875,699.2188 275.3203,699.8047 Q275.9531,700.3906 276.8594,700.3906 Q277.4531,700.3906 277.9766,700.1094 Q278.5,699.8281 278.8281,699.2813 Q279.0313,698.9531 279.0313,698.4531 L279.0313,693.4844 L278.4219,693.4844 Q277.8125,693.4844 277.5469,693.25 Q277.2813,693.0156 277.2813,692.625 Q277.2813,692.25 277.5469,692.0156 Q277.8125,691.7813 278.4219,691.7813 L280.6563,691.7813 Q281.2656,691.7813 281.5313,692.0156 Q281.7969,692.25 281.7969,692.625 Q281.7969,693 281.5391,693.2422 Q281.2813,693.4844 280.7344,693.4844 Z "/><text fill="#000000" font-family="sans-serif" font-size="12" font-style="italic" lengthAdjust="spacingAndGlyphs" textLength="42" x="300.25" y="693.457">«utility»</text><text fill="#000000" font-family="sans-serif" font-size="12" lengthAdjust="spacingAndGlyphs" textLength="49" x="296.75" y="708.5508">ClassU1</text><line style="stroke: #000000; stroke-width: 1.5;" x1="203" x2="407" y1="716.1875" y2="716.1875"/><line style="stroke: #000000; stroke-width: 1.5;" x1="203" x2="407" y1="724.1875" y2="724.1875"/><text fill="#000000" font-family="sans-serif" font-size="11" lengthAdjust="spacingAndGlyphs" text-decoration="underline" textLength="194" x="208" y="739.6064">+Utility1( p1: Type1, p2: Type2, ...) : void</text><!--link Program.Program to MyLibrary1.ClassA--><path d="M226.112,184.055 C201.735,204.733 171.37,234.136 152,266 C123.727,312.511 109.006,375.161 102.4327,410.899 " fill="none" id="Program.Program-&gt;MyLibrary1.ClassA" style="stroke: #000000; stroke-width: 1.0; stroke-dasharray: 7.0,7.0;"/><polygon fill="#000000" points="101.5213,415.972,107.05,407.8213,102.4056,411.0508,99.1761,406.4064,101.5213,415.972" style="stroke: #000000; stroke-width: 1.0;"/><text fill="#000000" font-family="sans-serif" font-size="13" lengthAdjust="spacingAndGlyphs" textLength="42" x="171" y="254.4951">«uses»</text><!--reverse link MyLibrary1.Utilities.ClassU2 to MyLibrary1.ClassB--><path d="M316.032,440 C292.604,440 264.511,440 242.575,440 " fill="none" id="MyLibrary1.Utilities.ClassU2&lt;-MyLibrary1.ClassB" style="stroke: #000000; stroke-width: 1.0; stroke-dasharray: 7.0,7.0;"/><polygon fill="#000000" points="321.263,440,312.263,436,316.263,440,312.263,444,321.263,440" style="stroke: #000000; stroke-width: 1.0;"/><text fill="#000000" font-family="sans-serif" font-size="13" lengthAdjust="spacingAndGlyphs" textLength="42" x="261" y="433.4951">«uses»</text><!--link Program.Program to MyLibrary2.ClassC--><path d="M305.225,154.963 C378.659,158.926 534.959,177.902 623,266 C662.217,305.243 673.029,372.501 675.96,410.564 " fill="none" id="Program.Program-&gt;MyLibrary2.ClassC" style="stroke: #000000; stroke-width: 1.0; stroke-dasharray: 7.0,7.0;"/><polygon fill="#000000" points="676.338,415.961,679.7008,406.704,675.9894,410.9732,671.7202,407.2618,676.338,415.961" style="stroke: #000000; stroke-width: 1.0;"/><text fill="#000000" font-family="sans-serif" font-size="13" lengthAdjust="spacingAndGlyphs" textLength="42" x="609" y="254.4951">«uses»</text><!--link MyLibrary1.ClassA to Utilities.ClassU1--><path d="M109.412,464.061 C119.576,483.81 135.377,512.67 152,536 C187.584,585.942 235.043,638.106 267.616,672.136 " fill="none" id="MyLibrary1.ClassA-&gt;Utilities.ClassU1" style="stroke: #000000; stroke-width: 1.0; stroke-dasharray: 7.0,7.0;"/><polygon fill="#000000" points="271.116,675.782,267.7688,666.5194,267.6533,672.1751,261.9977,672.0596,271.116,675.782" style="stroke: #000000; stroke-width: 1.0;"/><text fill="#000000" font-family="sans-serif" font-size="13" lengthAdjust="spacingAndGlyphs" textLength="42" x="172" y="558.4951">«uses»</text><!--link MyLibrary2.ClassC to Utilities.ClassU1--><path d="M668.204,464.063 C659.335,484.9 643.961,515.376 623,536 C559.807,598.177 469.871,644.612 401.758,673.803 " fill="none" id="MyLibrary2.ClassC-&gt;Utilities.ClassU1" style="stroke: #000000; stroke-width: 1.0; stroke-dasharray: 7.0,7.0;"/><polygon fill="#000000" points="396.893,675.875,406.7407,676.027,401.4929,673.9151,403.6048,668.6672,396.893,675.875" style="stroke: #000000; stroke-width: 1.0;"/><text fill="#000000" font-family="sans-serif" font-size="13" lengthAdjust="spacingAndGlyphs" textLength="42" x="609" y="558.4951">«uses»</text><!--
@startuml paquetes

skinparam ArrowColor Black
skinparam PackageBackgroundColor WhiteSmoke
skinparam ClassBorderColor Black
skinparam ClassBackgroundColor Snow
skinparam ClassAttributeIconSize 0

package Program.exe <<executable>> {
  namespace Program  #DDDDD {
    class Program {
      - {static} Main() : void
    }
  }
}

package MyLibrary1.dll <<library>> {
  namespace MyLibrary1 #DDDDD {
    class ClassA { 
    }
    class ClassB { 
    }
    namespace MyLibrary1.Utilities {
      class ClassU2 { 
      }    
    }
  }
  Program.Program ..> MyLibrary1.ClassA : <<uses>>
  MyLibrary1.ClassB .left.> MyLibrary1.Utilities.ClassU2 : <<uses>>
}

package MyLibrary2.dll <<library>> {
  namespace MyLibrary2 #DDDDD {
    class ClassC { 
    }
    class ClassD { 
    }
    Program.Program ..> ClassC : <<uses>>
  }
}

package Utilities.dll <<library>> {
  namespace Utilities {
    class ClassU1 <<U, GreenYellow>><<utility>> { 
      + {static} Utility1( p1: Type1, p2: Type2, ...) : void
    }    
    MyLibrary1.ClassA ..> ClassU1 : <<uses>>
    MyLibrary2.ClassC ..> ClassU1 : <<uses>>
  }
}
@enduml

PlantUML version 1.2019.09(Mon Aug 26 18:19:51 CEST 2019)
(GPL source distribution)
Java Runtime: Java(TM) SE Runtime Environment
JVM: Java HotSpot(TM) 64-Bit Server VM
Java Version: 1.8.0_241-b07
Operating System: Windows 10
OS Version: 10.0
Default Encoding: Cp1252
Language: es
Country: ES
--></g></svg>