<?xml version="1.0" encoding="UTF-8" standalone="no"?>
<!DOCTYPE svg PUBLIC "-//W3C//DTD SVG 1.1//EN"
 "http://www.w3.org/Graphics/SVG/1.1/DTD/svg11.dtd">
<!-- Generated by graphviz version 2.38.0 (20140413.2041)
 -->
<!-- Title: LinkedList Pages: 1 -->
<svg width="512pt" height="121pt"
 viewBox="0.00 0.00 512.00 121.00" xmlns="http://www.w3.org/2000/svg" xmlns:xlink="http://www.w3.org/1999/xlink">
<g id="graph0" class="graph" transform="scale(1 1) rotate(0) translate(4 117)">
<title>LinkedList</title>
<polygon fill="white" stroke="none" points="-4,4 -4,-117 508,-117 508,4 -4,4"/>
<!-- n1 -->
<g id="node1" class="node"><title>n1</title>
<polygon fill="lightgrey" stroke="none" points="80,-3.5 80,-36.5 110,-36.5 110,-3.5 80,-3.5"/>
<polygon fill="none" stroke="black" points="80,-3.5 80,-36.5 110,-36.5 110,-3.5 80,-3.5"/>
<text text-anchor="start" x="89" y="-16.3" font-family="Times New Roman,serif" font-size="14.00"> &#160;&#160;</text>
<polygon fill="none" stroke="black" points="110,-3.5 110,-36.5 142,-36.5 142,-3.5 110,-3.5"/>
<text text-anchor="start" x="119" y="-16.3" font-family="Times New Roman,serif" font-size="14.00">11</text>
<polygon fill="lightgrey" stroke="none" points="142,-3.5 142,-36.5 172,-36.5 172,-3.5 142,-3.5"/>
<polygon fill="none" stroke="black" points="142,-3.5 142,-36.5 172,-36.5 172,-3.5 142,-3.5"/>
<text text-anchor="start" x="151" y="-16.3" font-family="Times New Roman,serif" font-size="14.00"> &#160;&#160;</text>
</g>
<!-- n2 -->
<g id="node2" class="node"><title>n2</title>
<polygon fill="lightgrey" stroke="none" points="206,-3.5 206,-36.5 236,-36.5 236,-3.5 206,-3.5"/>
<polygon fill="none" stroke="black" points="206,-3.5 206,-36.5 236,-36.5 236,-3.5 206,-3.5"/>
<text text-anchor="start" x="215" y="-16.3" font-family="Times New Roman,serif" font-size="14.00"> &#160;&#160;</text>
<polygon fill="none" stroke="black" points="236,-3.5 236,-36.5 268,-36.5 268,-3.5 236,-3.5"/>
<text text-anchor="start" x="245" y="-16.3" font-family="Times New Roman,serif" font-size="14.00">22</text>
<polygon fill="lightgrey" stroke="none" points="268,-3.5 268,-36.5 298,-36.5 298,-3.5 268,-3.5"/>
<polygon fill="none" stroke="black" points="268,-3.5 268,-36.5 298,-36.5 298,-3.5 268,-3.5"/>
<text text-anchor="start" x="277" y="-16.3" font-family="Times New Roman,serif" font-size="14.00"> &#160;&#160;</text>
</g>
<!-- n1&#45;&gt;n2 -->
<g id="edge3" class="edge"><title>n1:refe:c&#45;&gt;n2:refs</title>
<path fill="none" stroke="black" d="M167,-13C167,-13 197.833,-13 197.833,-13"/>
<polygon fill="black" stroke="black" points="195.833,-16.5 205.833,-13 195.833,-9.50003 195.833,-16.5"/>
<ellipse fill="black" stroke="black" cx="161" cy="-13" rx="4" ry="4"/>
</g>
<!-- n2&#45;&gt;n1 -->
<g id="edge4" class="edge"><title>n2:refs:c&#45;&gt;n1:refe</title>
<path fill="none" stroke="black" d="M211,-27C211,-27 180.167,-27 180.167,-27"/>
<polygon fill="black" stroke="black" points="182.167,-23.5 172.167,-27 182.167,-30.5 182.167,-23.5"/>
<ellipse fill="black" stroke="black" cx="217" cy="-27" rx="4" ry="4"/>
</g>
<!-- n3 -->
<g id="node3" class="node"><title>n3</title>
<polygon fill="lightgrey" stroke="none" points="332,-3.5 332,-36.5 362,-36.5 362,-3.5 332,-3.5"/>
<polygon fill="none" stroke="black" points="332,-3.5 332,-36.5 362,-36.5 362,-3.5 332,-3.5"/>
<text text-anchor="start" x="341" y="-16.3" font-family="Times New Roman,serif" font-size="14.00"> &#160;&#160;</text>
<polygon fill="none" stroke="black" points="362,-3.5 362,-36.5 394,-36.5 394,-3.5 362,-3.5"/>
<text text-anchor="start" x="371" y="-16.3" font-family="Times New Roman,serif" font-size="14.00">33</text>
<polygon fill="lightgrey" stroke="none" points="394,-3.5 394,-36.5 424,-36.5 424,-3.5 394,-3.5"/>
<polygon fill="none" stroke="black" points="394,-3.5 394,-36.5 424,-36.5 424,-3.5 394,-3.5"/>
<text text-anchor="start" x="403" y="-16.3" font-family="Times New Roman,serif" font-size="14.00"> &#160;&#160;</text>
</g>
<!-- n2&#45;&gt;n3 -->
<g id="edge5" class="edge"><title>n2:refe:c&#45;&gt;n3:refs</title>
<path fill="none" stroke="black" d="M293,-13C293,-13 323.833,-13 323.833,-13"/>
<polygon fill="black" stroke="black" points="321.833,-16.5 331.833,-13 321.833,-9.50003 321.833,-16.5"/>
<ellipse fill="black" stroke="black" cx="287" cy="-13" rx="4" ry="4"/>
</g>
<!-- n3&#45;&gt;n2 -->
<g id="edge6" class="edge"><title>n3:refs:c&#45;&gt;n2:refe</title>
<path fill="none" stroke="black" d="M337,-27C337,-27 306.167,-27 306.167,-27"/>
<polygon fill="black" stroke="black" points="308.167,-23.5 298.167,-27 308.167,-30.5 308.167,-23.5"/>
<ellipse fill="black" stroke="black" cx="343" cy="-27" rx="4" ry="4"/>
</g>
<!-- null2 -->
<g id="node6" class="node"><title>null2</title>
<text text-anchor="middle" x="477" y="-16.8" font-family="Times New Roman,serif" font-size="14.00">NULL</text>
</g>
<!-- n3&#45;&gt;null2 -->
<g id="edge7" class="edge"><title>n3:refe&#45;&gt;null2</title>
<path fill="none" stroke="black" d="M419,-20C419,-20 441.734,-20 441.734,-20"/>
<polygon fill="black" stroke="black" points="439.734,-23.5 449.734,-20 439.734,-16.5 439.734,-23.5"/>
<ellipse fill="black" stroke="black" cx="413" cy="-20" rx="4" ry="4"/>
</g>
<!-- start -->
<g id="node4" class="node"><title>start</title>
<text text-anchor="middle" x="126" y="-91.3" font-family="Times New Roman,serif" font-size="14.00">DoubleLinkedList dl</text>
</g>
<!-- start&#45;&gt;n1 -->
<g id="edge1" class="edge"><title>start:s&#45;&gt;n1</title>
<path fill="none" stroke="black" d="M126,-67C126,-67 126,-49.2177 126,-49.2177"/>
<polygon fill="black" stroke="black" points="129.5,-51.2177 126,-41.2177 122.5,-51.2177 129.5,-51.2177"/>
<ellipse fill="black" stroke="black" cx="126" cy="-73" rx="4" ry="4"/>
</g>
<!-- null1 -->
<g id="node5" class="node"><title>null1</title>
<text text-anchor="middle" x="27" y="-16.8" font-family="Times New Roman,serif" font-size="14.00">NULL</text>
</g>
<!-- null1&#45;&gt;n1 -->
<g id="edge2" class="edge"><title>null1:e&#45;&gt;n1:refs:n</title>
<path fill="none" stroke="black" d="M62,-20C62,-20 85,-20 85,-20"/>
<ellipse fill="black" stroke="black" cx="91" cy="-20" rx="4" ry="4"/>
<polygon fill="black" stroke="black" points="64,-16.5 54,-20 64,-23.5 64,-16.5"/>
</g>
</g>
</svg>
