<?xml version="1.0" encoding="UTF-8" standalone="no"?>
<!DOCTYPE svg PUBLIC "-//W3C//DTD SVG 1.1//EN"
 "http://www.w3.org/Graphics/SVG/1.1/DTD/svg11.dtd">
<!-- Generated by graphviz version 2.38.0 (20140413.2041)
 -->
<!-- Title: LinkedList Pages: 1 -->
<svg width="452pt" height="49pt"
 viewBox="0.00 0.00 451.50 49.00" xmlns="http://www.w3.org/2000/svg" xmlns:xlink="http://www.w3.org/1999/xlink">
<g id="graph0" class="graph" transform="scale(1 1) rotate(0) translate(4 45)">
<title>LinkedList</title>
<polygon fill="white" stroke="none" points="-4,4 -4,-45 447.5,-45 447.5,4 -4,4"/>
<!-- n1 -->
<g id="node1" class="node"><title>n1</title>
<polygon fill="none" stroke="black" points="109.5,-3.5 109.5,-36.5 141.5,-36.5 141.5,-3.5 109.5,-3.5"/>
<text text-anchor="start" x="118.5" y="-16.3" font-family="Times New Roman,serif" font-size="14.00">12</text>
<polygon fill="lightgrey" stroke="none" points="141.5,-3.5 141.5,-36.5 171.5,-36.5 171.5,-3.5 141.5,-3.5"/>
<polygon fill="none" stroke="black" points="141.5,-3.5 141.5,-36.5 171.5,-36.5 171.5,-3.5 141.5,-3.5"/>
<text text-anchor="start" x="150.5" y="-16.3" font-family="Times New Roman,serif" font-size="14.00"> &#160;&#160;</text>
</g>
<!-- n2 -->
<g id="node2" class="node"><title>n2</title>
<polygon fill="none" stroke="black" points="205.5,-3.5 205.5,-36.5 237.5,-36.5 237.5,-3.5 205.5,-3.5"/>
<text text-anchor="start" x="214.5" y="-16.3" font-family="Times New Roman,serif" font-size="14.00">12</text>
<polygon fill="lightgrey" stroke="none" points="237.5,-3.5 237.5,-36.5 267.5,-36.5 267.5,-3.5 237.5,-3.5"/>
<polygon fill="none" stroke="black" points="237.5,-3.5 237.5,-36.5 267.5,-36.5 267.5,-3.5 237.5,-3.5"/>
<text text-anchor="start" x="246.5" y="-16.3" font-family="Times New Roman,serif" font-size="14.00"> &#160;&#160;</text>
</g>
<!-- n1&#45;&gt;n2 -->
<g id="edge2" class="edge"><title>n1:ref:c&#45;&gt;n2:data</title>
<path fill="none" stroke="black" d="M166.5,-20C166.5,-20 197.433,-20 197.433,-20"/>
<polygon fill="black" stroke="black" points="195.433,-23.5 205.433,-20 195.433,-16.5 195.433,-23.5"/>
<ellipse fill="black" stroke="black" cx="160.5" cy="-20" rx="4" ry="4"/>
</g>
<!-- n3 -->
<g id="node3" class="node"><title>n3</title>
<polygon fill="none" stroke="black" points="301.5,-3.5 301.5,-36.5 333.5,-36.5 333.5,-3.5 301.5,-3.5"/>
<text text-anchor="start" x="310.5" y="-16.3" font-family="Times New Roman,serif" font-size="14.00">12</text>
<polygon fill="lightgrey" stroke="none" points="333.5,-3.5 333.5,-36.5 363.5,-36.5 363.5,-3.5 333.5,-3.5"/>
<polygon fill="none" stroke="black" points="333.5,-3.5 333.5,-36.5 363.5,-36.5 363.5,-3.5 333.5,-3.5"/>
<text text-anchor="start" x="342.5" y="-16.3" font-family="Times New Roman,serif" font-size="14.00"> &#160;&#160;</text>
</g>
<!-- n2&#45;&gt;n3 -->
<g id="edge3" class="edge"><title>n2:ref:c&#45;&gt;n3:data</title>
<path fill="none" stroke="black" d="M262.5,-20C262.5,-20 293.433,-20 293.433,-20"/>
<polygon fill="black" stroke="black" points="291.433,-23.5 301.433,-20 291.433,-16.5 291.433,-23.5"/>
<ellipse fill="black" stroke="black" cx="256.5" cy="-20" rx="4" ry="4"/>
</g>
<!-- null1 -->
<g id="node5" class="node"><title>null1</title>
<text text-anchor="middle" x="416.5" y="-16.8" font-family="Times New Roman,serif" font-size="14.00">NULL</text>
</g>
<!-- n3&#45;&gt;null1 -->
<g id="edge4" class="edge"><title>n3:ref:c&#45;&gt;null1</title>
<path fill="none" stroke="black" d="M358.5,-20C358.5,-20 381.234,-20 381.234,-20"/>
<polygon fill="black" stroke="black" points="379.234,-23.5 389.234,-20 379.234,-16.5 379.234,-23.5"/>
<ellipse fill="black" stroke="black" cx="352.5" cy="-20" rx="4" ry="4"/>
</g>
<!-- start -->
<g id="node4" class="node"><title>start</title>
<text text-anchor="middle" x="41.5" y="-16.8" font-family="Times New Roman,serif" font-size="14.00">LinkedList l</text>
</g>
<!-- start&#45;&gt;n1 -->
<g id="edge1" class="edge"><title>start:e&#45;&gt;n1:data</title>
<path fill="none" stroke="black" d="M93.5,-20C93.5,-20 101.382,-20 101.382,-20"/>
<polygon fill="black" stroke="black" points="99.3818,-23.5001 109.382,-20 99.3818,-16.5001 99.3818,-23.5001"/>
<ellipse fill="black" stroke="black" cx="87.5" cy="-20" rx="4" ry="4"/>
</g>
</g>
</svg>
