<?xml version="1.0" encoding="UTF-8" standalone="no"?>
<!DOCTYPE svg PUBLIC "-//W3C//DTD SVG 1.1//EN"
 "http://www.w3.org/Graphics/SVG/1.1/DTD/svg11.dtd">
<!-- Generated by graphviz version 2.38.0 (20140413.2041)
 -->
<!-- Title: LinkedList Pages: 1 -->
<svg width="352pt" height="341pt"
 viewBox="0.00 0.00 351.50 341.00" xmlns="http://www.w3.org/2000/svg" xmlns:xlink="http://www.w3.org/1999/xlink">
<g id="graph0" class="graph" transform="scale(1 1) rotate(0) translate(4 337)">
<title>LinkedList</title>
<polygon fill="white" stroke="none" points="-4,4 -4,-337 347.5,-337 347.5,4 -4,4"/>
<!-- n1 -->
<g id="node1" class="node"><title>n1</title>
<polygon fill="none" stroke="black" points="109.5,-295.5 109.5,-328.5 139.5,-328.5 139.5,-295.5 109.5,-295.5"/>
<text text-anchor="start" x="118.5" y="-308.3" font-family="Times New Roman,serif" font-size="14.00"> &#160;&#160;</text>
<polygon fill="lightgrey" stroke="none" points="139.5,-295.5 139.5,-328.5 169.5,-328.5 169.5,-295.5 139.5,-295.5"/>
<polygon fill="none" stroke="black" points="139.5,-295.5 139.5,-328.5 169.5,-328.5 169.5,-295.5 139.5,-295.5"/>
<text text-anchor="start" x="148.5" y="-308.3" font-family="Times New Roman,serif" font-size="14.00"> &#160;&#160;</text>
</g>
<!-- n2 -->
<g id="node2" class="node"><title>n2</title>
<polygon fill="none" stroke="black" points="203.5,-295.5 203.5,-328.5 233.5,-328.5 233.5,-295.5 203.5,-295.5"/>
<text text-anchor="start" x="212.5" y="-308.3" font-family="Times New Roman,serif" font-size="14.00"> &#160;&#160;</text>
<polygon fill="lightgrey" stroke="none" points="233.5,-295.5 233.5,-328.5 263.5,-328.5 263.5,-295.5 233.5,-295.5"/>
<polygon fill="none" stroke="black" points="233.5,-295.5 233.5,-328.5 263.5,-328.5 263.5,-295.5 233.5,-295.5"/>
<text text-anchor="start" x="242.5" y="-308.3" font-family="Times New Roman,serif" font-size="14.00"> &#160;&#160;</text>
</g>
<!-- n1&#45;&gt;n2 -->
<g id="edge2" class="edge"><title>n1:ref:c&#45;&gt;n2:data</title>
<path fill="none" stroke="black" d="M164.5,-312C164.5,-312 195.333,-312 195.333,-312"/>
<polygon fill="black" stroke="black" points="193.333,-315.5 203.333,-312 193.333,-308.5 193.333,-315.5"/>
<ellipse fill="black" stroke="black" cx="158.5" cy="-312" rx="4" ry="4"/>
</g>
<!-- n11 -->
<g id="node5" class="node"><title>n11</title>
<polygon fill="none" stroke="black" points="108.5,-219 108.5,-252 140.5,-252 140.5,-219 108.5,-219"/>
<text text-anchor="start" x="117.5" y="-231.8" font-family="Times New Roman,serif" font-size="14.00">22</text>
<polygon fill="lightgrey" stroke="none" points="108.5,-186 108.5,-219 140.5,-219 140.5,-186 108.5,-186"/>
<polygon fill="none" stroke="black" points="108.5,-186 108.5,-219 140.5,-219 140.5,-186 108.5,-186"/>
<text text-anchor="start" x="118.5" y="-198.8" font-family="Times New Roman,serif" font-size="14.00"> &#160;&#160;</text>
</g>
<!-- n1&#45;&gt;n11 -->
<g id="edge4" class="edge"><title>n1:data:c&#45;&gt;n11</title>
<path fill="none" stroke="black" d="M126.5,-301.5C126.5,-301.5 126.5,-264.09 126.5,-264.09"/>
<polygon fill="black" stroke="black" points="130,-266.09 126.5,-256.09 123,-266.09 130,-266.09"/>
<ellipse fill="black" stroke="black" cx="126.5" cy="-307.5" rx="4" ry="4"/>
</g>
<!-- e1 -->
<g id="node4" class="node"><title>e1</title>
<text text-anchor="middle" x="316.5" y="-308.8" font-family="Times New Roman,serif" font-size="14.00">NULL</text>
</g>
<!-- n2&#45;&gt;e1 -->
<g id="edge3" class="edge"><title>n2:ref:c&#45;&gt;e1</title>
<path fill="none" stroke="black" d="M258.5,-312C258.5,-312 281.234,-312 281.234,-312"/>
<polygon fill="black" stroke="black" points="279.234,-315.5 289.234,-312 279.234,-308.5 279.234,-315.5"/>
<ellipse fill="black" stroke="black" cx="252.5" cy="-312" rx="4" ry="4"/>
</g>
<!-- n21 -->
<g id="node8" class="node"><title>n21</title>
<polygon fill="none" stroke="black" points="202.5,-219 202.5,-252 234.5,-252 234.5,-219 202.5,-219"/>
<text text-anchor="start" x="211.5" y="-231.8" font-family="Times New Roman,serif" font-size="14.00">22</text>
<polygon fill="lightgrey" stroke="none" points="202.5,-186 202.5,-219 234.5,-219 234.5,-186 202.5,-186"/>
<polygon fill="none" stroke="black" points="202.5,-186 202.5,-219 234.5,-219 234.5,-186 202.5,-186"/>
<text text-anchor="start" x="212.5" y="-198.8" font-family="Times New Roman,serif" font-size="14.00"> &#160;&#160;</text>
</g>
<!-- n2&#45;&gt;n21 -->
<g id="edge7" class="edge"><title>n2:data:c&#45;&gt;n21</title>
<path fill="none" stroke="black" d="M220.5,-301.5C220.5,-301.5 220.5,-264.09 220.5,-264.09"/>
<polygon fill="black" stroke="black" points="224,-266.09 220.5,-256.09 217,-266.09 224,-266.09"/>
<ellipse fill="black" stroke="black" cx="220.5" cy="-307.5" rx="4" ry="4"/>
</g>
<!-- start -->
<g id="node3" class="node"><title>start</title>
<text text-anchor="middle" x="41.5" y="-308.8" font-family="Times New Roman,serif" font-size="14.00">LinkedList l</text>
</g>
<!-- start&#45;&gt;n1 -->
<g id="edge1" class="edge"><title>start:e&#45;&gt;n1:data</title>
<path fill="none" stroke="black" d="M93.5,-312C93.5,-312 101.233,-312 101.233,-312"/>
<polygon fill="black" stroke="black" points="99.2331,-315.5 109.233,-312 99.2331,-308.5 99.2331,-315.5"/>
<ellipse fill="black" stroke="black" cx="87.5" cy="-312" rx="4" ry="4"/>
</g>
<!-- n12 -->
<g id="node6" class="node"><title>n12</title>
<polygon fill="none" stroke="black" points="108.5,-109 108.5,-142 140.5,-142 140.5,-109 108.5,-109"/>
<text text-anchor="start" x="117.5" y="-121.8" font-family="Times New Roman,serif" font-size="14.00">33</text>
<polygon fill="lightgrey" stroke="none" points="108.5,-76 108.5,-109 140.5,-109 140.5,-76 108.5,-76"/>
<polygon fill="none" stroke="black" points="108.5,-76 108.5,-109 140.5,-109 140.5,-76 108.5,-76"/>
<text text-anchor="start" x="118.5" y="-88.8" font-family="Times New Roman,serif" font-size="14.00"> &#160;&#160;</text>
</g>
<!-- n11&#45;&gt;n12 -->
<g id="edge5" class="edge"><title>n11:ref:c&#45;&gt;n12:data</title>
<path fill="none" stroke="black" d="M124.5,-192C124.5,-192 124.5,-150.118 124.5,-150.118"/>
<polygon fill="black" stroke="black" points="128,-152.118 124.5,-142.118 121,-152.118 128,-152.118"/>
<ellipse fill="black" stroke="black" cx="124.5" cy="-198" rx="4" ry="4"/>
</g>
<!-- e11 -->
<g id="node7" class="node"><title>e11</title>
<text text-anchor="middle" x="124.5" y="-14.3" font-family="Times New Roman,serif" font-size="14.00">NULL</text>
</g>
<!-- n12&#45;&gt;e11 -->
<g id="edge6" class="edge"><title>n12:ref:c&#45;&gt;e11</title>
<path fill="none" stroke="black" d="M124.5,-82C124.5,-82 124.5,-44.2921 124.5,-44.2921"/>
<polygon fill="black" stroke="black" points="128,-46.2921 124.5,-36.2921 121,-46.2921 128,-46.2921"/>
<ellipse fill="black" stroke="black" cx="124.5" cy="-88" rx="4" ry="4"/>
</g>
<!-- n22 -->
<g id="node9" class="node"><title>n22</title>
<polygon fill="none" stroke="black" points="202.5,-109 202.5,-142 234.5,-142 234.5,-109 202.5,-109"/>
<text text-anchor="start" x="211.5" y="-121.8" font-family="Times New Roman,serif" font-size="14.00">33</text>
<polygon fill="lightgrey" stroke="none" points="202.5,-76 202.5,-109 234.5,-109 234.5,-76 202.5,-76"/>
<polygon fill="none" stroke="black" points="202.5,-76 202.5,-109 234.5,-109 234.5,-76 202.5,-76"/>
<text text-anchor="start" x="212.5" y="-88.8" font-family="Times New Roman,serif" font-size="14.00"> &#160;&#160;</text>
</g>
<!-- n21&#45;&gt;n22 -->
<g id="edge8" class="edge"><title>n21:ref:c&#45;&gt;n22:data</title>
<path fill="none" stroke="black" d="M218.5,-192C218.5,-192 218.5,-150.118 218.5,-150.118"/>
<polygon fill="black" stroke="black" points="222,-152.118 218.5,-142.118 215,-152.118 222,-152.118"/>
<ellipse fill="black" stroke="black" cx="218.5" cy="-198" rx="4" ry="4"/>
</g>
<!-- e22 -->
<g id="node10" class="node"><title>e22</title>
<text text-anchor="middle" x="218.5" y="-14.3" font-family="Times New Roman,serif" font-size="14.00">NULL</text>
</g>
<!-- n22&#45;&gt;e22 -->
<g id="edge9" class="edge"><title>n22:ref:c&#45;&gt;e22</title>
<path fill="none" stroke="black" d="M218.5,-82C218.5,-82 218.5,-44.2921 218.5,-44.2921"/>
<polygon fill="black" stroke="black" points="222,-46.2921 218.5,-36.2921 215,-46.2921 222,-46.2921"/>
<ellipse fill="black" stroke="black" cx="218.5" cy="-88" rx="4" ry="4"/>
</g>
</g>
</svg>
