<?xml version="1.0" encoding="UTF-8" standalone="no"?>
<!DOCTYPE svg PUBLIC "-//W3C//DTD SVG 1.1//EN"
 "http://www.w3.org/Graphics/SVG/1.1/DTD/svg11.dtd">
<!-- Generated by graphviz version 2.38.0 (20140413.2041)
 -->
<!-- Title: G Pages: 1 -->
<svg width="320pt" height="250pt"
 viewBox="0.00 0.00 320.00 250.00" xmlns="http://www.w3.org/2000/svg" xmlns:xlink="http://www.w3.org/1999/xlink">
<g id="graph0" class="graph" transform="scale(1 1) rotate(0) translate(4 246)">
<title>G</title>
<polygon fill="white" stroke="none" points="-4,4 -4,-246 316,-246 316,4 -4,4"/>
<!-- IFigura -->
<g id="node1" class="node"><title>IFigura</title>
<polygon fill="none" stroke="black" points="103,-187.5 103,-237.5 224,-237.5 224,-187.5 103,-187.5"/>
<text text-anchor="start" x="123" y="-216.3" font-family="Times New Roman,serif" font-size="14.00">&lt;&lt;interface&gt;&gt;</text>
<text text-anchor="start" x="140" y="-202.3" font-family="Times New Roman,serif" font-weight="bold" font-size="14.00">IFigura</text>
<polygon fill="none" stroke="black" points="103,-120.5 103,-187.5 224,-187.5 224,-120.5 103,-120.5"/>
<text text-anchor="start" x="114" y="-165.3" font-family="Times New Roman,serif" font-size="14.00">Dibujar() : void</text>
<text text-anchor="start" x="114" y="-150.3" font-family="Times New Roman,serif" font-size="14.00">Area() : float</text>
<text text-anchor="start" x="114" y="-135.3" font-family="Times New Roman,serif" font-size="14.00">Perimetro() : float</text>
</g>
<!-- Cuadrado -->
<g id="node2" class="node"><title>Cuadrado</title>
<polygon fill="none" stroke="black" points="8,-3.5 8,-40.5 86,-40.5 86,-3.5 8,-3.5"/>
<text text-anchor="start" x="19" y="-18.3" font-family="Times New Roman,serif" font-size="14.00">Cuadrado</text>
</g>
<!-- x -->
<g id="node5" class="node"><title>x</title>
<ellipse fill="black" stroke="black" cx="163" cy="-81" rx="0" ry="0"/>
</g>
<!-- Cuadrado&#45;&gt;x -->
<g id="edge1" class="edge"><title>Cuadrado&#45;&gt;x</title>
<path fill="none" stroke="black" stroke-dasharray="5,2" d="M47,-45.2851C47,-61.711 47,-81 47,-81 47,-81 159.403,-81 162.916,-81"/>
</g>
<!-- Rectangulo -->
<g id="node3" class="node"><title>Rectangulo</title>
<polygon fill="none" stroke="black" points="120,-3.5 120,-40.5 206,-40.5 206,-3.5 120,-3.5"/>
<text text-anchor="start" x="131" y="-18.3" font-family="Times New Roman,serif" font-size="14.00">Rectangulo</text>
</g>
<!-- Rectangulo&#45;&gt;x -->
<g id="edge2" class="edge"><title>Rectangulo&#45;&gt;x</title>
<path fill="none" stroke="black" stroke-dasharray="5,2" d="M163,-45.2851C163,-61.1977 163,-79.7972 163,-80.9442"/>
</g>
<!-- Circulo -->
<g id="node4" class="node"><title>Circulo</title>
<polygon fill="none" stroke="black" points="240,-3.5 240,-40.5 304,-40.5 304,-3.5 240,-3.5"/>
<text text-anchor="start" x="251" y="-18.3" font-family="Times New Roman,serif" font-size="14.00">Circulo</text>
</g>
<!-- Circulo&#45;&gt;x -->
<g id="edge3" class="edge"><title>Circulo&#45;&gt;x</title>
<path fill="none" stroke="black" stroke-dasharray="5,2" d="M272,-45.2851C272,-61.711 272,-81 272,-81 272,-81 166.38,-81 163.079,-81"/>
</g>
<!-- x&#45;&gt;IFigura -->
<g id="edge4" class="edge"><title>x&#45;&gt;IFigura</title>
<path fill="none" stroke="black" stroke-dasharray="5,2" d="M163,-81.0714C163,-81.0714 163,-106.787 163,-106.787"/>
<polygon fill="none" stroke="black" points="159.5,-106.787 163,-116.787 166.5,-106.787 159.5,-106.787"/>
</g>
</g>
</svg>
