<?xml version="1.0" encoding="UTF-8" standalone="no"?>
<!DOCTYPE svg PUBLIC "-//W3C//DTD SVG 1.1//EN"
 "http://www.w3.org/Graphics/SVG/1.1/DTD/svg11.dtd">
<!-- Generated by graphviz version 2.38.0 (20140413.2041)
 -->
<!-- Title: G Pages: 1 -->
<svg width="887pt" height="733pt"
 viewBox="0.00 0.00 886.50 733.00" xmlns="http://www.w3.org/2000/svg" xmlns:xlink="http://www.w3.org/1999/xlink">
<g id="graph0" class="graph" transform="scale(1 1) rotate(0) translate(4 729)">
<title>G</title>
<polygon fill="white" stroke="none" points="-4,4 -4,-729 882.5,-729 882.5,4 -4,4"/>
<!-- IMedia -->
<g id="node1" class="node"><title>IMedia</title>
<polygon fill="none" stroke="black" points="316,-671 316,-721 516,-721 516,-671 316,-671"/>
<text text-anchor="start" x="375.5" y="-699.8" font-family="Times New Roman,serif" font-size="14.00">&lt;&lt;interface&gt;&gt;</text>
<text text-anchor="start" x="393.5" y="-685.8" font-family="Times New Roman,serif" font-weight="bold" font-size="14.00">IMedia</text>
<polygon fill="none" stroke="black" points="316,-559 316,-671 516,-671 516,-559 316,-559"/>
<text text-anchor="start" x="327" y="-648.8" font-family="Times New Roman,serif" font-size="14.00">Play() : void</text>
<text text-anchor="start" x="327" y="-633.8" font-family="Times New Roman,serif" font-size="14.00">Stop() : void</text>
<text text-anchor="start" x="327" y="-618.8" font-family="Times New Roman,serif" font-size="14.00">Pause() : void</text>
<text text-anchor="start" x="327" y="-603.8" font-family="Times New Roman,serif" font-size="14.00">Next() : void</text>
<text text-anchor="start" x="327" y="-588.8" font-family="Times New Roman,serif" font-size="14.00">Previous() : void</text>
<text text-anchor="start" x="327" y="-573.8" font-family="Times New Roman,serif" font-size="14.00">GetMessageToDisplay() : string</text>
</g>
<!-- Disc -->
<g id="node2" class="node"><title>Disc</title>
<polygon fill="none" stroke="black" points="548,-153 548,-190 871,-190 871,-153 548,-153"/>
<text text-anchor="start" x="695.5" y="-168.8" font-family="Times New Roman,serif" font-weight="bold" font-size="14.00">Disc</text>
<polygon fill="none" stroke="black" points="548,-86 548,-153 871,-153 871,-86 548,-86"/>
<text text-anchor="start" x="559" y="-130.8" font-family="Times New Roman,serif" font-size="14.00">&#45; album : string</text>
<text text-anchor="start" x="559" y="-115.8" font-family="Times New Roman,serif" font-size="14.00">&#45; artist : string</text>
<text text-anchor="start" x="559" y="-100.8" font-family="Times New Roman,serif" font-size="14.00">&#45; songs : string[1..*]</text>
<polygon fill="none" stroke="black" points="548,-4 548,-86 871,-86 871,-4 548,-4"/>
<text text-anchor="start" x="559" y="-63.8" font-family="Times New Roman,serif" font-size="14.00">+ Disc(in songs : string, artist : string, songs : string[])</text>
<text text-anchor="start" x="559" y="-48.8" font-family="Times New Roman,serif" font-size="14.00">+ GetNumTracks() : int</text>
<text text-anchor="start" x="559" y="-33.8" font-family="Times New Roman,serif" font-size="14.00">+ this[in int : song] : string {get}</text>
<text text-anchor="start" x="559" y="-18.8" font-family="Times New Roman,serif" font-size="14.00">+ ToString() : string</text>
</g>
<!-- CDPlayer -->
<g id="node3" class="node"><title>CDPlayer</title>
<polygon fill="none" stroke="black" points="600,-441.5 600,-478.5 818,-478.5 818,-441.5 600,-441.5"/>
<text text-anchor="start" x="678.5" y="-457.3" font-family="Times New Roman,serif" font-weight="bold" font-size="14.00">CDPlayer</text>
<polygon fill="none" stroke="black" points="600,-389.5 600,-441.5 818,-441.5 818,-389.5 600,-389.5"/>
<text text-anchor="start" x="611" y="-419.3" font-family="Times New Roman,serif" font-size="14.00">&#45; track : ushort</text>
<text text-anchor="start" x="611" y="-404.3" font-family="Times New Roman,serif" font-size="14.00">&#45; state : MediaState</text>
<polygon fill="none" stroke="black" points="600,-307.5 600,-389.5 818,-389.5 818,-307.5 600,-307.5"/>
<text text-anchor="start" x="611" y="-367.3" font-family="Times New Roman,serif" font-size="14.00">+ CDPlayer()</text>
<text text-anchor="start" x="611" y="-352.3" font-family="Times New Roman,serif" font-size="14.00">+ GetMediaIn() : bool</text>
<text text-anchor="start" x="611" y="-337.3" font-family="Times New Roman,serif" font-size="14.00">+ InsertMedia(in disc : Disc) : void</text>
<text text-anchor="start" x="611" y="-322.3" font-family="Times New Roman,serif" font-size="14.00">+ ExtractMedia() : bool</text>
</g>
<!-- Disc&#45;&gt;CDPlayer -->
<g id="edge7" class="edge"><title>Disc&#45;&gt;CDPlayer</title>
<path fill="none" stroke="black" stroke-dasharray="5,2" d="M709,-204.085C709,-204.085 709,-303.729 709,-303.729"/>
<polygon fill="black" stroke="black" points="709,-194.085 713.5,-204.085 709,-199.085 709,-204.085 709,-204.085 709,-204.085 709,-199.085 704.5,-204.085 709,-194.085 709,-194.085"/>
<text text-anchor="middle" x="716.396" y="-284.169" font-family="Times New Roman,serif" font-size="14.00">&lt;&lt;use&gt;&gt;</text>
<text text-anchor="middle" x="701.604" y="-206.246" font-family="Times New Roman,serif" font-size="14.00">0..1</text>
</g>
<!-- x -->
<g id="node7" class="node"><title>x</title>
<ellipse fill="black" stroke="black" cx="416" cy="-519" rx="0" ry="0"/>
</g>
<!-- CDPlayer&#45;&gt;x -->
<g id="edge1" class="edge"><title>CDPlayer&#45;&gt;x</title>
<path fill="none" stroke="black" stroke-dasharray="5,2" d="M709,-483.037C709,-503.316 709,-519 709,-519 709,-519 420.56,-519 416.053,-519"/>
</g>
<!-- DABRadio -->
<g id="node4" class="node"><title>DABRadio</title>
<polygon fill="none" stroke="black" points="8,-441.5 8,-478.5 232,-478.5 232,-441.5 8,-441.5"/>
<text text-anchor="start" x="86.5" y="-457.3" font-family="Times New Roman,serif" font-weight="bold" font-size="14.00">DABRadio</text>
<polygon fill="none" stroke="black" points="8,-344.5 8,-441.5 232,-441.5 232,-344.5 8,-344.5"/>
<text text-anchor="start" x="19" y="-419.3" font-family="Times New Roman,serif" font-size="14.00">&#45; SEEK_STEP : float const</text>
<text text-anchor="start" x="19" y="-404.3" font-family="Times New Roman,serif" font-size="14.00">&#45; MAX_FREQUENCY : float const</text>
<text text-anchor="start" x="19" y="-389.3" font-family="Times New Roman,serif" font-size="14.00">&#45; MIN_FREQUENCY : float const</text>
<text text-anchor="start" x="19" y="-374.3" font-family="Times New Roman,serif" font-size="14.00">&#45; frequency : float</text>
<text text-anchor="start" x="19" y="-359.3" font-family="Times New Roman,serif" font-size="14.00">&#45; state : MediaState</text>
<polygon fill="none" stroke="black" points="8,-307.5 8,-344.5 232,-344.5 232,-307.5 8,-307.5"/>
<text text-anchor="start" x="19" y="-322.3" font-family="Times New Roman,serif" font-size="14.00">+ DABRadio()</text>
</g>
<!-- DABRadioCD -->
<g id="node6" class="node"><title>DABRadioCD</title>
<polygon fill="none" stroke="black" points="302,-434.5 302,-471.5 530,-471.5 530,-434.5 302,-434.5"/>
<text text-anchor="start" x="372" y="-450.3" font-family="Times New Roman,serif" font-weight="bold" font-size="14.00">DABRadioCD</text>
<polygon fill="none" stroke="black" points="302,-397.5 302,-434.5 530,-434.5 530,-397.5 302,-397.5"/>
<text text-anchor="start" x="313" y="-412.3" font-family="Times New Roman,serif" font-size="14.00">&#45; activeDevice : IMedia</text>
<polygon fill="none" stroke="black" points="302,-315.5 302,-397.5 530,-397.5 530,-315.5 302,-315.5"/>
<text text-anchor="start" x="313" y="-375.3" font-family="Times New Roman,serif" font-size="14.00">+ DABRadioCD()</text>
<text text-anchor="start" x="313" y="-360.3" font-family="Times New Roman,serif" font-size="14.00">+ SetInsertCD(in disco : Disc) : void</text>
<text text-anchor="start" x="313" y="-345.3" font-family="Times New Roman,serif" font-size="14.00">+ ExtratCD() : void</text>
<text text-anchor="start" x="313" y="-330.3" font-family="Times New Roman,serif" font-size="14.00">+ SwitchMode() : void</text>
</g>
<!-- DABRadio&#45;&gt;DABRadioCD -->
<g id="edge6" class="edge"><title>DABRadio&#45;&gt;DABRadioCD</title>
<path fill="none" stroke="black" d="M240.395,-394C240.395,-394 281.79,-394 281.79,-394"/>
<polygon fill="black" stroke="black" points="281.79,-394 287.79,-390 293.79,-394 287.79,-398 281.79,-394"/>
<text text-anchor="middle" x="256.255" y="-397.696" font-family="Times New Roman,serif" font-size="14.00">1</text>
</g>
<!-- DABRadio&#45;&gt;x -->
<g id="edge2" class="edge"><title>DABRadio&#45;&gt;x</title>
<path fill="none" stroke="black" stroke-dasharray="5,2" d="M120,-483.037C120,-503.316 120,-519 120,-519 120,-519 411.393,-519 415.946,-519"/>
</g>
<!-- MediaState -->
<g id="node5" class="node"><title>MediaState</title>
<polygon fill="none" stroke="black" points="308,-105 308,-155 431,-155 431,-105 308,-105"/>
<text text-anchor="start" x="319" y="-133.8" font-family="Times New Roman,serif" font-size="14.00">&lt;&lt;enumeration&gt;&gt;</text>
<text text-anchor="start" x="334" y="-119.8" font-family="Times New Roman,serif" font-weight="bold" font-size="14.00">MediaState</text>
<polygon fill="none" stroke="black" points="308,-38 308,-105 431,-105 431,-38 308,-38"/>
<text text-anchor="start" x="319" y="-82.8" font-family="Times New Roman,serif" font-size="14.00">Playing</text>
<text text-anchor="start" x="319" y="-67.8" font-family="Times New Roman,serif" font-size="14.00">Stopped</text>
<text text-anchor="start" x="319" y="-52.8" font-family="Times New Roman,serif" font-size="14.00">Paused</text>
</g>
<!-- MediaState&#45;&gt;CDPlayer -->
<g id="edge8" class="edge"><title>MediaState&#45;&gt;CDPlayer</title>
<path fill="none" stroke="black" stroke-dasharray="5,2" d="M392.167,-169.722C392.167,-169.722 392.167,-307 392.167,-307 392.167,-307 501.669,-307 591.923,-307"/>
<polygon fill="black" stroke="black" points="392.167,-159.722 396.667,-169.722 392.167,-164.722 392.167,-169.722 392.167,-169.722 392.167,-169.722 392.167,-164.722 387.667,-169.723 392.167,-159.722 392.167,-159.722"/>
<text text-anchor="middle" x="576.063" y="-295.904" font-family="Times New Roman,serif" font-size="14.00">&lt;&lt;use&gt;&gt;</text>
</g>
<!-- MediaState&#45;&gt;DABRadio -->
<g id="edge9" class="edge"><title>MediaState&#45;&gt;DABRadio</title>
<path fill="none" stroke="black" stroke-dasharray="5,2" d="M345.833,-169.747C345.833,-169.747 345.833,-309 345.833,-309 345.833,-309 294.123,-309 240.19,-309"/>
<polygon fill="black" stroke="black" points="345.833,-159.747 350.333,-169.746 345.833,-164.747 345.833,-169.747 345.833,-169.747 345.833,-169.747 345.833,-164.747 341.333,-169.747 345.833,-159.747 345.833,-159.747"/>
<text text-anchor="middle" x="256.05" y="-312.696" font-family="Times New Roman,serif" font-size="14.00">&lt;&lt;use&gt;&gt;</text>
</g>
<!-- DABRadioCD&#45;&gt;CDPlayer -->
<g id="edge5" class="edge"><title>DABRadioCD&#45;&gt;CDPlayer</title>
<path fill="none" stroke="black" d="M550.137,-394C550.137,-394 591.758,-394 591.758,-394"/>
<polygon fill="black" stroke="black" points="550.137,-394 544.137,-398 538.137,-394 544.137,-390 550.137,-394"/>
<text text-anchor="middle" x="575.898" y="-382.904" font-family="Times New Roman,serif" font-size="14.00">1</text>
</g>
<!-- DABRadioCD&#45;&gt;x -->
<g id="edge3" class="edge"><title>DABRadioCD&#45;&gt;x</title>
<path fill="none" stroke="black" stroke-dasharray="5,2" d="M416,-475.81C416,-498.726 416,-517.775 416,-518.943"/>
</g>
<!-- x&#45;&gt;IMedia -->
<g id="edge4" class="edge"><title>x&#45;&gt;IMedia</title>
<path fill="none" stroke="black" stroke-dasharray="5,2" d="M416,-519.088C416,-519.088 416,-544.716 416,-544.716"/>
<polygon fill="none" stroke="black" points="412.5,-544.716 416,-554.716 419.5,-544.716 412.5,-544.716"/>
</g>
</g>
</svg>
