<?xml version="1.0" encoding="UTF-8" standalone="no"?><svg xmlns="http://www.w3.org/2000/svg" xmlns:xlink="http://www.w3.org/1999/xlink" contentScriptType="application/ecmascript" contentStyleType="text/css" height="658px" preserveAspectRatio="none" style="width:787px;height:658px;" version="1.1" viewBox="0 0 787 658" width="787px" zoomAndPan="magnify"><defs><filter height="300%" id="f4bqm8iz63en3" width="300%" x="-1" y="-1"><feGaussianBlur result="blurOut" stdDeviation="2.0"/><feColorMatrix in="blurOut" result="blurOut2" type="matrix" values="0 0 0 0 0 0 0 0 0 0 0 0 0 0 0 0 0 0 .4 0"/><feOffset dx="4.0" dy="4.0" in="blurOut2" result="blurOut3"/><feBlend in="SourceGraphic" in2="blurOut3" mode="normal"/></filter></defs><g><!--cluster Program.exe--><polygon fill="#F5F5F5" filter="url(#f4bqm8iz63en3)" points="211,24,306,24,313,47.6094,422,47.6094,422,256,211,256,211,24" style="stroke: #000000; stroke-width: 1.5;"/><line style="stroke: #000000; stroke-width: 1.5;" x1="211" x2="313" y1="47.6094" y2="47.6094"/><text fill="#000000" font-family="sans-serif" font-size="14" font-weight="bold" lengthAdjust="spacingAndGlyphs" textLength="89" x="215" y="40.5332">Program.exe</text><text fill="#000000" font-family="sans-serif" font-size="14" font-style="italic" lengthAdjust="spacingAndGlyphs" textLength="84" x="278.5" y="64.1426">«executable»</text><!--cluster Program--><polygon fill="#FFFFFF" filter="url(#f4bqm8iz63en3)" points="243,94,308,94,315,117.6094,390,117.6094,390,224,243,224,243,94" style="stroke: #000000; stroke-width: 1.5;"/><line style="stroke: #000000; stroke-width: 1.5;" x1="243" x2="315" y1="117.6094" y2="117.6094"/><text fill="#000000" font-family="sans-serif" font-size="14" font-weight="bold" lengthAdjust="spacingAndGlyphs" textLength="59" x="247" y="110.5332">Program</text><!--cluster System.dll--><polygon fill="#F5F5F5" filter="url(#f4bqm8iz63en3)" points="22,306,99,306,106,329.6094,765,329.6094,765,646,22,646,22,306" style="stroke: #000000; stroke-width: 1.5;"/><line style="stroke: #000000; stroke-width: 1.5;" x1="22" x2="106" y1="329.6094" y2="329.6094"/><text fill="#000000" font-family="sans-serif" font-size="14" font-weight="bold" lengthAdjust="spacingAndGlyphs" textLength="71" x="26" y="322.5332">System.dll</text><text fill="#000000" font-family="sans-serif" font-size="14" font-style="italic" lengthAdjust="spacingAndGlyphs" textLength="55" x="370" y="346.1426">«library»</text><!--cluster System--><polygon fill="#FFFFFF" filter="url(#f4bqm8iz63en3)" points="54,376,110,376,117,399.6094,733,399.6094,733,614,54,614,54,376" style="stroke: #000000; stroke-width: 1.5;"/><line style="stroke: #000000; stroke-width: 1.5;" x1="54" x2="117" y1="399.6094" y2="399.6094"/><text fill="#000000" font-family="sans-serif" font-size="14" font-weight="bold" lengthAdjust="spacingAndGlyphs" textLength="50" x="58" y="392.5332">System</text><!--cluster System.IO--><polygon fill="#F5F5F5" filter="url(#f4bqm8iz63en3)" points="288,436,309,436,316,459.6094,693,459.6094,693,574,288,574,288,436" style="stroke: #000000; stroke-width: 1.5;"/><line style="stroke: #000000; stroke-width: 1.5;" x1="288" x2="316" y1="459.6094" y2="459.6094"/><text fill="#000000" font-family="sans-serif" font-size="14" font-weight="bold" lengthAdjust="spacingAndGlyphs" textLength="15" x="292" y="452.5332">IO</text><!--class Program.Program--><rect fill="#FFFAFA" filter="url(#f4bqm8iz63en3)" height="61.8359" id="Program.Program" style="stroke: #000000; stroke-width: 1.5;" width="80" x="286" y="138"/><ellipse cx="301" cy="154" fill="#ADD1B2" rx="11" ry="11" style="stroke: #000000; stroke-width: 1.0;"/><path d="M303.7656,149.875 Q303.9219,149.6563 304.1094,149.5469 Q304.2969,149.4375 304.5156,149.4375 Q304.8906,149.4375 305.125,149.6953 Q305.3594,149.9531 305.3594,150.5625 L305.3594,152.0156 Q305.3594,152.625 305.125,152.8906 Q304.8906,153.1563 304.5156,153.1563 Q304.1719,153.1563 303.9688,152.9531 Q303.7656,152.7656 303.6563,152.25 Q303.6094,151.8906 303.4219,151.7031 Q303.0938,151.3281 302.4844,151.1094 Q301.875,150.8906 301.25,150.8906 Q300.4844,150.8906 299.8516,151.2188 Q299.2188,151.5469 298.7266,152.2969 Q298.2344,153.0469 298.2344,154.0781 L298.2344,155.1719 Q298.2344,156.4063 299.125,157.2266 Q300.0156,158.0469 301.6094,158.0469 Q302.5469,158.0469 303.2031,157.7969 Q303.5938,157.6406 304.0156,157.2031 Q304.2813,156.9375 304.4297,156.8594 Q304.5781,156.7813 304.7813,156.7813 Q305.1094,156.7813 305.3672,157.0391 Q305.625,157.2969 305.625,157.6406 Q305.625,157.9844 305.2813,158.3906 Q304.7813,158.9688 303.9844,159.2969 Q302.9063,159.75 301.6094,159.75 Q300.0938,159.75 298.8906,159.125 Q297.9063,158.625 297.2188,157.5547 Q296.5313,156.4844 296.5313,155.2031 L296.5313,154.0469 Q296.5313,152.7188 297.1484,151.5703 Q297.7656,150.4219 298.8594,149.8047 Q299.9531,149.1875 301.1875,149.1875 Q301.9219,149.1875 302.5703,149.3516 Q303.2188,149.5156 303.7656,149.875 Z "/><text fill="#000000" font-family="sans-serif" font-size="12" lengthAdjust="spacingAndGlyphs" textLength="48" x="315" y="158.9102">Program</text><line style="stroke: #000000; stroke-width: 1.5;" x1="287" x2="365" y1="170" y2="170"/><line style="stroke: #000000; stroke-width: 1.5;" x1="287" x2="365" y1="178" y2="178"/><text fill="#000000" font-family="sans-serif" font-size="11" lengthAdjust="spacingAndGlyphs" text-decoration="underline" textLength="63" x="292" y="193.4189">-Main() : void</text><!--class System.Console--><rect fill="#FFFAFA" filter="url(#f4bqm8iz63en3)" height="70.0234" id="System.Console" style="stroke: #000000; stroke-width: 1.5;" width="163" x="97.5" y="480"/><ellipse cx="151.25" cy="500.0938" fill="#ADFF2F" rx="11" ry="11" style="stroke: #000000; stroke-width: 1.0;"/><path d="M155.7344,497.4844 L155.7344,502.3125 Q155.7344,503.8906 154.6016,504.9922 Q153.4688,506.0938 151.875,506.0938 Q151.0938,506.0938 150.3984,505.8125 Q149.7031,505.5313 149.1484,504.9922 Q148.5938,504.4531 148.2891,503.8672 Q147.9844,503.2813 147.9844,502.3125 L147.9844,497.4844 Q147.4531,497.4844 147.1953,497.2422 Q146.9375,497 146.9375,496.625 Q146.9375,496.25 147.1953,496.0156 Q147.4531,495.7813 148.0625,495.7813 L150.2969,495.7813 Q150.9219,495.7813 151.1797,496.0156 Q151.4375,496.25 151.4375,496.625 Q151.4375,497.0156 151.1797,497.25 Q150.9219,497.4844 150.2969,497.4844 L149.6875,497.4844 L149.6875,502.4531 Q149.6875,503.2188 150.3203,503.8047 Q150.9531,504.3906 151.8594,504.3906 Q152.4531,504.3906 152.9766,504.1094 Q153.5,503.8281 153.8281,503.2813 Q154.0313,502.9531 154.0313,502.4531 L154.0313,497.4844 L153.4219,497.4844 Q152.8125,497.4844 152.5469,497.25 Q152.2813,497.0156 152.2813,496.625 Q152.2813,496.25 152.5469,496.0156 Q152.8125,495.7813 153.4219,495.7813 L155.6563,495.7813 Q156.2656,495.7813 156.5313,496.0156 Q156.7969,496.25 156.7969,496.625 Q156.7969,497 156.5391,497.2422 Q156.2813,497.4844 155.7344,497.4844 Z "/><text fill="#000000" font-family="sans-serif" font-size="12" font-style="italic" lengthAdjust="spacingAndGlyphs" textLength="42" x="174.25" y="497.457">«utility»</text><text fill="#000000" font-family="sans-serif" font-size="12" lengthAdjust="spacingAndGlyphs" textLength="47" x="171.75" y="512.5508">Console</text><line style="stroke: #000000; stroke-width: 1.5;" x1="98.5" x2="259.5" y1="520.1875" y2="520.1875"/><line style="stroke: #000000; stroke-width: 1.5;" x1="98.5" x2="259.5" y1="528.1875" y2="528.1875"/><text fill="#000000" font-family="sans-serif" font-size="11" lengthAdjust="spacingAndGlyphs" text-decoration="underline" textLength="151" x="103.5" y="543.6064">+WriteLine(value : String) : void</text><!--class System.IO.Directory--><rect fill="#FFFAFA" filter="url(#f4bqm8iz63en3)" height="70.0234" id="System.IO.Directory" style="stroke: #000000; stroke-width: 1.5;" width="143" x="331.5" y="480"/><ellipse cx="374.85" cy="500.0938" fill="#ADFF2F" rx="11" ry="11" style="stroke: #000000; stroke-width: 1.0;"/><path d="M379.3344,497.4844 L379.3344,502.3125 Q379.3344,503.8906 378.2016,504.9922 Q377.0688,506.0938 375.475,506.0938 Q374.6938,506.0938 373.9984,505.8125 Q373.3031,505.5313 372.7484,504.9922 Q372.1938,504.4531 371.8891,503.8672 Q371.5844,503.2813 371.5844,502.3125 L371.5844,497.4844 Q371.0531,497.4844 370.7953,497.2422 Q370.5375,497 370.5375,496.625 Q370.5375,496.25 370.7953,496.0156 Q371.0531,495.7813 371.6625,495.7813 L373.8969,495.7813 Q374.5219,495.7813 374.7797,496.0156 Q375.0375,496.25 375.0375,496.625 Q375.0375,497.0156 374.7797,497.25 Q374.5219,497.4844 373.8969,497.4844 L373.2875,497.4844 L373.2875,502.4531 Q373.2875,503.2188 373.9203,503.8047 Q374.5531,504.3906 375.4594,504.3906 Q376.0531,504.3906 376.5766,504.1094 Q377.1,503.8281 377.4281,503.2813 Q377.6313,502.9531 377.6313,502.4531 L377.6313,497.4844 L377.0219,497.4844 Q376.4125,497.4844 376.1469,497.25 Q375.8813,497.0156 375.8813,496.625 Q375.8813,496.25 376.1469,496.0156 Q376.4125,495.7813 377.0219,495.7813 L379.2563,495.7813 Q379.8656,495.7813 380.1313,496.0156 Q380.3969,496.25 380.3969,496.625 Q380.3969,497 380.1391,497.2422 Q379.8813,497.4844 379.3344,497.4844 Z "/><text fill="#000000" font-family="sans-serif" font-size="12" font-style="italic" lengthAdjust="spacingAndGlyphs" textLength="42" x="398.15" y="497.457">«utility»</text><text fill="#000000" font-family="sans-serif" font-size="12" lengthAdjust="spacingAndGlyphs" textLength="48" x="395.15" y="512.5508">Directory</text><line style="stroke: #000000; stroke-width: 1.5;" x1="332.5" x2="473.5" y1="520.1875" y2="520.1875"/><line style="stroke: #000000; stroke-width: 1.5;" x1="332.5" x2="473.5" y1="528.1875" y2="528.1875"/><text fill="#000000" font-family="sans-serif" font-size="11" lengthAdjust="spacingAndGlyphs" text-decoration="underline" textLength="131" x="337.5" y="543.6064">+Delete( path: String) : void</text><!--class System.IO.FileNotFoundException--><rect fill="#FFFAFA" filter="url(#f4bqm8iz63en3)" height="61.8359" id="System.IO.FileNotFoundException" style="stroke: #000000; stroke-width: 1.5;" width="159" x="509.5" y="484"/><ellipse cx="524.5" cy="500" fill="#ADD1B2" rx="11" ry="11" style="stroke: #000000; stroke-width: 1.0;"/><path d="M527.2656,495.875 Q527.4219,495.6563 527.6094,495.5469 Q527.7969,495.4375 528.0156,495.4375 Q528.3906,495.4375 528.625,495.6953 Q528.8594,495.9531 528.8594,496.5625 L528.8594,498.0156 Q528.8594,498.625 528.625,498.8906 Q528.3906,499.1563 528.0156,499.1563 Q527.6719,499.1563 527.4688,498.9531 Q527.2656,498.7656 527.1563,498.25 Q527.1094,497.8906 526.9219,497.7031 Q526.5938,497.3281 525.9844,497.1094 Q525.375,496.8906 524.75,496.8906 Q523.9844,496.8906 523.3516,497.2188 Q522.7188,497.5469 522.2266,498.2969 Q521.7344,499.0469 521.7344,500.0781 L521.7344,501.1719 Q521.7344,502.4063 522.625,503.2266 Q523.5156,504.0469 525.1094,504.0469 Q526.0469,504.0469 526.7031,503.7969 Q527.0938,503.6406 527.5156,503.2031 Q527.7813,502.9375 527.9297,502.8594 Q528.0781,502.7813 528.2813,502.7813 Q528.6094,502.7813 528.8672,503.0391 Q529.125,503.2969 529.125,503.6406 Q529.125,503.9844 528.7813,504.3906 Q528.2813,504.9688 527.4844,505.2969 Q526.4063,505.75 525.1094,505.75 Q523.5938,505.75 522.3906,505.125 Q521.4063,504.625 520.7188,503.5547 Q520.0313,502.4844 520.0313,501.2031 L520.0313,500.0469 Q520.0313,498.7188 520.6484,497.5703 Q521.2656,496.4219 522.3594,495.8047 Q523.4531,495.1875 524.6875,495.1875 Q525.4219,495.1875 526.0703,495.3516 Q526.7188,495.5156 527.2656,495.875 Z "/><text fill="#000000" font-family="sans-serif" font-size="12" lengthAdjust="spacingAndGlyphs" textLength="127" x="538.5" y="504.9102">FileNotFoundException</text><line style="stroke: #000000; stroke-width: 1.5;" x1="510.5" x2="667.5" y1="516" y2="516"/><line style="stroke: #000000; stroke-width: 1.5;" x1="510.5" x2="667.5" y1="524" y2="524"/><text fill="#000000" font-family="sans-serif" font-size="11" lengthAdjust="spacingAndGlyphs" textLength="112" x="515.5" y="539.4189">+GetMessage() : String</text><!--link Program.Program to System.Console--><path d="M319.764,200.24 C313.758,225.382 303.174,261.523 287,290 C284.667,294.108 282.582,294.043 280,298 C242.132,356.038 210.601,430.533 193.312,475.146 " fill="none" id="Program.Program-&gt;System.Console" style="stroke: #000000; stroke-width: 1.0; stroke-dasharray: 7.0,7.0;"/><polygon fill="#000000" points="191.479,479.902,198.4485,472.9431,193.2774,475.2366,190.9839,470.0656,191.479,479.902" style="stroke: #000000; stroke-width: 1.0;"/><text fill="#000000" font-family="sans-serif" font-size="13" lengthAdjust="spacingAndGlyphs" textLength="35" x="296" y="286.4951">«use»</text><!--link Program.Program to System.IO.Directory--><path d="M339.077,200.289 C347.275,220.318 357.486,247.334 364,272 C382.557,342.267 393.711,426.479 399.081,474.76 " fill="none" id="Program.Program-&gt;System.IO.Directory" style="stroke: #000000; stroke-width: 1.0; stroke-dasharray: 7.0,7.0;"/><polygon fill="#000000" points="399.645,479.892,402.6361,470.5083,399.0979,474.922,394.6842,471.3838,399.645,479.892" style="stroke: #000000; stroke-width: 1.0;"/><text fill="#000000" font-family="sans-serif" font-size="13" lengthAdjust="spacingAndGlyphs" textLength="35" x="369" y="286.4951">«use»</text><!--link Program.Program to System.IO.FileNotFoundException--><path d="M366.102,192.933 C402.885,215.649 456.834,253.431 492,298 C536.345,354.203 565.246,433.901 579.193,479.117 " fill="none" id="Program.Program-&gt;System.IO.FileNotFoundException" style="stroke: #000000; stroke-width: 1.0; stroke-dasharray: 7.0,7.0;"/><polygon fill="#000000" points="580.659,483.919,581.859,474.1435,579.2001,479.1366,574.2071,476.4777,580.659,483.919" style="stroke: #000000; stroke-width: 1.0;"/><text fill="#000000" font-family="sans-serif" font-size="13" lengthAdjust="spacingAndGlyphs" textLength="35" x="485" y="286.4951">«use»</text><!--link Program to System--><path d="M242.9036,173.1963 C242.3893,173.4081 241.853,173.6303 241.2955,173.8629 C240.1804,174.3282 238.9803,174.835 237.7011,175.3832 C235.1427,176.4797 232.2679,177.7416 229.1237,179.1671 C216.5469,184.8693 199.6608,193.1896 181.4808,204.0105 C145.1208,225.6522 103.5855,257.296 81,298 C57.9864,339.4755 53.0241,392.4493 53.9189,435.5553 C53.9328,436.2288 53.9483,436.8999 53.965,437.5685 C53.9734,437.9029 53.9822,438.2365 53.9913,438.5696 " fill="none" id="Program-&gt;System" style="stroke: #000000; stroke-width: 1.0; stroke-dasharray: 7.0,7.0;"/><polygon fill="#000000" points="53.9913,438.5696,57.7444,429.4639,53.855,433.5715,49.7474,429.682,53.9913,438.5696" style="stroke: #000000; stroke-width: 1.0;"/><text fill="#000000" font-family="sans-serif" font-size="13" lengthAdjust="spacingAndGlyphs" textLength="56" x="98" y="286.4951">«access»</text><!--link Program to System.IO--><path d="M242.7876,181.5758 C242.7093,181.6938 242.6306,181.8127 242.5516,181.9323 C242.3936,182.1714 242.2341,182.4136 242.0733,182.6588 C241.7518,183.1492 241.4248,183.6514 241.0931,184.1651 C235.7858,192.3839 229.2568,203.5352 223.9008,215.8667 C213.1888,240.5297 207.169,269.9135 225,290 C244.909,312.428 271.884,275.758 292,298 C307.8495,315.525 309.0663,368.1245 306.2148,417.0266 C305.8583,423.1394 305.4383,429.1944 304.9754,435.1159 " fill="none" id="Program-&gt;System.IO" style="stroke: #000000; stroke-width: 1.0; stroke-dasharray: 7.0,7.0;"/><polygon fill="#000000" points="304.9754,435.1159,309.6647,426.455,305.3651,430.1311,301.689,425.8315,304.9754,435.1159" style="stroke: #000000; stroke-width: 1.0;"/><text fill="#000000" font-family="sans-serif" font-size="13" lengthAdjust="spacingAndGlyphs" textLength="56" x="226" y="286.4951">«access»</text><!--
@startuml Ejemplo

skinparam ArrowColor Black
skinparam PackageBackgroundColor WhiteSmoke
skinparam ClassBorderColor Black
skinparam ClassBackgroundColor Snow
skinparam ClassAttributeIconSize 0

package Program.exe <<executable>> {
  namespace Program  #DDDDD {
    class Program {
      - {static} Main() : void
    }
  }
}

package System.dll <<library>> {
  namespace System #DDDDD {
    class Console <<U, GreenYellow>><<utility>>{ 
      + {static} WriteLine(value : String) : void
    }

    Program.Program ..> Console : <<use>>
  }

  namespace System.IO {
    class Directory <<U, GreenYellow>><<utility>> { 
      + {static} Delete( path: String) : void
    }    
    class FileNotFoundException { 
      + GetMessage() : String
    }    
    Program.Program ..> Directory : <<use>>
    Program.Program ..> FileNotFoundException : <<use>>
  }
}

Program ..> System : <<access>>
Program ..> System.IO : <<access>>
@enduml

PlantUML version 1.2019.09(Mon Aug 26 18:19:51 CEST 2019)
(GPL source distribution)
Java Runtime: Java(TM) SE Runtime Environment
JVM: Java HotSpot(TM) 64-Bit Server VM
Java Version: 1.8.0_241-b07
Operating System: Windows 10
OS Version: 10.0
Default Encoding: Cp1252
Language: es
Country: ES
--></g></svg>