<?xml version="1.0" encoding="UTF-8" standalone="no"?>
<!-- Generated by graphviz version 2.38.0 (20140413.2041)
 -->

<!-- Title: G Pages: 1 -->

<svg
   xmlns:dc="http://purl.org/dc/elements/1.1/"
   xmlns:cc="http://creativecommons.org/ns#"
   xmlns:rdf="http://www.w3.org/1999/02/22-rdf-syntax-ns#"
   xmlns:svg="http://www.w3.org/2000/svg"
   xmlns="http://www.w3.org/2000/svg"
   xmlns:sodipodi="http://sodipodi.sourceforge.net/DTD/sodipodi-0.dtd"
   xmlns:inkscape="http://www.inkscape.org/namespaces/inkscape"
   width="640pt"
   height="342pt"
   viewBox="0.00 0.00 639.50 342.00"
   version="1.1"
   id="svg154"
   sodipodi:docname="DIPPrinciple.svg"
   inkscape:version="0.92.4 (5da689c313, 2019-01-14)">
  <metadata
     id="metadata160">
    <rdf:RDF>
      <cc:Work
         rdf:about="">
        <dc:format>image/svg+xml</dc:format>
        <dc:type
           rdf:resource="http://purl.org/dc/dcmitype/StillImage" />
      </cc:Work>
    </rdf:RDF>
  </metadata>
  <defs
     id="defs158" />
  <sodipodi:namedview
     pagecolor="#ffffff"
     bordercolor="#666666"
     borderopacity="1"
     objecttolerance="10"
     gridtolerance="10"
     guidetolerance="10"
     inkscape:pageopacity="0"
     inkscape:pageshadow="2"
     inkscape:window-width="2560"
     inkscape:window-height="1017"
     id="namedview156"
     showgrid="false"
     inkscape:zoom="9.25426"
     inkscape:cx="601.57661"
     inkscape:cy="117.6024"
     inkscape:window-x="-8"
     inkscape:window-y="-8"
     inkscape:window-maximized="1"
     inkscape:current-layer="graph0" />
  <g
     id="graph0"
     class="graph"
     transform="scale(1 1) rotate(0) translate(4 338)">
    <title
       id="title2">G</title>
    <polygon
       fill="white"
       stroke="none"
       points="-4,4 -4,-338 635.5,-338 635.5,4 -4,4"
       id="polygon4" />
    <!-- VehiculoFactory -->
    <g
       id="node1"
       class="node">
      <title
         id="title6">VehiculoFactory</title>
      <polygon
         fill="none"
         stroke="black"
         points="236.5,-74.5 236.5,-111.5 438.5,-111.5 438.5,-74.5 236.5,-74.5"
         id="polygon8" />
      <text
         text-anchor="start"
         x="286.5"
         y="-90.3"
         font-family="Times New Roman,serif"
         font-weight="bold"
         text-decoration="underline"
         font-size="14.00"
         id="text10">VehiculoFactory</text>
      <polygon
         fill="none"
         stroke="black"
         points="236.5,-37.5 236.5,-74.5 438.5,-74.5 438.5,-37.5 236.5,-37.5"
         id="polygon12" />
      <text
         text-anchor="start"
         x="247.5"
         y="-53.3"
         font-family="Times New Roman,serif"
         text-decoration="underline"
         font-size="14.00"
         id="text14">Crea(motor : IMotor) : Vehiculo</text>
    </g>
    <!-- TipoMotor -->
    <g
       id="node2"
       class="node">
      <title
         id="title17">TipoMotor</title>
      <polygon
         fill="none"
         stroke="black"
         points="490.5,-75.5 490.5,-125.5 613.5,-125.5 613.5,-75.5 490.5,-75.5"
         id="polygon19" />
      <text
         text-anchor="start"
         x="501.5"
         y="-104.3"
         font-family="Times New Roman,serif"
         font-size="14.00"
         id="text21">&lt;&lt;enumeration&gt;&gt;</text>
      <text
         text-anchor="start"
         x="518"
         y="-90.3"
         font-family="Times New Roman,serif"
         font-weight="bold"
         font-size="14.00"
         id="text23">TipoMotor</text>
      <polygon
         fill="none"
         stroke="black"
         points="490.5,-23.5 490.5,-75.5 613.5,-75.5 613.5,-23.5 490.5,-23.5"
         id="polygon25" />
      <text
         text-anchor="start"
         x="501.5"
         y="-53.3"
         font-family="Times New Roman,serif"
         font-size="14.00"
         id="text27">Gasolina</text>
      <text
         text-anchor="start"
         x="501.5"
         y="-38.3"
         font-family="Times New Roman,serif"
         font-size="14.00"
         id="text29">Diesel</text>
    </g>
    <!-- VehiculoFactory&#45;&gt;TipoMotor -->
    <g
       id="edge7"
       class="edge"
       transform="translate(-7.5)">
      <title
         id="title32">VehiculoFactory-&gt;TipoMotor</title>
      <path
         d="m 454.694,-75 c 0,0 43.03758,0 43.03758,0"
         id="path34"
         inkscape:connector-curvature="0"
         style="fill:none;stroke:#000000;stroke-width:1.25896883" />
      <circle
         cx="450.694"
         cy="-75"
         id="ellipse36"
         r="4"
         style="fill:none;stroke:#000000" />
    </g>
    <!-- IMotor -->
    <g
       id="node3"
       class="node">
      <title
         id="title39">IMotor</title>
      <polygon
         fill="none"
         stroke="black"
         points="471.5,-279 471.5,-329 623.5,-329 623.5,-279 471.5,-279"
         id="polygon41" />
      <text
         text-anchor="start"
         x="507"
         y="-307.8"
         font-family="Times New Roman,serif"
         font-size="14.00"
         id="text43">&lt;&lt;interface&gt;&gt;</text>
      <text
         text-anchor="start"
         x="525"
         y="-293.8"
         font-family="Times New Roman,serif"
         font-weight="bold"
         font-size="14.00"
         id="text45">IMotor</text>
      <polygon
         fill="none"
         stroke="black"
         points="471.5,-227 471.5,-279 623.5,-279 623.5,-227 471.5,-227"
         id="polygon47" />
      <text
         text-anchor="start"
         x="482.5"
         y="-256.8"
         font-family="Times New Roman,serif"
         font-size="14.00"
         id="text49">Acelera() : void</text>
      <text
         text-anchor="start"
         x="482.5"
         y="-241.8"
         font-family="Times New Roman,serif"
         font-size="14.00"
         id="text51">GetRevoluciones() : int</text>
    </g>
    <!-- Vehiculo -->
    <g
       id="node4"
       class="node">
      <title
         id="title54">Vehiculo</title>
      <polygon
         fill="none"
         stroke="black"
         points="8.5,-107.5 8.5,-144.5 185.5,-144.5 185.5,-107.5 8.5,-107.5"
         id="polygon56" />
      <text
         text-anchor="start"
         x="70"
         y="-123.3"
         font-family="Times New Roman,serif"
         font-weight="bold"
         font-size="14.00"
         id="text58">Vehiculo</text>
      <polygon
         fill="none"
         stroke="black"
         points="8.5,-70.5 8.5,-107.5 185.5,-107.5 185.5,-70.5 8.5,-70.5"
         id="polygon60" />
      <text
         text-anchor="start"
         x="19.5"
         y="-85.3"
         font-family="Times New Roman,serif"
         font-size="14.00"
         id="text62">- motor : IMotor</text>
      <polygon
         fill="none"
         stroke="black"
         points="8.5,-3.5 8.5,-70.5 185.5,-70.5 185.5,-3.5 8.5,-3.5"
         id="polygon64" />
      <text
         text-anchor="start"
         x="19.5"
         y="-48.3"
         font-family="Times New Roman,serif"
         font-size="14.00"
         id="text66">+ Vehiculo(motor : IMotor)</text>
      <text
         text-anchor="start"
         x="19.5"
         y="-33.3"
         font-family="Times New Roman,serif"
         font-size="14.00"
         id="text68">+ Acelera() : void</text>
      <text
         text-anchor="start"
         x="19.5"
         y="-18.3"
         font-family="Times New Roman,serif"
         font-size="14.00"
         id="text70">+ GetRevoluciones() : int</text>
    </g>
    <!-- Vehiculo&#45;&gt;VehiculoFactory -->
    <g
       id="edge4"
       class="edge">
      <title
         id="title73">Vehiculo-&gt;VehiculoFactory</title>
      <path
         fill="none"
         stroke="black"
         stroke-dasharray="5,2"
         d="M203.135,-61C203.135,-61 228.172,-61 228.172,-61"
         id="path75" />
      <polygon
         fill="black"
         stroke="black"
         points="193.135,-61 203.135,-56.5001 198.135,-61 203.135,-61.0001 203.135,-61.0001 203.135,-61.0001 198.135,-61 203.135,-65.5001 193.135,-61 193.135,-61"
         id="polygon77" />
      <text
         text-anchor="middle"
         x="212.312"
         y="-49.9042"
         font-family="Times New Roman,serif"
         font-size="14.00"
         id="text79">&lt;&lt;create&gt;&gt;</text>
    </g>
    <!-- Vehiculo&#45;&gt;IMotor -->
    <g
       id="edge3"
       class="edge">
      <title
         id="title82">Vehiculo-&gt;IMotor</title>
      <path
         fill="none"
         stroke="black"
         d="M205.203,-140C205.203,-140 475.833,-140 475.833,-140 475.833,-140 475.833,-184.273 475.833,-222.665"
         id="path84" />
      <polygon
         fill="none"
         stroke="black"
         points="205.203,-140 199.203,-144 193.203,-140 199.203,-136 205.203,-140"
         id="polygon86" />
      <text
         text-anchor="middle"
         x="483.229"
         y="-203.105"
         font-family="Times New Roman,serif"
         font-size="14.00"
         id="text88">1</text>
    </g>
    <!-- MotorDiesel -->
    <g
       id="node5"
       class="node">
      <title
         id="title91">MotorDiesel</title>
      <polygon
         fill="none"
         stroke="black"
         points="255.5,-293 255.5,-330 419.5,-330 419.5,-293 255.5,-293"
         id="polygon93" />
      <text
         text-anchor="start"
         x="299"
         y="-308.8"
         font-family="Times New Roman,serif"
         font-weight="bold"
         font-size="14.00"
         id="text95">MotorDiesel</text>
      <polygon
         fill="none"
         stroke="black"
         points="255.5,-226 255.5,-293 419.5,-293 419.5,-226 255.5,-226"
         id="polygon97" />
      <text
         text-anchor="start"
         x="266.5"
         y="-270.8"
         font-family="Times New Roman,serif"
         font-size="14.00"
         id="text99">+ MotorDiesel()</text>
      <text
         text-anchor="start"
         x="266.5"
         y="-255.8"
         font-family="Times New Roman,serif"
         font-size="14.00"
         id="text101">+ Acelera() : void</text>
      <text
         text-anchor="start"
         x="266.5"
         y="-240.8"
         font-family="Times New Roman,serif"
         font-size="14.00"
         id="text103">+ GetRevoluciones() : int</text>
    </g>
    <!-- MotorDiesel&#45;&gt;VehiculoFactory -->
    <g
       id="edge5"
       class="edge">
      <title
         id="title106">MotorDiesel-&gt;VehiculoFactory</title>
      <path
         fill="none"
         stroke="black"
         stroke-dasharray="5,2"
         d="M337.5,-211.854C337.5,-211.854 337.5,-115.618 337.5,-115.618"
         id="path108" />
      <polygon
         fill="black"
         stroke="black"
         points="337.5,-221.854 333,-211.854 337.5,-216.854 337.5,-211.854 337.5,-211.854 337.5,-211.854 337.5,-216.854 342,-211.854 337.5,-221.854 337.5,-221.854"
         id="polygon110" />
      <text
         text-anchor="middle"
         x="330.104"
         y="-127.778"
         font-family="Times New Roman,serif"
         font-size="14.00"
         id="text112">&lt;&lt;use&gt;&gt;</text>
    </g>
    <!-- MotorDiesel&#45;&gt;IMotor -->
    <g
       id="edge2"
       class="edge">
      <title
         id="title115">MotorDiesel-&gt;IMotor</title>
      <path
         fill="none"
         stroke="black"
         stroke-dasharray="5,2"
         d="M427.778,-278C427.778,-278 453.276,-278 453.276,-278"
         id="path117" />
      <polygon
         fill="none"
         stroke="black"
         points="453.276,-281.5 463.276,-278 453.276,-274.5 453.276,-281.5"
         id="polygon119" />
    </g>
    <!-- MotorGasolina -->
    <g
       id="node6"
       class="node">
      <title
         id="title122">MotorGasolina</title>
      <polygon
         fill="none"
         stroke="black"
         points="57.5,-293 57.5,-330 221.5,-330 221.5,-293 57.5,-293"
         id="polygon124" />
      <text
         text-anchor="start"
         x="92.5"
         y="-308.8"
         font-family="Times New Roman,serif"
         font-weight="bold"
         font-size="14.00"
         id="text126">MotorGasolina</text>
      <polygon
         fill="none"
         stroke="black"
         points="57.5,-226 57.5,-293 221.5,-293 221.5,-226 57.5,-226"
         id="polygon128" />
      <text
         text-anchor="start"
         x="68.5"
         y="-270.8"
         font-family="Times New Roman,serif"
         font-size="14.00"
         id="text130">+ MotorGasolina()</text>
      <text
         text-anchor="start"
         x="68.5"
         y="-255.8"
         font-family="Times New Roman,serif"
         font-size="14.00"
         id="text132">+ Acelera() : void</text>
      <text
         text-anchor="start"
         x="68.5"
         y="-240.8"
         font-family="Times New Roman,serif"
         font-size="14.00"
         id="text134">+ GetRevoluciones() : int</text>
    </g>
    <!-- MotorGasolina&#45;&gt;VehiculoFactory -->
    <g
       id="edge6"
       class="edge">
      <title
         id="title137">MotorGasolina-&gt;VehiculoFactory</title>
      <path
         fill="none"
         stroke="black"
         stroke-dasharray="5,2"
         d="M216.667,-211.805C216.667,-211.805 216.667,-89 216.667,-89 216.667,-89 221.094,-89 228.253,-89"
         id="path139" />
      <polygon
         fill="black"
         stroke="black"
         points="216.667,-221.805 212.167,-211.805 216.667,-216.805 216.667,-211.805 216.667,-211.805 216.667,-211.805 216.667,-216.805 221.167,-211.806 216.667,-221.805 216.667,-221.805"
         id="polygon141" />
      <text
         text-anchor="middle"
         x="212.392"
         y="-77.9042"
         font-family="Times New Roman,serif"
         font-size="14.00"
         id="text143">&lt;&lt;use&gt;&gt;</text>
    </g>
    <!-- MotorGasolina&#45;&gt;IMotor -->
    <g
       id="edge1"
       class="edge">
      <title
         id="title146">MotorGasolina-&gt;IMotor</title>
      <path
         fill="none"
         stroke="black"
         stroke-dasharray="5,2"
         d="M204.833,-221.833C204.833,-202.679 204.833,-186 204.833,-186 204.833,-186 469.667,-186 469.667,-186 469.667,-186 469.667,-212.89 469.667,-212.89"
         id="path148" />
      <polygon
         fill="none"
         stroke="black"
         points="466.167,-212.89 469.667,-222.89 473.167,-212.89 466.167,-212.89"
         id="polygon150" />
    </g>
    <path
       d="m 438.82416,-74.824176 c 0,0 8.75607,0 8.75607,0"
       id="path34-0"
       inkscape:connector-curvature="0"
       style="fill:none;stroke:#000000;stroke-width:0.56786579" />
    <path
       d="m 443.20445,-79.42189 c 0,0 0,8.75607 0,8.75607"
       id="path34-0-9"
       inkscape:connector-curvature="0"
       style="fill:none;stroke:#000000;stroke-width:0.56786573" />
  </g>
</svg>
