<?xml version="1.0" encoding="UTF-8" standalone="no"?><svg xmlns="http://www.w3.org/2000/svg" xmlns:xlink="http://www.w3.org/1999/xlink" contentScriptType="application/ecmascript" contentStyleType="text/css" height="666px" preserveAspectRatio="none" style="width:495px;height:666px;" version="1.1" viewBox="0 0 495 666" width="495px" zoomAndPan="magnify"><defs><filter height="300%" id="f1x54zezkbqicx" width="300%" x="-1" y="-1"><feGaussianBlur result="blurOut" stdDeviation="2.0"/><feColorMatrix in="blurOut" result="blurOut2" type="matrix" values="0 0 0 0 0 0 0 0 0 0 0 0 0 0 0 0 0 0 .4 0"/><feOffset dx="4.0" dy="4.0" in="blurOut2" result="blurOut3"/><feBlend in="SourceGraphic" in2="blurOut3" mode="normal"/></filter></defs><g><!--cluster Program.exe--><polygon fill="#F5F5F5" filter="url(#f1x54zezkbqicx)" points="226,24,321,24,328,47.6094,386,47.6094,386,224,226,224,226,24" style="stroke: #000000; stroke-width: 1.5;"/><line style="stroke: #000000; stroke-width: 1.5;" x1="226" x2="328" y1="47.6094" y2="47.6094"/><text fill="#000000" font-family="sans-serif" font-size="14" font-weight="bold" lengthAdjust="spacingAndGlyphs" textLength="89" x="230" y="40.5332">Program.exe</text><text fill="#000000" font-family="sans-serif" font-size="14" font-style="italic" lengthAdjust="spacingAndGlyphs" textLength="84" x="268" y="64.1426">«executable»</text><!--cluster Program--><polygon fill="#FFFFFF" filter="url(#f1x54zezkbqicx)" points="250,86,315,86,322,109.6094,362,109.6094,362,200,250,200,250,86" style="stroke: #000000; stroke-width: 1.5;"/><line style="stroke: #000000; stroke-width: 1.5;" x1="250" x2="322" y1="109.6094" y2="109.6094"/><text fill="#000000" font-family="sans-serif" font-size="14" font-weight="bold" lengthAdjust="spacingAndGlyphs" textLength="59" x="254" y="102.5332">Program</text><!--cluster MyLibrary1.dll--><polygon fill="#F5F5F5" filter="url(#f1x54zezkbqicx)" points="22,274,125,274,132,297.6094,473,297.6094,473,654,22,654,22,274" style="stroke: #000000; stroke-width: 1.5;"/><line style="stroke: #000000; stroke-width: 1.5;" x1="22" x2="132" y1="297.6094" y2="297.6094"/><text fill="#000000" font-family="sans-serif" font-size="14" font-weight="bold" lengthAdjust="spacingAndGlyphs" textLength="97" x="26" y="290.5332">MyLibrary1.dll</text><text fill="#000000" font-family="sans-serif" font-size="14" font-style="italic" lengthAdjust="spacingAndGlyphs" textLength="55" x="224" y="314.1426">«library»</text><!--cluster MyLibrary1--><polygon fill="#FFFFFF" filter="url(#f1x54zezkbqicx)" points="46,336,128,336,135,359.6094,449,359.6094,449,630,46,630,46,336" style="stroke: #000000; stroke-width: 1.5;"/><line style="stroke: #000000; stroke-width: 1.5;" x1="46" x2="135" y1="359.6094" y2="359.6094"/><text fill="#000000" font-family="sans-serif" font-size="14" font-weight="bold" lengthAdjust="spacingAndGlyphs" textLength="76" x="50" y="352.5332">MyLibrary1</text><!--cluster MyLibrary1.Utilities--><polygon fill="#F5F5F5" filter="url(#f1x54zezkbqicx)" points="70,484,129,484,136,507.6094,425,507.6094,425,606,70,606,70,484" style="stroke: #000000; stroke-width: 1.5;"/><line style="stroke: #000000; stroke-width: 1.5;" x1="70" x2="136" y1="507.6094" y2="507.6094"/><text fill="#000000" font-family="sans-serif" font-size="14" font-weight="bold" lengthAdjust="spacingAndGlyphs" textLength="53" x="74" y="500.5332">Utilities</text><!--class Program.Program--><rect fill="#FFFAFA" filter="url(#f1x54zezkbqicx)" height="61.8359" id="Program.Program" style="stroke: #000000; stroke-width: 1.5;" width="80" x="266" y="122"/><ellipse cx="281" cy="138" fill="#ADD1B2" rx="11" ry="11" style="stroke: #000000; stroke-width: 1.0;"/><path d="M283.7656,133.875 Q283.9219,133.6563 284.1094,133.5469 Q284.2969,133.4375 284.5156,133.4375 Q284.8906,133.4375 285.125,133.6953 Q285.3594,133.9531 285.3594,134.5625 L285.3594,136.0156 Q285.3594,136.625 285.125,136.8906 Q284.8906,137.1563 284.5156,137.1563 Q284.1719,137.1563 283.9688,136.9531 Q283.7656,136.7656 283.6563,136.25 Q283.6094,135.8906 283.4219,135.7031 Q283.0938,135.3281 282.4844,135.1094 Q281.875,134.8906 281.25,134.8906 Q280.4844,134.8906 279.8516,135.2188 Q279.2188,135.5469 278.7266,136.2969 Q278.2344,137.0469 278.2344,138.0781 L278.2344,139.1719 Q278.2344,140.4063 279.125,141.2266 Q280.0156,142.0469 281.6094,142.0469 Q282.5469,142.0469 283.2031,141.7969 Q283.5938,141.6406 284.0156,141.2031 Q284.2813,140.9375 284.4297,140.8594 Q284.5781,140.7813 284.7813,140.7813 Q285.1094,140.7813 285.3672,141.0391 Q285.625,141.2969 285.625,141.6406 Q285.625,141.9844 285.2813,142.3906 Q284.7813,142.9688 283.9844,143.2969 Q282.9063,143.75 281.6094,143.75 Q280.0938,143.75 278.8906,143.125 Q277.9063,142.625 277.2188,141.5547 Q276.5313,140.4844 276.5313,139.2031 L276.5313,138.0469 Q276.5313,136.7188 277.1484,135.5703 Q277.7656,134.4219 278.8594,133.8047 Q279.9531,133.1875 281.1875,133.1875 Q281.9219,133.1875 282.5703,133.3516 Q283.2188,133.5156 283.7656,133.875 Z "/><text fill="#000000" font-family="sans-serif" font-size="12" lengthAdjust="spacingAndGlyphs" textLength="48" x="295" y="142.9102">Program</text><line style="stroke: #000000; stroke-width: 1.5;" x1="267" x2="345" y1="154" y2="154"/><line style="stroke: #000000; stroke-width: 1.5;" x1="267" x2="345" y1="162" y2="162"/><text fill="#000000" font-family="sans-serif" font-size="11" lengthAdjust="spacingAndGlyphs" text-decoration="underline" textLength="63" x="272" y="177.4189">-Main() : void</text><!--class MyLibrary1.ClassA--><rect fill="#FFFAFA" filter="url(#f1x54zezkbqicx)" height="48" id="MyLibrary1.ClassA" style="stroke: #000000; stroke-width: 1.5;" width="72" x="270" y="372"/><ellipse cx="285" cy="388" fill="#ADD1B2" rx="11" ry="11" style="stroke: #000000; stroke-width: 1.0;"/><path d="M287.7656,383.875 Q287.9219,383.6563 288.1094,383.5469 Q288.2969,383.4375 288.5156,383.4375 Q288.8906,383.4375 289.125,383.6953 Q289.3594,383.9531 289.3594,384.5625 L289.3594,386.0156 Q289.3594,386.625 289.125,386.8906 Q288.8906,387.1563 288.5156,387.1563 Q288.1719,387.1563 287.9688,386.9531 Q287.7656,386.7656 287.6563,386.25 Q287.6094,385.8906 287.4219,385.7031 Q287.0938,385.3281 286.4844,385.1094 Q285.875,384.8906 285.25,384.8906 Q284.4844,384.8906 283.8516,385.2188 Q283.2188,385.5469 282.7266,386.2969 Q282.2344,387.0469 282.2344,388.0781 L282.2344,389.1719 Q282.2344,390.4063 283.125,391.2266 Q284.0156,392.0469 285.6094,392.0469 Q286.5469,392.0469 287.2031,391.7969 Q287.5938,391.6406 288.0156,391.2031 Q288.2813,390.9375 288.4297,390.8594 Q288.5781,390.7813 288.7813,390.7813 Q289.1094,390.7813 289.3672,391.0391 Q289.625,391.2969 289.625,391.6406 Q289.625,391.9844 289.2813,392.3906 Q288.7813,392.9688 287.9844,393.2969 Q286.9063,393.75 285.6094,393.75 Q284.0938,393.75 282.8906,393.125 Q281.9063,392.625 281.2188,391.5547 Q280.5313,390.4844 280.5313,389.2031 L280.5313,388.0469 Q280.5313,386.7188 281.1484,385.5703 Q281.7656,384.4219 282.8594,383.8047 Q283.9531,383.1875 285.1875,383.1875 Q285.9219,383.1875 286.5703,383.3516 Q287.2188,383.5156 287.7656,383.875 Z "/><text fill="#000000" font-family="sans-serif" font-size="12" lengthAdjust="spacingAndGlyphs" textLength="40" x="299" y="392.9102">ClassA</text><line style="stroke: #000000; stroke-width: 1.5;" x1="271" x2="341" y1="404" y2="404"/><line style="stroke: #000000; stroke-width: 1.5;" x1="271" x2="341" y1="412" y2="412"/><!--class MyLibrary1.ClassB--><rect fill="#FFFAFA" filter="url(#f1x54zezkbqicx)" height="48" id="MyLibrary1.ClassB" style="stroke: #000000; stroke-width: 1.5;" width="73" x="90.5" y="372"/><ellipse cx="105.5" cy="388" fill="#ADD1B2" rx="11" ry="11" style="stroke: #000000; stroke-width: 1.0;"/><path d="M108.2656,383.875 Q108.4219,383.6563 108.6094,383.5469 Q108.7969,383.4375 109.0156,383.4375 Q109.3906,383.4375 109.625,383.6953 Q109.8594,383.9531 109.8594,384.5625 L109.8594,386.0156 Q109.8594,386.625 109.625,386.8906 Q109.3906,387.1563 109.0156,387.1563 Q108.6719,387.1563 108.4688,386.9531 Q108.2656,386.7656 108.1563,386.25 Q108.1094,385.8906 107.9219,385.7031 Q107.5938,385.3281 106.9844,385.1094 Q106.375,384.8906 105.75,384.8906 Q104.9844,384.8906 104.3516,385.2188 Q103.7188,385.5469 103.2266,386.2969 Q102.7344,387.0469 102.7344,388.0781 L102.7344,389.1719 Q102.7344,390.4063 103.625,391.2266 Q104.5156,392.0469 106.1094,392.0469 Q107.0469,392.0469 107.7031,391.7969 Q108.0938,391.6406 108.5156,391.2031 Q108.7813,390.9375 108.9297,390.8594 Q109.0781,390.7813 109.2813,390.7813 Q109.6094,390.7813 109.8672,391.0391 Q110.125,391.2969 110.125,391.6406 Q110.125,391.9844 109.7813,392.3906 Q109.2813,392.9688 108.4844,393.2969 Q107.4063,393.75 106.1094,393.75 Q104.5938,393.75 103.3906,393.125 Q102.4063,392.625 101.7188,391.5547 Q101.0313,390.4844 101.0313,389.2031 L101.0313,388.0469 Q101.0313,386.7188 101.6484,385.5703 Q102.2656,384.4219 103.3594,383.8047 Q104.4531,383.1875 105.6875,383.1875 Q106.4219,383.1875 107.0703,383.3516 Q107.7188,383.5156 108.2656,383.875 Z "/><text fill="#000000" font-family="sans-serif" font-size="12" lengthAdjust="spacingAndGlyphs" textLength="41" x="119.5" y="392.9102">ClassB</text><line style="stroke: #000000; stroke-width: 1.5;" x1="91.5" x2="162.5" y1="404" y2="404"/><line style="stroke: #000000; stroke-width: 1.5;" x1="91.5" x2="162.5" y1="412" y2="412"/><!--class MyLibrary1.Utilities.ClassU1--><rect fill="#FFFAFA" filter="url(#f1x54zezkbqicx)" height="70.0234" id="MyLibrary1.Utilities.ClassU1" style="stroke: #000000; stroke-width: 1.5;" width="206" x="203" y="520"/><ellipse cx="277.25" cy="540.0938" fill="#ADFF2F" rx="11" ry="11" style="stroke: #000000; stroke-width: 1.0;"/><path d="M281.7344,537.4844 L281.7344,542.3125 Q281.7344,543.8906 280.6016,544.9922 Q279.4688,546.0938 277.875,546.0938 Q277.0938,546.0938 276.3984,545.8125 Q275.7031,545.5313 275.1484,544.9922 Q274.5938,544.4531 274.2891,543.8672 Q273.9844,543.2813 273.9844,542.3125 L273.9844,537.4844 Q273.4531,537.4844 273.1953,537.2422 Q272.9375,537 272.9375,536.625 Q272.9375,536.25 273.1953,536.0156 Q273.4531,535.7813 274.0625,535.7813 L276.2969,535.7813 Q276.9219,535.7813 277.1797,536.0156 Q277.4375,536.25 277.4375,536.625 Q277.4375,537.0156 277.1797,537.25 Q276.9219,537.4844 276.2969,537.4844 L275.6875,537.4844 L275.6875,542.4531 Q275.6875,543.2188 276.3203,543.8047 Q276.9531,544.3906 277.8594,544.3906 Q278.4531,544.3906 278.9766,544.1094 Q279.5,543.8281 279.8281,543.2813 Q280.0313,542.9531 280.0313,542.4531 L280.0313,537.4844 L279.4219,537.4844 Q278.8125,537.4844 278.5469,537.25 Q278.2813,537.0156 278.2813,536.625 Q278.2813,536.25 278.5469,536.0156 Q278.8125,535.7813 279.4219,535.7813 L281.6563,535.7813 Q282.2656,535.7813 282.5313,536.0156 Q282.7969,536.25 282.7969,536.625 Q282.7969,537 282.5391,537.2422 Q282.2813,537.4844 281.7344,537.4844 Z "/><text fill="#000000" font-family="sans-serif" font-size="12" font-style="italic" lengthAdjust="spacingAndGlyphs" textLength="42" x="301.25" y="537.457">«utility»</text><text fill="#000000" font-family="sans-serif" font-size="12" lengthAdjust="spacingAndGlyphs" textLength="49" x="297.75" y="552.5508">ClassU1</text><line style="stroke: #000000; stroke-width: 1.5;" x1="204" x2="408" y1="560.1875" y2="560.1875"/><line style="stroke: #000000; stroke-width: 1.5;" x1="204" x2="408" y1="568.1875" y2="568.1875"/><text fill="#000000" font-family="sans-serif" font-size="11" lengthAdjust="spacingAndGlyphs" text-decoration="underline" textLength="194" x="209" y="583.6064">+Utility1( p1: Type1, p2: Type2, ...) : void</text><!--class MyLibrary1.Utilities.ClassU2--><rect fill="#FFFAFA" filter="url(#f1x54zezkbqicx)" height="48" id="MyLibrary1.Utilities.ClassU2" style="stroke: #000000; stroke-width: 1.5;" width="81" x="86.5" y="531"/><ellipse cx="101.5" cy="547" fill="#ADD1B2" rx="11" ry="11" style="stroke: #000000; stroke-width: 1.0;"/><path d="M104.2656,542.875 Q104.4219,542.6563 104.6094,542.5469 Q104.7969,542.4375 105.0156,542.4375 Q105.3906,542.4375 105.625,542.6953 Q105.8594,542.9531 105.8594,543.5625 L105.8594,545.0156 Q105.8594,545.625 105.625,545.8906 Q105.3906,546.1563 105.0156,546.1563 Q104.6719,546.1563 104.4688,545.9531 Q104.2656,545.7656 104.1563,545.25 Q104.1094,544.8906 103.9219,544.7031 Q103.5938,544.3281 102.9844,544.1094 Q102.375,543.8906 101.75,543.8906 Q100.9844,543.8906 100.3516,544.2188 Q99.7188,544.5469 99.2266,545.2969 Q98.7344,546.0469 98.7344,547.0781 L98.7344,548.1719 Q98.7344,549.4063 99.625,550.2266 Q100.5156,551.0469 102.1094,551.0469 Q103.0469,551.0469 103.7031,550.7969 Q104.0938,550.6406 104.5156,550.2031 Q104.7813,549.9375 104.9297,549.8594 Q105.0781,549.7813 105.2813,549.7813 Q105.6094,549.7813 105.8672,550.0391 Q106.125,550.2969 106.125,550.6406 Q106.125,550.9844 105.7813,551.3906 Q105.2813,551.9688 104.4844,552.2969 Q103.4063,552.75 102.1094,552.75 Q100.5938,552.75 99.3906,552.125 Q98.4063,551.625 97.7188,550.5547 Q97.0313,549.4844 97.0313,548.2031 L97.0313,547.0469 Q97.0313,545.7188 97.6484,544.5703 Q98.2656,543.4219 99.3594,542.8047 Q100.4531,542.1875 101.6875,542.1875 Q102.4219,542.1875 103.0703,542.3516 Q103.7188,542.5156 104.2656,542.875 Z "/><text fill="#000000" font-family="sans-serif" font-size="12" lengthAdjust="spacingAndGlyphs" textLength="49" x="115.5" y="551.9102">ClassU2</text><line style="stroke: #000000; stroke-width: 1.5;" x1="87.5" x2="166.5" y1="563" y2="563"/><line style="stroke: #000000; stroke-width: 1.5;" x1="87.5" x2="166.5" y1="571" y2="571"/><!--link Program.Program to MyLibrary1.ClassA--><path d="M306,184.036 C306,230.934 306,320.915 306,366.715 " fill="none" id="Program.Program-&gt;MyLibrary1.ClassA" style="stroke: #000000; stroke-width: 1.0; stroke-dasharray: 7.0,7.0;"/><polygon fill="#000000" points="306,371.808,310,362.808,306,366.808,302,362.808,306,371.808" style="stroke: #000000; stroke-width: 1.0;"/><text fill="#000000" font-family="sans-serif" font-size="13" lengthAdjust="spacingAndGlyphs" textLength="42" x="307" y="254.4951">«uses»</text><!--link MyLibrary1.ClassB to MyLibrary1.Utilities.ClassU2--><path d="M127,420.166 C127,448.307 127,495.75 127,525.936 " fill="none" id="MyLibrary1.ClassB-&gt;MyLibrary1.Utilities.ClassU2" style="stroke: #000000; stroke-width: 1.0; stroke-dasharray: 7.0,7.0;"/><polygon fill="#000000" points="127,530.995,131,521.995,127,525.995,123,521.995,127,530.995" style="stroke: #000000; stroke-width: 1.0;"/><text fill="#000000" font-family="sans-serif" font-size="13" lengthAdjust="spacingAndGlyphs" textLength="42" x="128" y="464.4951">«uses»</text><!--link MyLibrary1.ClassA to MyLibrary1.Utilities.ClassU1--><path d="M306,420.166 C306,445.081 306,485.128 306,514.932 " fill="none" id="MyLibrary1.ClassA-&gt;MyLibrary1.Utilities.ClassU1" style="stroke: #000000; stroke-width: 1.0; stroke-dasharray: 7.0,7.0;"/><polygon fill="#000000" points="306,519.997,310,510.997,306,514.997,302,510.997,306,519.997" style="stroke: #000000; stroke-width: 1.0;"/><text fill="#000000" font-family="sans-serif" font-size="13" lengthAdjust="spacingAndGlyphs" textLength="42" x="307" y="464.4951">«uses»</text><!--
@startuml paquetes

skinparam ArrowColor Black
skinparam PackageBackgroundColor WhiteSmoke
skinparam ClassBorderColor Black
skinparam ClassBackgroundColor Snow
skinparam ClassAttributeIconSize 0

package Program.exe <<executable>> {
  namespace Program  #DDDDD {
    class Program {
      - {static} Main() : void
    }
  }
}

package MyLibrary1.dll <<library>> {
  namespace MyLibrary1 #DDDDD {
    class ClassA { 
    }
    class ClassB { 
    }
    namespace MyLibrary1.Utilities {
      class ClassU1 <<U, GreenYellow>><<utility>> { 
        + {static} Utility1( p1: Type1, p2: Type2, ...) : void
      }    
      class ClassU2 { 
      }    
    }
  }
  Program.Program ..> MyLibrary1.ClassA : <<uses>>
  MyLibrary1.ClassB ..> MyLibrary1.Utilities.ClassU2 : <<uses>>
  MyLibrary1.ClassA ..>  MyLibrary1.Utilities.ClassU1 : <<uses>>
}

@enduml

PlantUML version 1.2019.09(Mon Aug 26 18:19:51 CEST 2019)
(GPL source distribution)
Java Runtime: Java(TM) SE Runtime Environment
JVM: Java HotSpot(TM) 64-Bit Server VM
Java Version: 1.8.0_241-b07
Operating System: Windows 10
OS Version: 10.0
Default Encoding: Cp1252
Language: es
Country: ES
--></g></svg>