<?xml version="1.0" encoding="UTF-8" standalone="no"?><svg xmlns="http://www.w3.org/2000/svg" xmlns:xlink="http://www.w3.org/1999/xlink" contentScriptType="application/ecmascript" contentStyleType="text/css" height="341px" preserveAspectRatio="none" style="width:297px;height:341px;" version="1.1" viewBox="0 0 297 341" width="297px" zoomAndPan="magnify"><defs><filter height="300%" id="fi2uw85dg05nd" width="300%" x="-1" y="-1"><feGaussianBlur result="blurOut" stdDeviation="2.0"/><feColorMatrix in="blurOut" result="blurOut2" type="matrix" values="0 0 0 0 0 0 0 0 0 0 0 0 0 0 0 0 0 0 .4 0"/><feOffset dx="4.0" dy="4.0" in="blurOut2" result="blurOut3"/><feBlend in="SourceGraphic" in2="blurOut3" mode="normal"/></filter></defs><g><polygon fill="#F5F5F5" filter="url(#fi2uw85dg05nd)" points="85,8,180,8,187,31.6094,194,31.6094,194,63.2188,85,63.2188,85,8" style="stroke: #000000; stroke-width: 1.5;"/><line style="stroke: #000000; stroke-width: 1.5;" x1="85" x2="187" y1="31.6094" y2="31.6094"/><text fill="#000000" font-family="sans-serif" font-size="14" font-weight="bold" lengthAdjust="spacingAndGlyphs" textLength="89" x="89" y="24.5332">Program.exe</text><text fill="#000000" font-family="sans-serif" font-size="14" font-style="italic" lengthAdjust="spacingAndGlyphs" textLength="84" x="101.5" y="48.1426">«executable»</text><polygon fill="#F5F5F5" filter="url(#fi2uw85dg05nd)" points="6,141,109,141,116,164.6094,123,164.6094,123,196.2188,6,196.2188,6,141" style="stroke: #000000; stroke-width: 1.5;"/><line style="stroke: #000000; stroke-width: 1.5;" x1="6" x2="116" y1="164.6094" y2="164.6094"/><text fill="#000000" font-family="sans-serif" font-size="14" font-weight="bold" lengthAdjust="spacingAndGlyphs" textLength="97" x="10" y="157.5332">MyLibrary1.dll</text><text fill="#000000" font-family="sans-serif" font-size="14" font-style="italic" lengthAdjust="spacingAndGlyphs" textLength="55" x="41" y="181.1426">«library»</text><polygon fill="#F5F5F5" filter="url(#fi2uw85dg05nd)" points="158,141,261,141,268,164.6094,275,164.6094,275,196.2188,158,196.2188,158,141" style="stroke: #000000; stroke-width: 1.5;"/><line style="stroke: #000000; stroke-width: 1.5;" x1="158" x2="268" y1="164.6094" y2="164.6094"/><text fill="#000000" font-family="sans-serif" font-size="14" font-weight="bold" lengthAdjust="spacingAndGlyphs" textLength="97" x="162" y="157.5332">MyLibrary2.dll</text><text fill="#000000" font-family="sans-serif" font-size="14" font-style="italic" lengthAdjust="spacingAndGlyphs" textLength="55" x="193" y="181.1426">«library»</text><polygon fill="#F5F5F5" filter="url(#fi2uw85dg05nd)" points="99.5,274,179.5,274,186.5,297.6094,193.5,297.6094,193.5,329.2188,99.5,329.2188,99.5,274" style="stroke: #000000; stroke-width: 1.5;"/><line style="stroke: #000000; stroke-width: 1.5;" x1="99.5" x2="186.5" y1="297.6094" y2="297.6094"/><text fill="#000000" font-family="sans-serif" font-size="14" font-weight="bold" lengthAdjust="spacingAndGlyphs" textLength="74" x="103.5" y="290.5332">Utilities.dll</text><text fill="#000000" font-family="sans-serif" font-size="14" font-style="italic" lengthAdjust="spacingAndGlyphs" textLength="55" x="123" y="314.1426">«library»</text><!--link Program.exe to MyLibrary1.dll--><path d="M120.595,63.054 C114.255,72.357 107.322,82.984 101.5,93 C93.4854,106.789 85.4999,122.545 79.01,136.006 " fill="none" id="Program.exe-&gt;MyLibrary1.dll" style="stroke: #000000; stroke-width: 1.0; stroke-dasharray: 7.0,7.0;"/><polygon fill="#000000" points="76.6894,140.853,84.1846,134.4638,78.8492,136.3435,76.9695,131.0081,76.6894,140.853" style="stroke: #000000; stroke-width: 1.0;"/><text fill="#000000" font-family="sans-serif" font-size="13" lengthAdjust="spacingAndGlyphs" textLength="56" x="102.5" y="107.4951">«access»</text><!--link Program.exe to MyLibrary2.dll--><path d="M155.082,63.01 C167.524,84.177 184.986,113.886 198.112,136.217 " fill="none" id="Program.exe-&gt;MyLibrary2.dll" style="stroke: #000000; stroke-width: 1.0; stroke-dasharray: 7.0,7.0;"/><polygon fill="#000000" points="200.677,140.58,199.5671,130.7939,198.1443,136.2689,192.6693,134.8461,200.677,140.58" style="stroke: #000000; stroke-width: 1.0;"/><text fill="#000000" font-family="sans-serif" font-size="13" lengthAdjust="spacingAndGlyphs" textLength="56" x="183.5" y="107.4951">«access»</text><!--link MyLibrary1.dll to Utilities.dll--><path d="M80.802,196.106 C89.5576,210.344 100.5648,228.161 110.5,244 C115.663,252.2303 121.289,261.1051 126.527,269.3274 " fill="none" id="MyLibrary1.dll-&gt;Utilities.dll" style="stroke: #000000; stroke-width: 1.0; stroke-dasharray: 7.0,7.0;"/><polygon fill="#000000" points="129.391,273.8201,127.9249,264.081,126.7028,269.6042,121.1795,268.3822,129.391,273.8201" style="stroke: #000000; stroke-width: 1.0;"/><text fill="#000000" font-family="sans-serif" font-size="13" lengthAdjust="spacingAndGlyphs" textLength="56" x="111.5" y="240.4951">«access»</text><!--link MyLibrary2.dll to Utilities.dll--><path d="M202.334,196.01 C191.071,217.089 175.281,246.6384 163.366,268.9373 " fill="none" id="MyLibrary2.dll-&gt;Utilities.dll" style="stroke: #000000; stroke-width: 1.0; stroke-dasharray: 7.0,7.0;"/><polygon fill="#000000" points="160.885,273.58,168.6546,267.5274,163.2415,269.1701,161.5988,263.757,160.885,273.58" style="stroke: #000000; stroke-width: 1.0;"/><text fill="#000000" font-family="sans-serif" font-size="13" lengthAdjust="spacingAndGlyphs" textLength="56" x="186.5" y="240.4951">«access»</text><!--
@startuml paquetes

skinparam ArrowColor Black
skinparam PackageBackgroundColor WhiteSmoke
skinparam ClassBorderColor Black
skinparam ClassBackgroundColor Snow
skinparam ClassAttributeIconSize 0

package Program.exe <<executable>> {
}

package MyLibrary1.dll <<library>> {
}

package MyLibrary2.dll <<library>> {
}

package Utilities.dll <<library>> {
}

Program.exe ..> MyLibrary1.dll : <<access>>
Program.exe ..> MyLibrary2.dll : <<access>>
MyLibrary1.dll ..> Utilities.dll : <<access>>
MyLibrary2.dll ..> Utilities.dll : <<access>>
@enduml

PlantUML version 1.2019.09(Mon Aug 26 18:19:51 CEST 2019)
(GPL source distribution)
Java Runtime: Java(TM) SE Runtime Environment
JVM: Java HotSpot(TM) 64-Bit Server VM
Java Version: 1.8.0_241-b07
Operating System: Windows 10
OS Version: 10.0
Default Encoding: Cp1252
Language: es
Country: ES
--></g></svg>