<?xml version="1.0" encoding="UTF-8" standalone="no"?>
<!DOCTYPE svg PUBLIC "-//W3C//DTD SVG 1.1//EN"
 "http://www.w3.org/Graphics/SVG/1.1/DTD/svg11.dtd">
<!-- Generated by graphviz version 2.38.0 (20140413.2041)
 -->
<!-- Title: G Pages: 1 -->
<svg width="306pt" height="184pt"
 viewBox="0.00 0.00 305.50 184.00" xmlns="http://www.w3.org/2000/svg" xmlns:xlink="http://www.w3.org/1999/xlink">
<g id="graph0" class="graph" transform="scale(1 1) rotate(0) translate(4 180)">
<title>G</title>
<polygon fill="white" stroke="none" points="-4,4 -4,-180 301.5,-180 301.5,4 -4,4"/>
<!-- ICloneable -->
<g id="node1" class="node"><title>ICloneable</title>
<polygon fill="none" stroke="black" points="8,-121.5 8,-171.5 130,-171.5 130,-121.5 8,-121.5"/>
<text text-anchor="start" x="28.5" y="-150.3" font-family="Times New Roman,serif" font-size="14.00">&lt;&lt;interface&gt;&gt;</text>
<text text-anchor="start" x="35.5" y="-136.3" font-family="Times New Roman,serif" font-weight="bold" font-size="14.00">ICloenable</text>
<polygon fill="none" stroke="black" points="8,-84.5 8,-121.5 130,-121.5 130,-84.5 8,-84.5"/>
<text text-anchor="start" x="19" y="-99.3" font-family="Times New Roman,serif" font-size="14.00">+ Clone() : object</text>
</g>
<!-- IDisposeable -->
<g id="node2" class="node"><title>IDisposeable</title>
<polygon fill="none" stroke="black" points="165,-121.5 165,-171.5 290,-171.5 290,-121.5 165,-121.5"/>
<text text-anchor="start" x="187" y="-150.3" font-family="Times New Roman,serif" font-size="14.00">&lt;&lt;interface&gt;&gt;</text>
<text text-anchor="start" x="188" y="-136.3" font-family="Times New Roman,serif" font-weight="bold" font-size="14.00">IDisposeable</text>
<polygon fill="none" stroke="black" points="165,-84.5 165,-121.5 290,-121.5 290,-84.5 165,-84.5"/>
<text text-anchor="start" x="176" y="-99.3" font-family="Times New Roman,serif" font-size="14.00">+ Dispose() : void</text>
</g>
<!-- MiClase -->
<g id="node3" class="node"><title>MiClase</title>
<polygon fill="none" stroke="black" points="111,-3.5 111,-40.5 185,-40.5 185,-3.5 111,-3.5"/>
<text text-anchor="start" x="122" y="-19.3" font-family="Times New Roman,serif" font-weight="bold" font-size="14.00">MiClase</text>
</g>
<!-- MiClase&#45;&gt;ICloneable -->
<g id="edge1" class="edge"><title>MiClase&#45;&gt;ICloneable</title>
<path fill="none" stroke="black" d="M131.631,-45.0489C125.488,-53.1367 118.191,-62.7419 110.787,-72.4888"/>
<polygon fill="none" stroke="black" points="107.828,-70.5989 104.566,-80.6792 113.402,-74.8332 107.828,-70.5989"/>
</g>
<!-- MiClase&#45;&gt;IDisposeable -->
<g id="edge2" class="edge"><title>MiClase&#45;&gt;IDisposeable</title>
<path fill="none" stroke="black" d="M164.369,-45.0489C170.512,-53.1367 177.809,-62.7419 185.213,-72.4888"/>
<polygon fill="none" stroke="black" points="182.598,-74.8332 191.434,-80.6792 188.172,-70.5989 182.598,-74.8332"/>
</g>
</g>
</svg>
