<?xml version="1.0" encoding="UTF-8" standalone="no"?>
<!DOCTYPE svg PUBLIC "-//W3C//DTD SVG 1.1//EN"
 "http://www.w3.org/Graphics/SVG/1.1/DTD/svg11.dtd">
<!-- Generated by graphviz version 2.38.0 (20140413.2041)
 -->
<!-- Title: G Pages: 1 -->
<svg width="282pt" height="184pt"
 viewBox="0.00 0.00 281.50 184.00" xmlns="http://www.w3.org/2000/svg" xmlns:xlink="http://www.w3.org/1999/xlink">
<g id="graph0" class="graph" transform="scale(1 1) rotate(0) translate(4 180)">
<title>G</title>
<polygon fill="white" stroke="none" points="-4,4 -4,-180 277.5,-180 277.5,4 -4,4"/>
<!-- ICloneable -->
<g id="node1" class="node"><title>ICloneable</title>
<polygon fill="none" stroke="black" points="8,-121.5 8,-171.5 118,-171.5 118,-121.5 8,-121.5"/>
<text text-anchor="start" x="22.5" y="-150.3" font-family="Times New Roman,serif" font-size="14.00">&lt;&lt;interface&gt;&gt;</text>
<text text-anchor="start" x="29.5" y="-136.3" font-family="Times New Roman,serif" font-weight="bold" font-size="14.00">ICloenable</text>
<polygon fill="none" stroke="black" points="8,-84.5 8,-121.5 118,-121.5 118,-84.5 8,-84.5"/>
<text text-anchor="start" x="19" y="-99.3" font-family="Times New Roman,serif" font-size="14.00">Clone() : object</text>
</g>
<!-- IDisposable -->
<g id="node2" class="node"><title>IDisposable</title>
<polygon fill="none" stroke="black" points="153,-121.5 153,-171.5 266,-171.5 266,-121.5 153,-121.5"/>
<text text-anchor="start" x="169" y="-150.3" font-family="Times New Roman,serif" font-size="14.00">&lt;&lt;interface&gt;&gt;</text>
<text text-anchor="start" x="173" y="-136.3" font-family="Times New Roman,serif" font-weight="bold" font-size="14.00">IDisposable</text>
<polygon fill="none" stroke="black" points="153,-84.5 153,-121.5 266,-121.5 266,-84.5 153,-84.5"/>
<text text-anchor="start" x="164" y="-99.3" font-family="Times New Roman,serif" font-size="14.00">Dispose() : void</text>
</g>
<!-- MiClase -->
<g id="node3" class="node"><title>MiClase</title>
<polygon fill="none" stroke="black" points="99,-3.5 99,-40.5 173,-40.5 173,-3.5 99,-3.5"/>
<text text-anchor="start" x="110" y="-19.3" font-family="Times New Roman,serif" font-weight="bold" font-size="14.00">MiClase</text>
</g>
<!-- MiClase&#45;&gt;ICloneable -->
<g id="edge1" class="edge"><title>MiClase&#45;&gt;ICloneable</title>
<path fill="none" stroke="black" stroke-dasharray="5,2" d="M120.874,-45.0489C115.197,-53.1367 108.455,-62.7419 101.614,-72.4888"/>
<polygon fill="none" stroke="black" points="98.7451,-70.4834 95.8646,-80.6792 104.475,-74.5051 98.7451,-70.4834"/>
</g>
<!-- MiClase&#45;&gt;IDisposable -->
<g id="edge2" class="edge"><title>MiClase&#45;&gt;IDisposable</title>
<path fill="none" stroke="black" stroke-dasharray="5,2" d="M151.126,-45.0489C156.803,-53.1367 163.545,-62.7419 170.386,-72.4888"/>
<polygon fill="none" stroke="black" points="167.525,-74.5051 176.135,-80.6792 173.255,-70.4834 167.525,-74.5051"/>
</g>
</g>
</svg>
